<svg width="270" height="249" viewBox="0 0 270 249" fill="none" xmlns="http://www.w3.org/2000/svg">
<path d="M102.298 236.075C87.9242 241.168 73.4113 243.521 57.9311 240.58C40.6768 237.3 25.711 222.534 17.2548 207.809C14.1129 202.339 11.6115 196.228 11.9384 189.93C12.6989 175.381 26.4437 173.755 38.1109 176.108C44.6877 177.432 50.7266 180.444 56.6969 183.427C66.6091 188.384 78.2363 190.822 87.1229 197.692C90.1048 200.004 92.3442 202.782 95.8092 204.464C101.199 207.083 107.352 208.319 112.888 210.702C117.615 212.747 122.898 216.111 122.905 221.259C122.906 226.539 117.398 229.903 112.558 232.005C109.132 233.502 105.722 234.868 102.298 236.075Z" fill="url(#paint0_linear)"/>
<path d="M49.3907 48.41C72.9369 13.71 121.626 -0.222703 161.092 12.8238C180.122 19.1181 196.071 32.2247 210.782 45.8306C223.748 57.8223 236.328 70.7565 245.183 86.1725C251.229 96.6952 255.557 109.309 258.613 121.085C263.181 138.717 259.032 161.436 236.24 159.771C230.892 159.381 226.266 157.458 221.264 155.776C217.219 154.412 213.254 155.23 209.054 154.564C198.481 152.89 188.296 148.997 178.665 144.438C159.037 135.138 141.103 122.503 120.917 114.353C104.375 107.683 86.7095 104.24 68.8732 104.208C61.3485 104.196 53.4365 104.722 46.7054 101.358C30.1152 93.0571 37.5757 70.675 43.7716 58.0842C45.4131 54.7305 47.2909 51.4976 49.3907 48.41Z" fill="url(#paint1_linear)"/>
<path d="M234.007 53.6475C237.883 57.1585 253.114 66.7432 253.407 55.4955C253.476 52.6934 252.205 49.9727 250.475 47.9206C248.497 45.5653 246.253 44.3298 244.708 41.5857C242.817 38.2724 240.665 35.1584 238.279 32.284C233.401 26.3012 227.706 20.7734 220.797 18.3105C215.95 16.5851 207.745 17.019 205.443 23.2302C202.089 32.2721 216.43 33.9289 220.803 37.224C224.954 40.343 227.304 45.7023 230.592 49.9615C231.631 51.3045 232.774 52.5384 234.007 53.6475Z" fill="url(#paint2_linear)"/>
<path d="M162.324 42.6499C170.535 47.4841 176.694 54.7201 184.18 60.5477C196.644 70.2486 213.727 72.2333 228.02 78.9796C242.594 85.8629 253.598 96.5601 258.574 111.978C265.002 131.879 265.613 155.545 260.152 176.004C254.137 198.525 240.014 213.484 219.363 223.46C198.725 233.431 175.862 238.084 153.059 239.044C150.859 239.138 148.662 239.189 146.456 239.203C96.919 239.491 30.9818 222.054 14.1164 168.839C13.9618 168.352 13.8136 167.866 13.6651 167.373C11.9272 161.444 10.9054 155.329 10.6215 149.157C9.56065 127.278 13.39 103.128 21.0608 82.617C26.2201 68.8082 37.3298 57.1323 49.0364 48.813C65.4842 37.1253 85.5529 34.1426 105.527 32.7403C120.318 31.7025 136.953 31.3233 150.94 36.9809C154.871 38.5835 158.676 40.4784 162.324 42.6499Z" fill="url(#paint3_linear)"/>
<path d="M193.966 233.12C130.471 251.582 80.419 235.142 61.8996 223.933L44.7029 210.745L50.6556 200.855L87.6946 197.558L149.206 194.261L198.812 204.152L208.31 199.322L210.004 216.822C212.262 230.371 210.568 226.984 193.966 233.12Z" fill="#FB4C47"/>
<path d="M75.9011 225.278H184.631C184.631 225.278 194.314 144.155 179.999 136.243C165.686 128.331 98.7527 129.985 83.9173 136.742C69.082 143.499 75.9011 225.278 75.9011 225.278Z" fill="#FB4C47"/>
<path d="M80.9216 119.157C80.7 119.157 80.476 119.075 80.3026 118.908C80.2062 118.819 70.8195 109.694 77.2917 93.629C79.5607 87.9958 81.6732 84.0387 83.5351 80.5493C86.8977 74.253 89.3257 69.7026 90.4409 59.6806C90.4963 59.1862 90.9492 58.839 91.4381 58.8824C91.9343 58.9379 92.2908 59.3864 92.2354 59.8807C91.0816 70.25 88.4537 75.1718 85.1297 81.4029C83.287 84.8513 81.2011 88.7627 78.9658 94.3042C72.9512 109.238 81.4564 117.512 81.5407 117.596C81.9044 117.939 81.9213 118.51 81.5768 118.872C81.401 119.06 81.1625 119.157 80.9216 119.157Z" fill="#000C3E"/>
<path d="M141.308 23.6795C141.05 30.5449 135.284 35.9031 128.426 35.6451C121.568 35.3871 116.216 29.6141 116.474 22.7487C116.732 15.8833 122.498 10.525 129.356 10.783C136.213 11.0411 141.566 16.8141 141.308 23.6795Z" fill="#000C3E"/>
<path d="M80.0869 114.341C80.0869 114.341 83.187 122.108 97.8464 125.812C112.506 129.516 124.545 124.971 135.709 129.953C146.876 134.937 163.824 130.698 167.451 126.111C171.076 121.525 174.203 68.0749 165.804 58.4749C157.405 48.8725 110.581 38.009 99.5687 47.7536C88.556 57.4983 74.0073 107.861 80.0869 114.341Z" fill="#000C3E"/>
<path d="M172.212 75.2881C171.364 97.9124 152.359 115.567 129.758 114.72C107.16 113.871 86.1843 93.8298 87.0322 71.2056C87.8776 48.5813 107.061 32.1569 129.659 33.0058C152.261 33.8522 173.06 52.6639 172.212 75.2881Z" fill="#000C3E"/>
<path d="M148.088 109.565C148.088 109.565 150.745 141.49 148.088 145.037C145.431 148.584 128.599 145.925 124.172 145.037C119.742 144.152 117.969 109.565 120.629 109.565C123.285 109.565 147.578 102.446 148.088 109.565Z" fill="#FFCEB0"/>
<path d="M97.859 72.2155C97.859 72.2155 99.5427 121.976 133.147 124.124C166.751 126.273 166.717 56.1624 154.556 49.4948C142.394 42.8247 91.6469 44.0762 97.859 72.2155Z" fill="#FFCEB0"/>
<path d="M137.794 82.8679C137.794 82.8679 144.211 98.183 142.561 99.1983C140.909 100.213 136.077 100.033 134.774 98.9065C133.47 97.7803 135.169 81.1534 137.794 82.8679Z" fill="#EE9B68"/>
<path d="M124.319 45.6792C124.319 45.6792 112.27 51.5125 109.977 62.4629C107.684 73.4157 108.872 101.456 96.1053 100.168C96.1053 100.168 71.3845 44.6761 124.319 45.6792Z" fill="#000C3E"/>
<path d="M130.671 45.9172C129.578 46.701 143.095 46.6696 150.823 56.0477C158.552 65.4259 160.388 88.8652 161.582 89.3017C162.777 89.7357 167.549 60.2557 159.077 51.3985C150.603 42.5436 136.893 41.4585 130.671 45.9172Z" fill="#000C3E"/>
<path d="M121.093 119.587C121.093 119.587 134.168 127.029 147.744 120.074C147.744 120.074 148.799 128.427 147.744 130.354C146.686 132.281 125.186 133.658 120.954 124.162C120.954 124.162 119.872 119.175 121.093 119.587Z" fill="#EE9B68"/>
<path d="M158.394 91.288C158.394 91.288 161.036 78.8087 165.444 83.1976C169.85 87.5864 165.728 100.64 161.33 101.865C156.932 103.09 155.92 97.7314 158.394 91.288Z" fill="#FFCEB0"/>
<path d="M105.683 89.311C105.683 89.311 103.407 76.6485 97.4787 80.6491C91.5508 84.6497 95.6408 98.0115 101.085 99.6055C106.526 101.197 108.258 95.9449 105.683 89.311Z" fill="#FFCEB0"/>
<path d="M144.829 75.8663C144.829 75.8663 150.408 72.1165 154.524 76.2136C158.142 79.8163 150.497 77.3976 147.859 78.1958C145.222 78.9916 141.645 79.1459 144.829 75.8663Z" fill="#41294A"/>
<path d="M130.118 76.752C130.118 76.752 124.77 72.6791 120.42 76.5254C116.595 79.9086 124.371 77.9457 126.955 78.8982C129.54 79.8483 133.105 80.2149 130.118 76.752Z" fill="#41294A"/>
<path d="M124.309 80.8496C119.085 80.8496 114.838 84.9467 114.643 90.1771C114.443 95.516 118.62 100.023 123.955 100.223L124.324 100.23C129.548 100.23 133.795 96.1334 133.99 90.9029C134.086 88.3155 133.171 85.8461 131.413 83.9483C129.654 82.0505 127.262 80.9533 124.68 80.8568L124.309 80.8496ZM124.324 101.436C124.187 101.436 124.049 101.434 123.91 101.429C117.912 101.202 113.215 96.1358 113.439 90.1313C113.665 84.1123 118.702 79.4365 124.724 79.6511C127.629 79.7596 130.319 80.9943 132.294 83.1284C134.272 85.2626 135.3 88.0381 135.194 90.9463C134.973 96.8279 130.199 101.436 124.324 101.436Z" fill="#FFFCF6"/>
<path d="M114.045 90.7571C113.968 90.7571 113.891 90.7426 113.814 90.7113L104.706 86.9349C104.4 86.8071 104.253 86.4526 104.381 86.1464C104.509 85.8377 104.86 85.6906 105.166 85.8208L114.276 89.5972C114.582 89.725 114.729 90.077 114.601 90.3857C114.505 90.6172 114.281 90.7571 114.045 90.7571Z" fill="#FFFCF6"/>
<path d="M135.191 50.2929C135.191 50.2929 133.827 69.6134 141.254 72.0611C148.68 74.5111 163.021 74.2651 163.903 71.3135C164.784 68.3643 149.744 44.6236 138.951 40.8159C120.025 34.141 102.774 62.0777 104.935 69.5001C107.095 76.925 129.643 73.8938 133.112 72.9388C136.583 71.9839 134.497 55.6246 135.191 50.2929Z" fill="#000C3E"/>
<path d="M135.191 90.9487C134.88 90.9487 134.615 90.7076 134.591 90.3917C134.567 90.0589 134.815 89.7695 135.145 89.743L141.273 89.2776C141.61 89.2631 141.894 89.4994 141.921 89.8346C141.945 90.165 141.697 90.4544 141.364 90.4809L135.239 90.9487C135.222 90.9487 135.205 90.9487 135.191 90.9487Z" fill="#FFFCF6"/>
<path d="M121.128 35.5753C120.988 35.5753 120.848 35.544 120.716 35.474C117.108 33.6124 114.954 31.0153 114.323 27.7598C112.929 20.5978 119.439 12.9029 119.719 12.5797C120.044 12.2011 120.612 12.1601 120.991 12.4808C121.371 12.8064 121.415 13.3779 121.089 13.7565C121.027 13.8288 114.865 21.1187 116.096 27.4198C116.619 30.1013 118.452 32.2716 121.542 33.868C121.985 34.0971 122.161 34.6421 121.932 35.0858C121.771 35.3969 121.455 35.5753 121.128 35.5753Z" fill="#000C3E"/>
<path d="M135.462 37.7909C135.204 37.7909 134.946 37.68 134.768 37.4678C134.448 37.0843 134.498 36.5128 134.881 36.1921C134.956 36.1318 142.228 29.9537 142.047 23.5368C141.97 20.8046 140.52 18.3618 137.733 16.2807C137.333 15.9817 137.251 15.415 137.55 15.0147C137.846 14.6168 138.417 14.5324 138.812 14.8315C142.067 17.2622 143.762 20.1776 143.854 23.4934C144.054 30.788 136.367 37.3062 136.04 37.5811C135.871 37.721 135.664 37.7909 135.462 37.7909Z" fill="#000C3E"/>
<path d="M164.34 124.286C164.048 124.286 163.762 124.144 163.588 123.884C163.309 123.469 163.422 122.909 163.836 122.63C164.195 122.386 172.689 116.55 171.359 105.59C170.841 101.312 169.67 96.5402 168.43 91.4858C166.274 82.6888 164.041 73.5929 164.605 65.0129C164.636 64.5161 165.079 64.1158 165.566 64.1689C166.065 64.2027 166.44 64.6319 166.407 65.1311C165.862 73.4337 168.059 82.3898 170.186 91.0542C171.436 96.1616 172.621 100.987 173.151 105.371C174.62 117.46 165.238 123.867 164.838 124.134C164.687 124.236 164.511 124.286 164.34 124.286Z" fill="#000C3E"/>
<path d="M172.131 79.4308C172.091 79.4308 172.05 79.4284 172.004 79.4211C171.51 79.3512 171.168 78.8954 171.238 78.4011C173.211 64.3906 169.272 53.2738 159.536 45.3618C152.252 39.4417 144.313 37.6355 144.234 37.6186C143.747 37.5125 143.439 37.0302 143.547 36.5407C143.653 36.0536 144.137 35.7473 144.624 35.8534C144.956 35.9258 177.958 43.6376 173.025 78.6519C172.962 79.1052 172.577 79.4308 172.131 79.4308Z" fill="#000C3E"/>
<path d="M139.458 114.902C137.623 114.902 136.202 114.319 136.11 114.28C135.653 114.087 135.436 113.559 135.628 113.099C135.819 112.641 136.346 112.423 136.806 112.612C136.835 112.624 139.572 113.726 141.961 112.542C142.409 112.315 142.949 112.498 143.173 112.947C143.394 113.393 143.214 113.935 142.766 114.157C141.641 114.719 140.485 114.902 139.458 114.902Z" fill="#EE9B68"/>
<path d="M102.261 96.4225C102.174 96.4225 102.085 96.4104 101.998 96.3839C101.519 96.2368 101.252 95.7328 101.396 95.2553C103.215 89.2798 98.8646 85.3105 98.8213 85.2695C98.4479 84.9367 98.4166 84.3652 98.749 83.9939C99.079 83.6201 99.6547 83.5863 100.023 83.9191C100.24 84.112 105.277 88.7131 103.126 95.781C103.008 96.1717 102.649 96.4225 102.261 96.4225Z" fill="#EE9B68"/>
<path d="M161.356 96.5991C161.334 96.5991 161.313 96.5991 161.294 96.5967C160.795 96.5605 160.419 96.1289 160.455 95.6321C160.865 89.8519 164.471 86.9244 164.622 86.8038C165.02 86.4927 165.576 86.5578 165.889 86.9485C166.2 87.3367 166.135 87.9058 165.75 88.2169C165.718 88.2434 162.609 90.8068 162.257 95.7575C162.223 96.235 161.826 96.5991 161.356 96.5991Z" fill="#EE9B68"/>
<path d="M101.086 139.504C101.086 139.504 132.187 167.134 149.525 159.934C166.861 152.733 171.984 135.817 163.269 133.227C154.555 130.637 87.4571 128.679 101.086 139.504Z" fill="#FFCEB0"/>
<path d="M141.255 111.661C141.154 111.661 141.05 111.645 140.949 111.608C138.119 110.581 136.719 109.33 136.666 107.777C136.582 105.242 140.45 103.465 140.891 103.27C141.344 103.069 141.879 103.274 142.081 103.733C142.281 104.188 142.076 104.724 141.618 104.926C140.33 105.495 138.439 106.778 138.473 107.716C138.494 108.396 139.651 109.214 141.561 109.906C142.03 110.077 142.274 110.596 142.105 111.063C141.97 111.432 141.623 111.661 141.255 111.661Z" fill="#EE9B68"/>
<path d="M126.957 93.0385C126.673 93.0385 126.389 92.9372 126.16 92.737C122.128 89.1681 119.321 90.0941 119.203 90.1326C118.584 90.3545 117.895 90.0338 117.667 89.4189C117.438 88.8015 117.736 88.1191 118.348 87.8803C118.517 87.8128 122.547 86.3201 127.754 90.9284C128.253 91.3697 128.301 92.1342 127.86 92.6309C127.622 92.901 127.289 93.0385 126.957 93.0385Z" fill="#41294A"/>
<path d="M148.215 93.2639C147.882 93.2639 147.552 93.1265 147.311 92.8564C146.871 92.3572 146.919 91.5952 147.417 91.1539C152.632 86.5408 156.655 88.0383 156.823 88.1058C157.442 88.347 157.751 89.0463 157.507 89.666C157.269 90.2834 156.58 90.5872 155.966 90.3581C155.821 90.3075 153.022 89.4153 149.012 92.9625C148.783 93.1626 148.499 93.2639 148.215 93.2639Z" fill="#41294A"/>
<path d="M223.55 112.262L200.715 105.659L194.031 114.309L177.883 112.602L196.912 121.939L203.555 111.063L223.55 112.262Z" fill="#000C3E"/>
<path d="M203.717 95.6281L189.298 95.8524L186.95 102.057L177.276 103.933L189.973 105.973L191.902 98.4833L203.717 95.6281Z" fill="#000C3E"/>
<path d="M151.53 79.3136C146.305 79.3136 142.059 83.4106 141.864 88.6411C141.664 93.9824 145.84 98.487 151.176 98.6872L151.544 98.6944C156.769 98.6944 161.016 94.5974 161.211 89.3669C161.411 84.028 157.231 79.521 151.898 79.3208L151.53 79.3136ZM151.544 99.9001C151.405 99.9001 151.267 99.8977 151.128 99.8929C145.132 99.6662 140.435 94.5998 140.659 88.5977C140.886 82.5763 145.918 77.9053 151.947 78.1151C157.942 78.3418 162.637 83.4082 162.415 89.4103C162.196 95.2919 157.419 99.9001 151.544 99.9001Z" fill="#FFFCF6"/>
<path d="M116.465 181.964C116.465 181.964 134.774 160.37 150.763 130.962C157.028 119.436 168.766 116.636 169.192 118.252C169.618 119.87 162.371 126.617 162.371 126.617C162.371 126.617 172.03 119.489 173.595 121.813C175.161 124.138 167.275 131.199 167.275 131.199C167.275 131.199 174.308 127.126 177.293 128.833C180.277 130.54 168.978 132.708 169.192 138.65C172.473 229.899 129.487 222.788 129.487 222.788L116.465 181.964Z" fill="#FFBD96"/>
<path d="M134.778 161.273C134.665 161.273 134.549 161.252 134.436 161.206C133.976 161.018 133.754 160.49 133.942 160.027C144.463 134.241 150.936 130.472 151.205 130.325C151.644 130.084 152.19 130.25 152.431 130.684C152.67 131.121 152.511 131.666 152.082 131.907C151.959 131.981 145.718 135.946 135.614 160.711C135.471 161.061 135.132 161.273 134.778 161.273Z" fill="#EE9B68"/>
<path d="M106.854 198.223L44.7807 203.179C44.7807 203.179 42.6972 173.426 51.6504 158.065C60.6036 142.704 85.5652 135.755 89.7396 134.894C93.9139 134.033 106.854 198.223 106.854 198.223Z" fill="#FB4C47"/>
<path d="M178.28 135.379C178.28 135.379 200.62 140.218 204.915 163.873C207.663 178.996 211.52 227.337 211.52 227.337L201.534 231.165L192.358 233.899L173.039 238.274L178.28 135.379Z" fill="#D9423D"/>
<path d="M114.038 178.12C114.038 178.12 140.578 221.634 131.35 222.84C122.122 224.046 75.1517 227.663 62.5059 222.84C49.86 218.017 43.4167 212.051 45.0257 198.774C43.6064 178.12 50.3813 152.836 53.7487 158.561C70.8699 187.669 114.038 178.12 114.038 178.12Z" fill="#D9423D"/>
<path d="M111.388 179.326C93.8521 179.326 77.9762 161.918 77.309 161.177C76.8634 160.683 76.9019 159.919 77.3957 159.475C77.8895 159.029 78.6507 159.067 79.0963 159.562C79.2529 159.735 94.9312 176.915 111.388 176.915C112.052 176.915 112.592 177.455 112.592 178.12C112.592 178.786 112.052 179.326 111.388 179.326Z" fill="#B43936"/>
<path d="M181.789 222.37H181.76C181.096 222.353 180.568 221.801 180.585 221.136C180.592 220.827 181.31 190.187 180.587 176.444C179.908 163.536 176.57 160.637 176.536 160.608C176.032 160.193 175.938 159.444 176.338 158.927C176.733 158.416 177.458 158.298 177.988 158.684C178.422 159.005 182.249 162.205 182.991 176.316C183.721 190.153 183.001 220.885 182.994 221.194C182.977 221.849 182.442 222.37 181.789 222.37Z" fill="#B43936"/>
<path d="M132.501 13.1987C132.184 13.1987 131.84 13.2356 131.467 13.3092C130.558 13.4916 129.969 13.9333 129.616 14.7C128.039 18.1121 131.363 26.2392 133.738 31.0406C135.206 25.7143 136.965 16.811 134.479 14.0054C134.001 13.466 133.349 13.1987 132.501 13.1987ZM134.015 35.0481C133.62 35.0481 133.25 34.8352 133.055 34.4831C132.215 32.9771 124.929 19.6021 127.618 13.7781C128.265 12.3777 129.447 11.4687 131.037 11.1518C133.745 10.6124 135.3 11.6127 136.126 12.5458C140.444 17.4207 135.625 32.5802 135.062 34.2927C134.924 34.7072 134.556 35.0017 134.121 35.0433C134.086 35.0465 134.05 35.0481 134.015 35.0481Z" fill="#FFD310"/>
<path d="M147.333 18.611C147.229 18.611 147.124 18.6174 147.018 18.6334C143.3 19.1279 138.808 27.0134 136.433 32.002C141.37 29.923 149.201 25.9523 150.241 22.3416C150.475 21.5286 150.318 20.81 149.75 20.077C148.985 19.0927 148.193 18.611 147.333 18.611ZM134.322 35.118C134.026 35.118 133.736 34.9996 133.526 34.7787C133.224 34.4619 133.137 33.9977 133.305 33.5944C134 31.9315 140.271 17.313 146.727 16.452C147.964 16.2871 149.793 16.5464 151.486 18.7262C152.482 20.0066 152.783 21.4678 152.356 22.9498C150.579 29.1132 136.317 34.4619 134.698 35.0524C134.575 35.0972 134.448 35.118 134.322 35.118Z" fill="#FFD310"/>
<path d="M113.666 31.2317C119.011 34.6673 131.226 37.3395 140.77 31.2317" stroke="#FFD310" stroke-width="1.63065"/>
<defs>
<linearGradient id="paint0_linear" x1="10.6625" y1="191.938" x2="25.5753" y2="243.719" gradientUnits="userSpaceOnUse">
<stop stop-color="#FFD8D8"/>
<stop offset="1" stop-color="#FFF8F8"/>
</linearGradient>
<linearGradient id="paint1_linear" x1="259.25" y1="79.4139" x2="102.754" y2="-19.38" gradientUnits="userSpaceOnUse">
<stop stop-color="#FFF8F8"/>
<stop offset="1" stop-color="#FFCFCF"/>
</linearGradient>
<linearGradient id="paint2_linear" x1="253.802" y1="55.2982" x2="196.538" y2="30.8394" gradientUnits="userSpaceOnUse">
<stop stop-color="#FFD7D7"/>
<stop offset="1" stop-color="#FFF9F9"/>
</linearGradient>
<linearGradient id="paint3_linear" x1="240.876" y1="216.592" x2="10.6684" y2="83.2792" gradientUnits="userSpaceOnUse">
<stop stop-color="#FFCFCF"/>
<stop offset="1" stop-color="#FFF8F8"/>
</linearGradient>
</defs>
</svg>
