<svg width="657" height="690" viewBox="0 0 657 690" fill="none" xmlns="http://www.w3.org/2000/svg">
<path d="M224.018 564.898C192.542 576.05 160.761 581.203 126.861 574.762C89.0767 567.58 56.3036 535.245 37.7857 502.998C30.9053 491.021 25.4277 477.637 26.1435 463.846C27.8089 431.985 57.9081 428.425 83.4577 433.578C97.86 436.476 111.084 443.073 124.159 449.606C145.865 460.461 171.327 465.799 190.788 480.844C197.318 485.907 202.222 491.99 209.81 495.674C221.613 501.408 235.086 504.116 247.21 509.335C257.561 513.813 269.13 521.179 269.146 532.453C269.147 544.014 257.085 551.382 246.487 555.984C238.986 559.263 231.517 562.253 224.018 564.898Z" fill="url(#paint0_linear)"/>
<path d="M108.159 153.937C159.722 77.9484 266.345 47.4375 352.769 76.0076C394.444 89.7914 429.37 118.493 461.584 148.288C489.979 174.548 517.527 202.873 536.918 236.632C550.159 259.675 559.636 287.297 566.328 313.085C576.333 351.697 567.247 401.448 517.334 397.803C505.623 396.949 495.492 392.737 484.539 389.053C475.68 386.067 466.998 387.858 457.8 386.399C434.647 382.733 412.344 374.209 391.253 364.225C348.271 343.859 308.997 316.19 264.793 298.344C228.568 283.737 189.882 276.196 150.823 276.127C134.345 276.1 117.019 277.253 102.279 269.885C65.9483 251.708 82.2858 202.694 95.854 175.122C99.4487 167.778 103.561 160.698 108.159 153.937Z" fill="url(#paint1_linear)"/>
<path d="M512.445 165.406C520.933 173.095 554.286 194.084 554.928 169.453C555.08 163.317 552.297 157.359 548.509 152.865C544.175 147.707 539.262 145.002 535.878 138.992C531.738 131.737 527.024 124.917 521.799 118.623C511.118 105.522 498.647 93.4163 483.516 88.0228C472.903 84.2444 454.935 85.1946 449.893 98.7964C442.549 118.597 473.953 122.225 483.53 129.441C492.619 136.271 497.767 148.007 504.967 157.334C507.242 160.275 509.746 162.978 512.445 165.406Z" fill="url(#paint2_linear)"/>
<path d="M355.467 141.323C373.448 151.909 386.936 167.755 403.329 180.517C430.623 201.761 468.033 206.107 499.333 220.88C531.248 235.954 555.347 259.379 566.243 293.142C580.319 336.722 581.657 388.548 569.698 433.351C556.527 482.668 525.598 515.428 480.377 537.274C435.181 559.108 385.114 569.297 335.179 571.399C330.36 571.606 325.55 571.718 320.72 571.749C212.24 572.379 67.8458 534.195 30.9128 417.66C30.5743 416.595 30.2499 415.531 29.9245 414.451C26.1188 401.467 23.8812 388.075 23.2594 374.56C20.9364 326.647 29.3221 273.762 46.1201 228.846C57.4183 198.607 81.7471 173.038 107.383 154.82C143.402 129.225 187.349 122.693 231.09 119.622C263.48 117.35 299.909 116.519 330.538 128.909C339.146 132.418 347.479 136.568 355.467 141.323Z" fill="url(#paint3_linear)"/>
<path d="M431.019 561.411C291.972 601.841 176.1 562.855 135.545 538.308L97.8865 509.429L110.922 487.77L192.033 480.551L326.734 473.331L435.364 494.99L548.339 457.448H556.5C539.119 516.36 466.746 551.303 431.019 561.411Z" fill="#FB4C47"/>
<path d="M419.5 274C419.5 274 529.5 279 556 394.5C577 543.5 478.011 490.804 454.343 483.46C430.681 476.116 346.307 285.402 419.5 274Z" fill="#D9423D"/>
<path d="M143.572 506.307H479.565C479.565 506.307 491.329 313.122 448.523 284.854C405.723 256.591 205.556 262.494 161.192 286.634C116.827 310.781 143.572 506.307 143.572 506.307Z" fill="#FB4C47"/>
<path d="M194.961 257.758C194.581 257.758 194.196 257.659 193.846 257.449C192.818 256.848 168.806 242.124 175 204.234C177.166 190.981 179.805 181.43 182.134 172.994C186.326 157.815 189.356 146.845 186.91 124.747C186.781 123.545 187.646 122.465 188.848 122.33C190.045 122.254 191.131 123.066 191.265 124.269C193.805 147.201 190.512 159.099 186.355 174.162C184.055 182.481 181.451 191.921 179.32 204.94C173.605 239.911 195.848 253.549 196.076 253.689C197.115 254.302 197.459 255.645 196.841 256.684C196.438 257.379 195.708 257.758 194.961 257.758Z" fill="#000C3E"/>
<path d="M280.665 24.398C282.37 39.478 271.523 53.0809 256.443 54.7857C241.363 56.4904 227.76 45.6431 226.055 30.5631C224.356 15.4831 235.198 1.88019 250.278 0.175449C265.358 -1.52346 278.961 9.31803 280.665 24.398Z" fill="#000C3E"/>
<path d="M191.259 247.547C191.259 247.547 201.709 262.778 235.139 263.648C268.562 264.512 292.33 248.878 318.835 254.196C345.334 259.515 379.85 242.158 385.448 230.511C391.053 218.869 371.88 102.164 349.106 85.549C326.331 68.9336 220.041 68.2505 201.009 94.5924C181.976 120.934 175 236.536 191.259 247.547Z" fill="#000C3E"/>
<path d="M365.258 126.912C370.869 176.607 335.133 221.444 285.439 227.054C235.744 232.665 190.907 196.929 185.297 147.235C179.686 97.5405 215.422 52.7033 265.116 47.0928C314.811 41.4823 359.648 77.2178 365.258 126.912Z" fill="#000C3E"/>
<path d="M323.82 209.743C323.82 209.743 340.161 278.592 335.519 287.221C330.878 295.844 293.199 295.593 283.227 295.12C273.25 294.641 257.965 219.691 263.774 218.809C269.583 217.934 320.358 194.365 323.82 209.743Z" fill="#FFCEB0"/>
<path d="M201.667 144.755C201.667 144.755 221.762 252.883 295.947 246.473C370.139 240.069 346.932 86.951 318.144 76.4073C289.356 65.8577 178.798 85.3455 201.667 144.755Z" fill="#FFCEB0"/>
<path d="M280.625 156.626C280.625 156.626 299.71 187.959 296.435 190.721C293.159 193.482 282.528 194.679 279.311 192.653C276.094 190.621 274.32 153.748 280.625 156.626Z" fill="#EE9B68"/>
<path d="M250.769 78.0594C250.769 78.0594 226.348 94.7799 224.946 119.458C223.545 144.13 235.391 204.981 207.052 206.388C207.052 206.388 134.694 93.3495 250.769 78.0594Z" fill="#000C3E"/>
<path d="M264.735 76.4811C262.604 78.5537 292.145 74.0174 312.141 91.9523C332.131 109.887 343.877 160.475 346.633 161.029C349.394 161.584 350.101 95.6186 328.657 79.0732C307.208 62.5279 276.867 64.688 264.735 76.4811Z" fill="#000C3E"/>
<path d="M268.1 240.549C268.1 240.549 299.142 252.488 326.535 232.813C326.535 232.813 331.596 250.713 329.921 255.267C328.251 259.826 281.692 269.932 269.303 250.59C269.303 250.59 265.292 240.052 268.1 240.549Z" fill="#EE9B68"/>
<path d="M340.957 166.35C340.957 166.35 343.882 138.082 357.613 145.911C371.35 153.74 364.537 183.853 352.803 188.261C341.062 192.674 336.374 181.389 340.957 166.35Z" fill="#FFCEB0"/>
<path d="M224.411 179.511C224.411 179.511 215.257 152.603 203.615 163.298C191.974 173.994 205.326 201.83 217.75 203.512C230.179 205.193 232.228 193.149 224.411 179.511Z" fill="#FFCEB0"/>
<path d="M305.568 137.219C305.568 137.219 316.526 127.189 326.883 134.778C335.985 141.451 318.465 138.696 312.959 141.305C307.46 143.915 299.683 145.433 305.568 137.219Z" fill="#41294A"/>
<path d="M255.018 146.832C255.018 146.832 241.981 139.704 233.737 149.541C226.486 158.193 242.845 151.339 248.812 152.559C254.778 153.785 262.689 153.406 255.018 146.832Z" fill="#41294A"/>
<path d="M253.727 156.548C252.927 156.548 252.127 156.594 251.315 156.682C239.657 158.007 231.238 168.569 232.552 180.222C233.865 191.781 244.333 200.311 256.079 198.98C261.731 198.337 266.792 195.541 270.336 191.098C273.88 186.649 275.48 181.091 274.843 175.446C273.623 164.675 264.551 156.548 253.727 156.548ZM253.668 202.033C241.361 202.033 231.034 192.797 229.656 180.548C228.155 167.296 237.73 155.287 250.983 153.786C264.469 152.216 276.256 161.971 277.739 175.119C278.469 181.541 276.647 187.864 272.619 192.914C268.591 197.97 262.834 201.151 256.412 201.875C255.49 201.98 254.573 202.033 253.668 202.033Z" fill="#FFFCF6"/>
<path d="M312.927 144.182C312.122 144.182 311.322 144.229 310.504 144.317C304.853 144.959 299.791 147.755 296.253 152.198C292.704 156.647 291.11 162.205 291.741 167.85C293.054 179.416 303.522 187.934 315.268 186.608C320.92 185.966 325.981 183.17 329.525 178.727C333.069 174.278 334.669 168.72 334.032 163.075C332.812 152.309 323.745 144.182 312.927 144.182ZM312.846 189.662C300.545 189.662 290.223 180.426 288.845 168.177C288.115 161.755 289.937 155.432 293.965 150.382C297.993 145.327 303.756 142.145 310.172 141.421C323.576 139.862 335.445 149.594 336.928 162.748C337.658 169.17 335.836 175.492 331.808 180.548C327.78 185.598 322.023 188.78 315.601 189.504C314.679 189.609 313.762 189.662 312.846 189.662Z" fill="#FFFCF6"/>
<path d="M231.078 176.941C230.967 176.941 230.862 176.929 230.751 176.9L221.48 174.769C220.698 174.594 220.207 173.806 220.388 173.024C220.569 172.236 221.369 171.728 222.134 171.932L231.405 174.063C232.187 174.238 232.678 175.026 232.497 175.809C232.345 176.486 231.743 176.941 231.078 176.941Z" fill="#FFFCF6"/>
<path d="M333.607 157.557C333.052 157.557 332.521 157.236 332.276 156.704C331.943 155.974 332.27 155.105 333 154.766L344.635 149.453C345.341 149.115 346.229 149.436 346.567 150.177C346.9 150.907 346.579 151.777 345.844 152.11L334.214 157.428C334.015 157.516 333.811 157.557 333.607 157.557Z" fill="#FFFCF6"/>
<path d="M258.821 71.0068C258.821 71.0068 271.035 129.418 288.076 132.313C305.124 135.209 344.829 127.713 345.781 120.976C346.732 114.244 306.017 67.3579 281.164 62.6056C237.576 54.2746 212.017 126.954 219.186 142.454C226.361 157.96 259.779 138.397 267.047 135.168C274.322 131.934 259.066 82.8816 258.821 71.0068Z" fill="#000C3E"/>
<path d="M276.108 175.476C275.443 175.476 274.841 175.021 274.69 174.35C274.509 173.561 274.993 172.779 275.775 172.598L290.412 169.2C291.229 168.99 291.988 169.51 292.163 170.286C292.344 171.074 291.86 171.857 291.071 172.038L276.441 175.435C276.324 175.465 276.219 175.476 276.108 175.476Z" fill="#FFFCF6"/>
<path d="M240.167 57.2585C239.933 57.2585 239.7 57.2235 239.466 57.1418C230.902 54.2402 225.303 49.2486 222.822 42.2895C217.381 27.011 229.121 7.98439 229.629 7.17873C230.271 6.15121 231.614 5.83595 232.647 6.48983C233.669 7.12618 233.979 8.48064 233.342 9.50232C233.231 9.6833 222.215 27.5598 226.949 40.8299C228.958 46.4521 233.646 50.5505 240.868 52.9967C242.012 53.382 242.631 54.6255 242.24 55.7698C241.936 56.6806 241.078 57.2585 240.167 57.2585Z" fill="#000C3E"/>
<path d="M272.231 57.3667C271.718 57.3667 271.198 57.1857 270.784 56.8179C269.879 56.0181 269.791 54.6344 270.591 53.7295C270.731 53.5719 284.532 37.7446 282.045 23.879C280.983 17.9941 277.036 13.1893 270.317 9.58712C269.248 9.01498 268.845 7.68971 269.417 6.62716C269.99 5.5471 271.332 5.17346 272.377 5.72225C280.352 9.99579 285.046 15.8456 286.354 23.1142C289.215 39.0699 274.503 55.9188 273.872 56.6311C273.44 57.1157 272.839 57.3667 272.231 57.3667Z" fill="#000C3E"/>
<path d="M377.408 228.326C376.866 228.326 376.323 228.128 375.902 227.719C375.027 226.89 374.991 225.507 375.826 224.625C376.48 223.93 391.887 207.309 383.755 184.447C380.573 175.497 375.733 165.794 370.613 155.513C361.686 137.584 352.45 119.048 349.508 100.249C349.315 99.0518 350.133 97.9309 351.329 97.7499C352.526 97.4872 353.647 98.3746 353.828 99.5714C356.665 117.705 365.75 135.932 374.536 153.557C379.715 163.961 384.607 173.78 387.882 182.976C396.937 208.436 379.726 226.873 378.991 227.649C378.564 228.099 377.986 228.326 377.408 228.326Z" fill="#000C3E"/>
<path d="M369.718 128.502C368.539 128.502 367.564 127.562 367.529 126.377C366.858 102.125 359.373 83.3437 345.28 70.5348C322.587 49.9202 290.15 51.8468 289.841 51.8818C288.498 52.0394 287.593 51.0469 287.511 49.8443C287.424 48.6416 288.34 47.5966 289.549 47.5149C290.944 47.4156 324.157 45.4306 348.228 67.3004C363.238 80.9325 371.201 100.765 371.908 126.248C371.943 127.457 370.991 128.467 369.783 128.502H369.718Z" fill="#000C3E"/>
<path d="M291.525 226.496C288.979 226.496 287.17 226.053 287.018 226.012C285.844 225.714 285.138 224.535 285.43 223.361C285.722 222.199 286.901 221.493 288.08 221.762C288.139 221.785 294.409 223.274 299.167 219.94C300.171 219.251 301.531 219.491 302.215 220.471C302.909 221.464 302.67 222.83 301.683 223.519C298.262 225.918 294.421 226.496 291.525 226.496Z" fill="#EE9B68"/>
<path d="M218.982 196.387C218.877 196.387 218.772 196.382 218.661 196.364C217.464 196.189 216.641 195.074 216.816 193.877C218.801 180.35 208.082 173.181 207.971 173.117C206.961 172.451 206.681 171.096 207.335 170.081C207.995 169.065 209.349 168.785 210.365 169.444C210.902 169.795 223.536 178.242 221.148 194.519C220.99 195.605 220.056 196.387 218.982 196.387Z" fill="#EE9B68"/>
<path d="M348.299 183.337C347.149 183.337 346.186 182.444 346.115 181.282C345.088 164.842 351.849 155.075 352.135 154.666C352.824 153.691 354.19 153.44 355.182 154.14C356.175 154.835 356.408 156.201 355.719 157.188C355.655 157.276 349.566 166.196 350.482 181.014C350.558 182.222 349.642 183.255 348.433 183.331C348.392 183.337 348.346 183.337 348.299 183.337Z" fill="#EE9B68"/>
<path d="M227.747 291.15C227.747 291.15 277.459 350.582 315.799 334.679C354.132 318.776 390.049 275.667 370.777 269.946C351.505 264.224 197.611 267.237 227.747 291.15Z" fill="#FFCEB0"/>
<path d="M265.17 177.849C265.719 181.469 263.226 184.843 259.607 185.392C255.987 185.935 252.612 183.448 252.064 179.828C251.521 176.208 254.008 172.834 257.627 172.285C261.247 171.742 264.622 174.229 265.17 177.849Z" fill="#41294A"/>
<path d="M327.334 165.895C327.883 169.514 325.39 172.889 321.77 173.438C318.15 173.981 314.776 171.493 314.227 167.874C313.684 164.254 316.171 160.88 319.791 160.331C323.411 159.788 326.785 162.275 327.334 165.895Z" fill="#41294A"/>
<path d="M275.988 218.532C275.643 218.532 275.305 218.45 274.983 218.287C273.915 217.732 273.489 216.419 274.044 215.339C274.359 214.731 281.908 200.311 294.068 198.951C300.975 198.18 307.712 201.712 314.175 209.419C314.952 210.353 314.829 211.731 313.907 212.507C312.984 213.301 311.606 213.161 310.824 212.238C305.354 205.717 299.912 202.687 294.565 203.306C284.739 204.392 278.002 217.213 277.932 217.347C277.546 218.1 276.782 218.532 275.988 218.532Z" fill="#EE9B68"/>
<g filter="url(#filter0_d)">
<circle cx="399.879" cy="442.564" r="105.44" fill="white"/>
</g>
<path d="M345.808 395.505C345.808 395.505 389.878 454.347 400.902 459.212C411.929 464.081 425.753 462.985 426.962 468.629C428.171 474.277 403.818 464.725 407.703 473.436C411.588 482.151 426.728 492.098 426.799 500.871C426.873 509.648 402.708 482.034 402.708 482.034C402.708 482.034 425.476 507.298 417.937 507.895C410.395 508.493 390.893 483.793 390.893 483.793C390.893 483.793 412.708 516.195 405.476 513.235C398.248 510.276 331.207 432.751 320.868 424.547C310.53 416.346 345.808 395.505 345.808 395.505Z" fill="#E27B5A"/>
<path d="M474.005 409.788C474.005 409.788 423.74 463.42 412.246 467.044C400.751 470.666 387.133 468.057 385.309 473.533C383.488 479.011 408.742 472.199 403.922 480.434C399.105 488.665 382.965 496.884 381.929 505.599C380.895 514.311 407.945 489.527 407.945 489.527C407.945 489.527 382.538 512.13 389.966 513.553C397.398 514.979 419.496 492.576 419.496 492.576C419.496 492.576 394.251 522.382 401.763 520.236C409.274 518.089 484.426 448.417 495.601 441.402C506.779 434.387 474.005 409.788 474.005 409.788Z" fill="#F8B38A"/>
<path d="M431.214 447.027C431.214 447.027 446.674 476.301 460.886 479.416C475.096 482.531 497.649 459.946 504.347 446.182C511.048 432.421 496.078 391.395 482.639 377.44C472.543 376.207 424.047 420.933 431.214 447.027Z" fill="#F65551"/>
<path d="M332.232 361.934C332.232 361.934 386.135 417.215 383.726 430.226C381.32 443.24 361.904 458.83 346.245 463.935C330.587 469.038 295.019 448.251 295.019 433.261C296.569 404.833 312.591 377.957 332.232 361.934Z" fill="#128E5A"/>
<path d="M151.907 425.958C151.907 425.958 270.768 490.914 292.988 490.648C315.206 490.376 337.565 477.983 343.905 486.516C350.242 495.056 302.087 497.654 315.26 509.293C328.426 520.929 361.422 526.033 368.243 540.687C375.057 555.339 313.433 527.52 313.433 527.52C313.433 527.52 370.927 552.467 358.73 559.228C346.529 565.996 294.949 539.496 294.949 539.496C294.949 539.496 356.293 577.142 341.901 577.704C327.508 578.267 155.833 499.549 132.226 493.698C108.614 487.848 151.907 425.958 151.907 425.958Z" fill="#FFC6A6"/>
<path d="M243.609 422.254C243.609 422.254 245.034 477.413 232.365 498.46C202.244 548.5 120.787 542.399 96.5007 506.5C72.2139 470.601 125.322 289.36 161.192 286.633C197.062 283.907 243.609 370 243.609 422.254Z" fill="#D9423D"/>
<path d="M266.835 5.6696C266.162 5.6696 265.432 5.74771 264.641 5.90393C262.712 6.29107 261.462 7.22838 260.712 8.85508C257.367 16.0954 264.42 33.3405 269.46 43.5287C272.574 32.2266 276.306 13.3345 271.032 7.3812C270.017 6.23674 268.635 5.6696 266.835 5.6696ZM270.047 52.0323C269.209 52.0323 268.424 51.5807 268.01 50.8335C266.227 47.6379 250.768 19.2572 256.473 6.89896C257.845 3.92743 260.355 1.99848 263.727 1.32606C269.473 0.181598 272.774 2.30412 274.527 4.28401C283.689 14.6284 273.464 46.7957 272.268 50.4294C271.976 51.309 271.195 51.9339 270.272 52.0222C270.197 52.029 270.122 52.0323 270.047 52.0323Z" fill="#FFD310"/>
<path d="M298.307 17.1532C298.086 17.1532 297.862 17.1667 297.638 17.2007C289.749 18.2501 280.216 34.9824 275.177 45.5678C285.653 41.1564 302.27 32.7308 304.478 25.0693C304.973 23.3441 304.641 21.8193 303.435 20.2639C301.812 18.1754 300.131 17.1532 298.307 17.1532ZM270.697 52.1799C270.069 52.1799 269.454 51.9286 269.009 51.46C268.368 50.7876 268.184 49.8027 268.541 48.9469C270.015 45.4184 283.32 14.399 297.02 12.5719C299.645 12.2221 303.527 12.7723 307.12 17.3977C309.232 20.1145 309.871 23.2151 308.964 26.3598C305.194 39.438 274.932 50.7876 271.495 52.0407C271.234 52.1358 270.966 52.1799 270.697 52.1799Z" fill="#FFD310"/>
<path d="M226.867 43.9336C238.207 51.2238 264.128 56.8939 284.378 43.9336" stroke="#FFD310" stroke-width="4.87"/>
<defs>
<filter id="filter0_d" x="214.439" y="261.124" width="370.88" height="370.88" filterUnits="userSpaceOnUse" color-interpolation-filters="sRGB">
<feFlood flood-opacity="0" result="BackgroundImageFix"/>
<feColorMatrix in="SourceAlpha" type="matrix" values="0 0 0 0 0 0 0 0 0 0 0 0 0 0 0 0 0 0 127 0"/>
<feOffset dy="4"/>
<feGaussianBlur stdDeviation="40"/>
<feColorMatrix type="matrix" values="0 0 0 0 0 0 0 0 0 0 0 0 0 0 0 0 0 0 0.22 0"/>
<feBlend mode="normal" in2="BackgroundImageFix" result="effect1_dropShadow"/>
<feBlend mode="normal" in="SourceGraphic" in2="effect1_dropShadow" result="shape"/>
</filter>
<linearGradient id="paint0_linear" x1="23.3494" y1="468.244" x2="56.0066" y2="581.637" gradientUnits="userSpaceOnUse">
<stop stop-color="#FFCCCC"/>
<stop offset="1" stop-color="#FFEEEE"/>
</linearGradient>
<linearGradient id="paint1_linear" x1="633.331" y1="165.006" x2="267.819" y2="80.6042" gradientUnits="userSpaceOnUse">
<stop stop-color="white"/>
<stop offset="1" stop-color="#FFCECE"/>
</linearGradient>
<linearGradient id="paint2_linear" x1="555.794" y1="169.021" x2="430.392" y2="115.46" gradientUnits="userSpaceOnUse">
<stop stop-color="#FFD1D1"/>
<stop offset="1" stop-color="#FFFBFC"/>
</linearGradient>
<linearGradient id="paint3_linear" x1="527.487" y1="522.233" x2="23.3623" y2="230.296" gradientUnits="userSpaceOnUse">
<stop stop-color="#FFCDCD"/>
<stop offset="1" stop-color="#FFF3F3"/>
</linearGradient>
</defs>
</svg>
