<svg width="1792" height="360" viewBox="0 0 1792 360" fill="none" xmlns="http://www.w3.org/2000/svg">
<path d="M108.78 121.506C122.117 128.318 171.374 143.448 163.79 112.135C161.89 104.337 156.346 97.7646 150.033 93.3828C142.804 88.3485 135.68 86.6074 129.36 80.1749C121.66 72.4267 113.386 65.4246 104.645 59.2593C86.6963 46.3607 66.8278 35.3297 45.8883 33.6781C31.2028 32.5254 8.84368 39.8489 7.11542 58.7376C4.59196 86.2364 45.4726 80.1133 60.022 85.9585C73.8237 91.483 84.3216 104.544 96.59 113.864C100.465 116.802 104.545 119.36 108.78 121.506Z" fill="url(#paint0_linear)"/>
<path d="M1725.16 193.124C1693.8 190.688 1663.63 193.779 1634.37 207.922C1601.76 223.688 1579.85 261.084 1570.9 294.913C1567.57 307.478 1565.86 320.979 1569.88 333.335C1579.19 361.877 1607.44 357.751 1629.42 346.82C1641.81 340.665 1652.22 331.436 1662.52 322.302C1679.61 307.131 1701.46 296.054 1715.49 277.624C1720.19 271.427 1723.16 264.7 1729.16 259.497C1738.5 251.4 1750.09 245.645 1759.84 237.938C1768.16 231.338 1776.88 221.815 1774.14 211.568C1771.32 201.063 1758.54 197.318 1747.78 195.728C1740.15 194.583 1732.63 193.693 1725.16 193.124Z" fill="url(#paint1_linear)"/>
<defs>
<linearGradient id="paint0_linear" x1="164.736" y1="111.295" x2="-11.8229" y2="86.4189" gradientUnits="userSpaceOnUse">
<stop stop-color="#FFE1E2"/>
<stop offset="1" stop-color="#FFF8F8"/>
</linearGradient>
<linearGradient id="paint1_linear" x1="1710.07" y1="189.796" x2="1600.45" y2="298.245" gradientUnits="userSpaceOnUse">
<stop stop-color="#FFD3D2"/>
<stop offset="1" stop-color="#FFFAFA"/>
</linearGradient>
</defs>
</svg>
