<svg width="416" height="509" viewBox="0 0 416 509" fill="none" xmlns="http://www.w3.org/2000/svg">
<path d="M307.752 111.213C304.23 114.093 303.606 119.351 305.975 123.775C301.027 128.812 295.079 134.228 288.041 139.588C284.121 142.563 280.253 145.229 276.532 147.602C275.989 146.94 275.43 146.279 274.863 145.625C272.103 142.448 269.162 139.522 266.088 136.831C266.627 134.058 267.528 130.853 269.048 127.457C271.661 121.558 275.151 117.239 278.154 114.26C282.865 116.531 288.286 115.524 290.921 111.624C293.895 107.228 292.23 100.829 287.185 97.3437C282.149 93.8498 275.66 94.567 272.686 98.9633C269.983 102.97 271.126 108.639 275.166 112.258C273.788 116.296 271.167 121.652 266.147 126.238C263.677 128.503 261.157 130.083 258.969 131.196C253.707 127.443 248.125 124.317 242.311 121.846C242.748 117.885 243.479 113.453 244.724 108.707C246.517 101.826 248.905 95.9441 251.304 91.1259C256.293 91.9278 261.037 89.5149 262.502 85.1154C264.189 80.0673 260.884 74.3065 255.141 72.2498C249.4 70.194 243.369 72.6376 241.687 77.6914C240.225 82.0764 242.521 87.0068 246.919 89.5628C245.918 94.9204 244.301 101.064 241.636 107.605C239.834 112.059 237.826 115.999 235.85 119.386C230.148 117.45 224.293 116.112 218.377 115.387C215.802 110.079 213.395 103.36 212.354 95.4293C211.397 88.0006 211.881 81.5502 212.732 76.5727C217.774 75.8121 221.587 71.9395 221.557 67.2018C221.534 61.8263 216.611 57.3752 210.546 57.2712C204.493 57.1439 199.604 61.3998 199.637 66.7684C199.667 71.506 203.484 75.5331 208.557 76.486C209.45 81.3699 210.04 87.8771 209.113 95.3679C208.09 103.633 205.583 110.227 203.304 114.833C196.46 115.178 189.669 116.323 183.069 118.295C182.057 115.747 181.263 112.988 180.781 110.017C180.41 107.652 180.271 105.409 180.29 103.327C185.203 101.699 188.308 97.1042 187.389 92.3755C186.379 87.0807 180.732 83.6033 174.786 84.6139C168.839 85.6236 164.846 90.7266 165.862 96.028C166.762 100.68 171.236 103.931 176.341 103.963C177.157 106.12 177.898 108.449 178.522 110.938C179.253 113.79 179.766 116.557 180.095 119.242C179.44 119.465 178.8 119.687 178.162 119.931C170.64 122.667 163.435 126.525 156.759 131.51C153.257 129.561 149.625 127.186 145.988 124.271C138.574 118.316 133.471 111.961 130.054 106.827C133.114 102.899 133.296 97.5383 130.209 93.9834C126.651 89.8866 120.105 89.7454 115.585 93.6706C111.056 97.6038 110.269 104.113 113.827 108.21C116.967 111.825 122.437 112.351 126.788 109.725C131.563 113.563 137.634 119.465 142.787 127.945C145.044 131.687 146.786 135.371 148.147 138.894C142.432 144.467 137.684 150.676 133.888 157.334C132.056 156.755 130.243 156.051 128.301 155.051C124.461 153.064 121.472 150.673 119.207 148.489C121.103 143.534 119.485 138.001 115.205 135.58C110.493 132.922 104.347 135.048 101.473 140.334C98.6085 145.612 100.099 152.05 104.82 154.702C108.891 156.991 114.017 155.719 117.187 151.936C120.232 153.266 123.532 154.982 126.913 157.251C128.715 158.442 130.369 159.701 131.921 160.99C128.711 167.308 126.343 173.969 124.797 180.822C121.104 181.106 117.123 181.17 112.881 180.878C103.117 180.203 94.9802 177.88 88.9655 175.584C89.0042 170.501 85.8728 165.991 81.2796 165C76.0201 163.868 70.8374 167.768 69.7023 173.709C68.5771 179.644 71.9212 185.376 77.1708 186.515C81.8273 187.505 86.4 184.581 88.1909 179.782C94.1351 179.95 102.597 181.007 111.904 185.01C116.165 186.836 119.885 188.98 123.115 191.187C122.991 192.427 122.875 193.696 122.799 194.954C122.443 201.276 122.753 207.665 123.763 213.992C121.87 214.856 119.841 215.674 117.671 216.403C110.614 218.771 104.213 219.535 99.2233 219.691C97.2486 214.909 92.5641 211.968 87.9728 212.915C82.7649 213.983 79.6386 219.679 80.9964 225.632C82.3434 231.591 87.6695 235.547 92.8948 234.463C97.4754 233.522 100.441 229.006 100.172 223.882C104.805 222.061 110.974 220.238 118.404 219.589C120.622 219.395 122.747 219.333 124.794 219.348C126.971 229.141 130.844 238.691 136.436 247.546C133.558 250.522 130.312 253.571 126.606 256.589C121.315 260.9 116.13 264.318 111.368 267.042C107.727 263.034 102.09 261.928 98.1359 264.679C93.7825 267.708 93.1208 274.231 96.6499 279.254C100.188 284.269 106.574 285.886 110.917 282.864C114.791 280.168 115.725 274.714 113.407 269.998C117.646 266.468 122.653 262.79 128.496 259.283C132.549 256.848 136.476 254.822 140.241 253.09C141.637 254.992 143.132 256.842 144.708 258.657C148.452 262.969 152.506 266.843 156.822 270.264C155.402 275.6 152.957 282.376 148.52 289.496C144.633 295.736 140.34 300.439 136.636 303.865C132.11 301.42 126.744 302.103 123.893 305.773C120.65 309.951 121.908 316.435 126.719 320.241C131.531 324.048 138.069 323.738 141.311 319.559C144.125 315.937 143.552 310.612 140.238 306.777C143.009 302.092 146.552 296.876 151.095 291.539C156.312 285.409 161.594 280.592 166.317 276.845C173.033 280.908 180.191 283.985 187.553 286.1C187.112 288.598 186.493 291.224 185.588 293.962C183.869 299.195 181.596 303.494 179.364 306.937C174.495 305.388 169.391 307.109 167.308 311.278C164.946 316.028 167.419 322.177 172.847 324.996C176.256 326.763 180.026 326.808 182.944 325.408C184.668 324.591 186.098 323.267 186.98 321.498C187.234 320.979 187.443 320.426 187.58 319.865C188.688 315.682 186.533 310.876 182.238 308.236C183.759 304.306 185.767 299.979 188.492 295.481C190.254 292.585 192.08 290.002 193.895 287.684C198.177 288.594 202.519 289.167 206.85 289.414C207.258 289.442 207.676 289.462 208.071 289.474C209.639 294.489 211.082 300.983 211.364 308.593C211.637 316.045 210.737 322.424 209.599 327.366C204.546 327.8 200.525 331.378 200.225 336.067C199.876 341.42 204.5 346.191 210.553 346.724C216.581 347.265 221.772 343.356 222.111 338.011C222.416 333.363 218.966 329.151 214.094 327.783C213.703 322.427 213.693 316.014 214.599 308.888C215.586 301.226 217.384 294.627 219.289 289.259C227.37 288.568 235.376 286.738 243.025 283.76C244.753 286.211 246.47 288.981 248.038 292.097C251.461 298.878 253.232 305.159 254.172 310.097C249.751 312.586 247.569 317.562 249.219 322.027C251.101 327.089 257.222 329.581 262.894 327.592C268.557 325.61 271.628 319.887 269.759 314.802C268.125 310.394 263.294 307.929 258.327 308.684C255.797 303.945 253.17 298.024 251.073 291.035C250.06 287.619 249.299 284.363 248.738 281.282C254.321 278.618 259.668 275.313 264.69 271.321C268.845 274.518 273.254 278.304 277.683 282.778C284.277 289.43 289.329 296.003 293.151 301.732C290.113 305.649 289.941 311.002 293.021 314.549C296.579 318.646 303.124 318.786 307.662 314.845C312.182 310.919 312.96 304.419 309.402 300.323C306.335 296.79 301.033 296.2 296.736 298.63C291.544 293.888 285.802 287.94 280.103 280.677C276.262 275.774 273.018 270.987 270.271 266.497C275.159 261.906 279.371 256.852 282.902 251.456C283.919 251.815 284.95 252.209 285.99 252.632C292.869 255.408 298.3 258.894 302.289 261.994C300.714 266.765 302.326 271.978 306.424 274.317C311.108 277.018 317.275 274.934 320.191 269.678C323.093 264.425 321.655 257.973 316.962 255.281C312.802 252.889 307.477 254.264 304.294 258.271C299.884 256.717 293.832 253.842 287.976 248.519C287.246 247.863 286.556 247.198 285.905 246.521C289.511 240.143 292.231 233.352 294.068 226.336C299.09 226.236 304.676 226.471 310.716 227.266C320.008 228.484 327.956 230.739 334.275 233.034C334.267 238.079 337.39 242.542 341.952 243.534C347.218 244.655 352.39 240.761 353.525 234.82C354.652 228.888 351.311 223.159 346.057 222.016C341.512 221.043 337.021 223.821 335.163 228.432C328.32 227.82 320.223 226.556 311.331 224.082C305.585 222.482 300.363 220.619 295.701 218.663C296.212 215.581 296.558 212.475 296.748 209.337C297.04 204.213 296.896 199.049 296.286 193.921C301.336 191.565 307.474 189.208 314.633 187.454C321.531 185.751 327.846 184.981 333.226 184.702C335.168 189.391 339.734 192.325 344.272 191.463C349.509 190.485 352.732 184.845 351.485 178.872C350.233 172.893 344.967 168.858 339.73 169.836C335.156 170.694 332.102 175.126 332.261 180.216C327.469 181.928 321.286 183.587 313.965 184.25C306.364 184.942 299.692 184.397 294.428 183.5C293.271 178.681 291.7 173.921 289.712 169.272C291.707 167.659 293.915 166.051 296.317 164.538C302.52 160.632 308.453 158.26 313.33 156.794C316.398 160.935 321.62 162.632 325.782 160.582C330.54 158.24 332.153 151.909 329.385 146.434C326.608 140.967 320.512 138.43 315.744 140.779C311.567 142.83 309.812 147.984 311.335 152.928C307.347 155.843 301.844 159.153 294.834 161.613C292.176 162.536 289.587 163.244 287.127 163.768C285.034 159.679 282.609 155.706 279.825 151.892C282.952 148.687 286.378 145.402 290.143 142.12C296.773 136.327 303.243 131.567 309.175 127.681C313.059 130.862 318.333 131.273 321.852 128.408C325.951 125.05 326.122 118.478 322.217 113.741C318.32 108.997 311.843 107.864 307.752 111.213Z" fill="#FFE1E1"/>
<path d="M140.69 376.818C138.947 378.001 138.447 380.405 139.362 382.549C136.873 384.668 133.907 386.922 130.44 389.103C128.51 390.313 126.616 391.383 124.802 392.323C124.578 391.994 124.347 391.665 124.111 391.34C122.965 389.755 121.726 388.28 120.415 386.907C120.776 385.648 121.322 384.205 122.161 382.699C123.607 380.083 125.393 378.234 126.9 376.983C128.983 378.231 131.527 377.993 132.902 376.301C134.453 374.395 133.943 371.368 131.755 369.545C129.571 367.719 126.545 367.778 124.994 369.685C123.584 371.423 123.882 374.091 125.601 375.933C124.801 377.741 123.374 380.106 120.871 382.014C119.639 382.957 118.411 383.582 117.356 384.004C115.078 382.049 112.627 380.37 110.042 378.984C110.404 377.172 110.921 375.155 111.688 373.014C112.794 369.909 114.135 367.291 115.438 365.166C117.709 365.746 119.998 364.83 120.852 362.858C121.835 360.596 120.542 357.795 117.974 356.604C115.406 355.413 112.522 356.289 111.541 358.554C110.689 360.519 111.549 362.893 113.476 364.259C112.797 366.693 111.802 369.464 110.307 372.375C109.295 374.357 108.208 376.094 107.158 377.576C104.604 376.442 101.954 375.578 99.2522 374.994C98.2779 372.434 97.4381 369.227 97.2784 365.519C97.1369 362.046 97.6219 359.085 98.2163 356.821C100.575 356.681 102.492 355.052 102.67 352.861C102.877 350.376 100.784 348.112 97.9879 347.81C95.198 347.497 92.768 349.258 92.5661 351.74C92.3882 353.931 93.988 355.952 96.2916 356.606C96.5066 358.9 96.5155 361.932 95.7844 365.354C94.9775 369.131 93.5533 372.073 92.3145 374.106C89.14 373.978 85.9583 374.222 82.8308 374.856C82.4667 373.636 82.2115 372.327 82.1092 370.934C82.0333 369.826 82.0602 368.783 82.1531 367.822C84.4874 367.276 86.1074 365.283 85.8744 363.059C85.6222 360.57 83.1553 358.726 80.3689 358.944C77.5821 359.161 75.5316 361.351 75.7862 363.843C76.0136 366.031 77.9479 367.721 80.3039 367.95C80.5935 368.981 80.8415 370.089 81.0287 371.265C81.2508 372.614 81.3756 373.914 81.4191 375.168C81.1075 375.244 80.803 375.32 80.4988 375.406C76.9144 376.354 73.4315 377.835 70.1474 379.858C68.609 378.81 67.0277 377.56 65.4664 376.06C62.2839 372.997 60.185 369.846 58.8149 367.331C60.3868 365.644 60.6876 363.174 59.4059 361.402C57.9288 359.359 54.912 359.019 52.6661 360.643C50.4156 362.271 49.789 365.245 51.2661 367.288C52.5697 369.091 55.0742 369.563 57.1895 368.532C59.2388 370.506 61.8034 373.489 63.8399 377.624C64.7307 379.448 65.3859 381.224 65.8719 382.909C63.007 385.244 60.5638 387.914 58.5415 390.831C57.7189 390.487 56.9103 390.085 56.054 389.541C54.3613 388.462 53.0777 387.232 52.1201 386.127C53.1962 383.917 52.673 381.292 50.7944 379.994C48.7265 378.568 45.8022 379.292 44.2614 381.614C42.7252 383.933 43.153 386.971 45.2258 388.394C47.0126 389.623 49.4311 389.25 51.0481 387.636C52.4003 388.378 53.8547 389.309 55.3238 390.5C56.108 391.126 56.8208 391.777 57.4852 392.438C55.7472 395.223 54.3841 398.202 53.3932 401.303C51.6762 401.28 49.8354 401.142 47.8885 400.829C43.4071 400.107 39.744 398.692 37.0596 397.378C37.2832 395.031 36.0197 392.816 33.9389 392.165C31.5561 391.421 29.0052 393.005 28.2406 395.703C27.4809 398.399 28.7931 401.188 31.171 401.934C33.2811 402.588 35.5109 401.429 36.5321 399.286C39.27 399.613 43.1348 400.457 47.2702 402.697C49.1638 403.72 50.7948 404.867 52.1968 406.023C52.0893 406.591 51.9847 407.172 51.8984 407.75C51.4781 410.657 51.3629 413.622 51.5732 416.588C50.6643 416.908 49.6945 417.201 48.6629 417.447C45.3083 418.245 42.3219 418.329 40.0114 418.192C39.2931 415.899 37.249 414.343 35.0906 414.588C32.6426 414.863 30.9686 417.363 31.3546 420.172C31.7355 422.982 34.0347 425.034 36.4914 424.752C38.6446 424.51 40.1968 422.547 40.2798 420.168C42.493 419.521 45.4154 418.938 48.8721 418.95C49.9045 418.953 50.8879 419.014 51.8326 419.107C52.4419 423.723 53.8437 428.299 56.0672 432.626C54.6182 433.88 52.9957 435.153 51.1623 436.392C48.545 438.162 46.0125 439.524 43.7033 440.583C42.1842 438.578 39.6259 437.83 37.6888 438.935C35.556 440.152 34.9865 443.139 36.4128 445.608C37.8437 448.074 40.7271 449.09 42.8547 447.875C44.7525 446.792 45.4045 444.311 44.5252 442.035C46.6252 440.581 49.0859 439.092 51.9263 437.716C53.8961 436.762 55.7913 435.99 57.6002 435.348C58.1676 436.285 58.7829 437.203 59.4374 438.108C60.9918 440.258 62.7068 442.218 64.5616 443.98C63.6896 446.387 62.2864 449.415 59.9496 452.519C57.9022 455.239 55.7296 457.232 53.8808 458.66C51.8898 457.34 49.3845 457.43 47.9192 459.007C46.2527 460.801 46.5711 463.85 48.6386 465.811C50.7065 467.772 53.738 467.904 55.4045 466.109C56.8501 464.553 56.8014 462.068 55.426 460.157C56.8951 458.108 58.7423 455.847 61.056 453.571C63.7129 450.958 66.3472 448.953 68.6796 447.42C71.6162 449.579 74.7969 451.302 78.1109 452.588C77.8062 453.725 77.4141 454.912 76.8851 456.139C75.8796 458.485 74.6562 460.377 73.4861 461.873C71.3007 460.954 68.874 461.535 67.7439 463.374C66.461 465.469 67.3539 468.415 69.7461 469.945C71.2486 470.905 72.988 471.084 74.3917 470.56C75.2211 470.254 75.9347 469.703 76.4137 468.922C76.5519 468.693 76.6707 468.446 76.7569 468.193C77.438 466.306 76.6373 463.995 74.7607 462.595C75.6221 460.843 76.7245 458.927 78.165 456.963C79.0957 455.699 80.043 454.582 80.975 453.587C82.9155 454.187 84.8971 454.634 86.8871 454.93C87.0746 454.96 87.2666 454.987 87.4487 455.009C87.9696 457.392 88.3733 460.454 88.1954 463.983C88.0198 467.438 87.3463 470.348 86.621 472.584C84.2701 472.572 82.2686 474.057 81.9402 476.211C81.5623 478.67 83.5044 481.069 86.2779 481.569C89.0396 482.072 91.5947 480.484 91.9676 478.028C92.2964 475.893 90.8739 473.802 88.6796 472.965C88.7158 470.474 88.9704 467.51 89.6774 464.255C90.4432 460.756 91.5403 457.782 92.6374 455.381C96.3968 455.401 100.167 454.891 103.82 453.836C104.519 455.041 105.199 456.394 105.798 457.899C107.104 461.177 107.667 464.154 107.902 466.475C105.759 467.44 104.55 469.647 105.132 471.78C105.796 474.198 108.521 475.607 111.221 474.926C113.916 474.248 115.566 471.732 114.908 469.303C114.332 467.198 112.201 465.856 109.877 465.996C108.901 463.7 107.927 460.854 107.242 457.536C106.912 455.915 106.693 454.379 106.558 452.931C109.244 451.935 111.847 450.632 114.327 448.998C116.116 450.65 117.999 452.584 119.863 454.838C122.639 458.189 124.706 461.438 126.239 464.246C124.678 465.929 124.381 468.395 125.66 470.163C127.137 472.206 130.154 472.545 132.409 470.915C134.654 469.291 135.277 466.32 133.8 464.277C132.526 462.516 130.102 462.021 128.02 462.963C125.814 460.554 123.403 457.564 121.066 453.968C119.49 451.541 118.186 449.193 117.1 447.003C119.542 445.087 121.692 442.928 123.541 440.583C123.995 440.791 124.456 441.017 124.919 441.256C127.983 442.827 130.35 444.666 132.066 446.266C131.146 448.405 131.679 450.882 133.477 452.135C135.53 453.579 138.462 452.875 140.021 450.569C141.574 448.263 141.171 445.221 139.113 443.78C137.289 442.5 134.775 442.912 133.143 444.63C131.169 443.727 128.491 442.144 126.002 439.439C125.692 439.105 125.4 438.768 125.127 438.428C127.05 435.632 128.581 432.608 129.713 429.443C132.036 429.608 134.606 429.951 137.363 430.572C141.604 431.525 145.183 432.901 148.008 434.227C147.8 436.558 149.061 438.751 151.128 439.401C153.514 440.14 156.06 438.558 156.824 435.86C157.585 433.166 156.274 430.379 153.894 429.63C151.835 428.989 149.649 430.084 148.604 432.137C145.469 431.567 141.781 430.643 137.776 429.126C135.187 428.146 132.851 427.066 130.777 425.966C131.138 424.563 131.424 423.142 131.638 421.7C131.98 419.345 132.123 416.952 132.049 414.557C134.476 413.68 137.406 412.849 140.782 412.339C144.037 411.842 146.984 411.751 149.479 411.848C150.186 414.096 152.176 415.644 154.306 415.436C156.764 415.204 158.48 412.733 158.146 409.921C157.81 407.105 155.542 405.019 153.084 405.251C150.937 405.456 149.348 407.376 149.215 409.734C146.933 410.324 144.011 410.831 140.604 410.83C137.066 410.831 134.007 410.299 131.613 409.663C131.273 407.388 130.741 405.122 130.011 402.89C130.997 402.229 132.082 401.579 133.252 400.98C136.275 399.436 139.11 398.589 141.422 398.116C142.671 400.158 145.013 401.162 147.018 400.389C149.31 399.507 150.311 396.649 149.254 394.003C148.193 391.36 145.481 389.931 143.184 390.817C141.172 391.589 140.154 393.897 140.656 396.246C138.697 397.425 136.022 398.724 132.686 399.566C131.421 399.881 130.197 400.1 129.04 400.239C128.239 398.261 127.28 396.323 126.149 394.444C127.722 393.094 129.437 391.72 131.309 390.361C134.605 387.963 137.785 386.035 140.681 384.488C142.346 386.121 144.764 386.532 146.505 385.356C148.534 383.977 148.879 380.947 147.267 378.594C145.66 376.238 142.715 375.442 140.69 376.818Z" fill="#FFE1E1"/>
</svg>
