<svg width="284" height="294" viewBox="0 0 284 294" fill="none" xmlns="http://www.w3.org/2000/svg">
<path d="M107.802 280.258C92.6549 285.625 77.3612 288.104 61.0481 285.005C42.8654 281.549 27.0944 265.989 18.1832 250.471C14.8722 244.707 12.2363 238.267 12.5807 231.63C13.3822 216.298 27.8665 214.585 40.1614 217.065C47.0921 218.459 53.4559 221.634 59.7475 224.778C70.193 230.001 82.4458 232.57 91.8105 239.81C94.9529 242.246 97.3128 245.174 100.964 246.946C106.644 249.706 113.128 251.009 118.962 253.52C123.943 255.675 129.511 259.22 129.518 264.645C129.519 270.208 123.714 273.754 118.614 275.969C115.004 277.547 111.41 278.986 107.802 280.258Z" fill="url(#paint0_linear)"/>
<path d="M52.0501 82.4956C76.8631 45.9285 128.172 31.2462 169.761 44.9946C189.816 51.6276 206.623 65.4394 222.125 79.7773C235.789 92.4143 249.045 106.044 258.377 122.29C264.748 133.379 269.309 146.671 272.529 159.081C277.344 177.661 272.971 201.602 248.952 199.848C243.317 199.437 238.442 197.411 233.171 195.638C228.908 194.201 224.73 195.063 220.304 194.361C209.162 192.597 198.429 188.495 188.28 183.69C167.596 173.89 148.697 160.575 127.425 151.987C109.993 144.958 91.3767 141.329 72.5808 141.296C64.6512 141.283 56.3135 141.838 49.2203 138.292C31.7374 129.545 39.5993 105.958 46.1286 92.6903C47.8584 89.1561 49.8372 85.7492 52.0501 82.4956Z" fill="url(#paint1_linear)"/>
<path d="M246.597 88.015C250.682 91.7149 266.732 101.815 267.041 89.9624C267.114 87.0096 265.775 84.1425 263.952 81.98C261.867 79.4979 259.502 78.196 257.874 75.3042C255.881 71.8126 253.613 68.5311 251.099 65.502C245.959 59.1974 239.958 53.3722 232.676 50.7767C227.569 48.9585 218.922 49.4157 216.496 55.9612C212.962 65.4895 228.074 67.2354 232.683 70.7079C237.057 73.9947 239.534 79.6423 242.999 84.1307C244.094 85.546 245.298 86.8463 246.597 88.015Z" fill="url(#paint2_linear)"/>
<path d="M171.059 76.4252C179.712 81.5195 186.202 89.1448 194.091 95.286C207.225 105.509 225.228 107.6 240.29 114.71C255.648 121.963 267.245 133.236 272.488 149.483C279.262 170.455 279.906 195.395 274.151 216.955C267.813 240.687 252.929 256.451 231.168 266.964C209.419 277.471 185.326 282.374 161.296 283.386C158.977 283.485 156.662 283.539 154.338 283.554C102.135 283.857 32.6502 265.482 14.8773 209.404C14.7144 208.891 14.5583 208.379 14.4017 207.859C12.5704 201.611 11.4936 195.167 11.1944 188.663C10.0765 165.606 14.1118 140.157 22.1954 118.543C27.6323 103.991 39.3397 91.6869 51.6763 82.9199C69.009 70.6034 90.1575 67.4602 111.206 65.9824C126.793 64.8888 144.323 64.4892 159.063 70.4512C163.205 72.14 167.215 74.1369 171.059 76.4252Z" fill="url(#paint3_linear)"/>
<path d="M73.3902 111.76C73.3902 111.76 126.466 182.627 139.743 188.487C153.024 194.35 169.672 193.03 171.128 199.828C172.584 206.63 143.255 195.125 147.934 205.617C152.612 216.113 170.846 228.093 170.932 238.659C171.021 249.229 141.917 215.972 141.917 215.972C141.917 215.972 169.339 246.399 160.259 247.118C151.175 247.838 127.688 218.09 127.688 218.09C127.688 218.09 153.961 257.114 145.251 253.549C136.546 249.985 55.8046 156.617 43.3535 146.737C30.9025 136.861 73.3902 111.76 73.3902 111.76Z" fill="#E27B5A"/>
<path d="M227.787 128.962C227.787 128.962 167.251 193.554 153.407 197.919C139.563 202.281 123.163 199.139 120.966 205.734C118.773 212.331 149.187 204.128 143.382 214.045C137.581 223.958 118.143 233.857 116.894 244.353C115.65 254.845 148.228 224.997 148.228 224.997C148.228 224.997 117.628 252.219 126.574 253.933C135.525 255.65 162.138 228.669 162.138 228.669C162.138 228.669 131.735 264.566 140.781 261.981C149.828 259.396 240.338 175.485 253.797 167.036C267.259 158.588 227.787 128.962 227.787 128.962Z" fill="#FFCEB0"/>
<path d="M176.25 173.812C176.25 173.812 194.869 209.069 211.985 212.82C229.099 216.571 266.071 183.104 274.138 166.527C282.208 149.953 242.877 99.7967 234.46 92.5826C222.301 91.0982 167.618 142.385 176.25 173.812Z" fill="#FB4C47"/>
<path d="M60.721 77.5534C60.721 77.5534 121.959 137.906 119.057 153.577C116.159 169.251 92.7756 188.026 73.917 194.174C55.0585 200.32 13.8298 175.563 13.8298 157.51C10.8234 126.85 26.4547 94.9875 60.721 77.5534Z" fill="#128E5A"/>
<defs>
<linearGradient id="paint0_linear" x1="11.2362" y1="233.746" x2="26.9514" y2="288.313" gradientUnits="userSpaceOnUse">
<stop stop-color="#FFD0D0"/>
<stop offset="1" stop-color="#FFF8F8"/>
</linearGradient>
<linearGradient id="paint1_linear" x1="304.772" y1="87.8221" x2="128.881" y2="47.2066" gradientUnits="userSpaceOnUse">
<stop stop-color="#FFF8F8"/>
<stop offset="1" stop-color="#FFD0D0"/>
</linearGradient>
<linearGradient id="paint2_linear" x1="267.458" y1="89.7546" x2="207.112" y2="63.9798" gradientUnits="userSpaceOnUse">
<stop stop-color="#FFD0D0"/>
<stop offset="1" stop-color="#FFF7F7"/>
</linearGradient>
<linearGradient id="paint3_linear" x1="253.838" y1="259.726" x2="11.2439" y2="119.24" gradientUnits="userSpaceOnUse">
<stop stop-color="#FFCFCF"/>
<stop offset="1" stop-color="#FFF8F8"/>
</linearGradient>
</defs>
</svg>
