<svg width="192" height="65" viewBox="0 0 192 65" fill="none" xmlns="http://www.w3.org/2000/svg">
<path d="M85.847 38.644C86.5437 38.644 87.196 38.4983 87.804 38.207C88.412 37.9157 88.9503 37.4977 89.419 36.953L91.224 38.739C90.5907 39.4863 89.78 40.0817 88.792 40.525C87.8167 40.9683 86.8097 41.19 85.771 41.19C84.7703 41.19 83.833 41.0127 82.959 40.658C82.0977 40.3033 81.3503 39.822 80.717 39.214C80.0837 38.606 79.5833 37.884 79.216 37.048C78.8613 36.212 78.684 35.3127 78.684 34.35C78.684 33.3873 78.8677 32.488 79.235 31.652C79.6023 30.8033 80.1027 30.075 80.736 29.467C81.3693 28.859 82.1167 28.3777 82.978 28.023C83.852 27.6683 84.783 27.491 85.771 27.491C86.835 27.491 87.8673 27.719 88.868 28.175C89.8687 28.6183 90.6793 29.22 91.3 29.98L89.438 31.823C88.9693 31.2403 88.4183 30.797 87.785 30.493C87.1517 30.1763 86.4803 30.018 85.771 30.018C85.1757 30.018 84.612 30.132 84.08 30.36C83.5607 30.5753 83.111 30.8793 82.731 31.272C82.351 31.652 82.0533 32.108 81.838 32.64C81.6227 33.1593 81.515 33.7293 81.515 34.35C81.515 34.958 81.6227 35.528 81.838 36.06C82.066 36.5793 82.37 37.029 82.75 37.409C83.1427 37.789 83.5987 38.093 84.118 38.321C84.65 38.5363 85.2263 38.644 85.847 38.644ZM106.03 34.35C106.03 35.3 105.846 36.1993 105.479 37.048C105.111 37.884 104.611 38.6123 103.978 39.233C103.357 39.841 102.616 40.3223 101.755 40.677C100.893 41.0317 99.9686 41.209 98.9806 41.209C98.0053 41.209 97.0869 41.0317 96.2256 40.677C95.3643 40.3223 94.6169 39.841 93.9836 39.233C93.3629 38.6123 92.8689 37.884 92.5016 37.048C92.1343 36.1993 91.9506 35.3 91.9506 34.35C91.9506 33.4 92.1343 32.507 92.5016 31.671C92.8689 30.8223 93.3629 30.094 93.9836 29.486C94.6169 28.8653 95.3643 28.3777 96.2256 28.023C97.0869 27.6683 98.0053 27.491 98.9806 27.491C99.9686 27.491 100.893 27.6683 101.755 28.023C102.616 28.3777 103.357 28.8653 103.978 29.486C104.611 30.094 105.111 30.8223 105.479 31.671C105.846 32.507 106.03 33.4 106.03 34.35ZM103.199 34.35C103.199 33.7293 103.091 33.1593 102.876 32.64C102.66 32.108 102.363 31.652 101.983 31.272C101.615 30.8793 101.172 30.5753 100.653 30.36C100.133 30.132 99.5759 30.018 98.9806 30.018C98.3853 30.018 97.8279 30.132 97.3086 30.36C96.8019 30.5753 96.3586 30.8793 95.9786 31.272C95.6113 31.652 95.3199 32.108 95.1046 32.64C94.8893 33.1593 94.7816 33.7293 94.7816 34.35C94.7816 34.958 94.8893 35.528 95.1046 36.06C95.3199 36.592 95.6113 37.0543 95.9786 37.447C96.3586 37.827 96.8019 38.131 97.3086 38.359C97.8279 38.5743 98.3853 38.682 98.9806 38.682C99.5759 38.682 100.133 38.5743 100.653 38.359C101.172 38.131 101.615 37.827 101.983 37.447C102.363 37.0543 102.66 36.592 102.876 36.06C103.091 35.528 103.199 34.958 103.199 34.35ZM111.3 41L105.904 27.7H108.887L112.953 38.207L117.114 27.7H119.964L114.492 41H111.3ZM121.093 41V27.7H123.848V41H121.093ZM126.27 41V27.7H131.381C132.369 27.7 133.294 27.871 134.155 28.213C135.017 28.555 135.758 29.0237 136.378 29.619C137.012 30.2143 137.506 30.9237 137.86 31.747C138.228 32.5703 138.411 33.4507 138.411 34.388C138.411 35.3127 138.228 36.1803 137.86 36.991C137.506 37.8017 137.012 38.5047 136.378 39.1C135.758 39.6827 135.017 40.145 134.155 40.487C133.294 40.829 132.369 41 131.381 41H126.27ZM131.362 30.151H129.025V38.549H131.362C131.945 38.549 132.49 38.4413 132.996 38.226C133.516 38.0107 133.965 37.7193 134.345 37.352C134.725 36.972 135.023 36.5287 135.238 36.022C135.454 35.5153 135.561 34.9707 135.561 34.388C135.561 33.7927 135.454 33.2353 135.238 32.716C135.023 32.1967 134.725 31.747 134.345 31.367C133.965 30.987 133.516 30.6893 132.996 30.474C132.49 30.2587 131.945 30.151 131.362 30.151ZM143.702 34.483H150.846V36.687H143.702V34.483ZM161.071 27.7V41H158.468V30.341L155.865 31.405V29.144L159.418 27.7H161.071ZM167.676 27.472C168.55 27.472 169.348 27.6367 170.07 27.966C170.792 28.2827 171.406 28.7323 171.913 29.315C172.432 29.885 172.831 30.5753 173.11 31.386C173.401 32.1967 173.547 33.0897 173.547 34.065C173.547 35.129 173.389 36.1043 173.072 36.991C172.755 37.865 172.312 38.6123 171.742 39.233C171.172 39.8537 170.482 40.335 169.671 40.677C168.86 41.019 167.967 41.19 166.992 41.19C166.27 41.19 165.554 41.076 164.845 40.848C164.136 40.6073 163.54 40.2907 163.059 39.898L164.541 38.036C164.934 38.34 165.345 38.5617 165.776 38.701C166.207 38.8403 166.675 38.91 167.182 38.91C168.322 38.91 169.215 38.5237 169.861 37.751C170.52 36.9657 170.881 35.8573 170.944 34.426C170.513 34.9073 169.981 35.2873 169.348 35.566C168.715 35.832 168.043 35.965 167.334 35.965C166.663 35.965 166.042 35.8637 165.472 35.661C164.902 35.4583 164.408 35.1797 163.99 34.825C163.585 34.4577 163.268 34.027 163.04 33.533C162.812 33.0263 162.698 32.4753 162.698 31.88C162.698 31.2467 162.825 30.664 163.078 30.132C163.331 29.5873 163.673 29.1187 164.104 28.726C164.547 28.3333 165.073 28.0293 165.681 27.814C166.302 27.586 166.967 27.472 167.676 27.472ZM167.752 33.913C168.347 33.913 168.898 33.7863 169.405 33.533C169.924 33.2797 170.387 32.9187 170.792 32.45C170.589 31.614 170.222 30.9427 169.69 30.436C169.158 29.9293 168.525 29.676 167.79 29.676C167.068 29.676 166.46 29.8787 165.966 30.284C165.485 30.6893 165.244 31.2023 165.244 31.823C165.244 32.4437 165.478 32.9503 165.947 33.343C166.416 33.723 167.017 33.913 167.752 33.913Z" fill="#035755"/>
<path d="M45.9204 33.4997C45.9204 34.5498 46.7716 35.4012 47.8218 35.4012H52.1462C54.3476 35.4012 56.5224 35.9058 58.4878 36.8974C59.0737 37.1931 59.7468 37.3414 60.4583 37.2939C62.3433 37.168 63.8715 35.6348 63.9919 33.7494C64.1331 31.5359 62.3801 29.697 60.197 29.697C59.6057 29.697 59.0459 29.832 58.547 30.0729C56.5443 31.0398 54.3693 31.5984 52.1454 31.5984H47.8218C46.7718 31.5983 45.9204 32.4497 45.9204 33.4997Z" fill="#FB4C47"/>
<path d="M20.154 45.8447C19.5401 45.2308 18.5448 45.2308 17.9309 45.8447L15.4028 48.3728C14.1159 49.6597 12.5495 50.6361 10.8208 51.2054C10.3054 51.3751 9.82528 51.6818 9.43719 52.1255C8.40878 53.3011 8.41161 55.0908 9.44347 56.2634C10.6549 57.6401 12.7547 57.6903 14.031 56.414C14.3766 56.0684 14.6249 55.6622 14.7759 55.2297C15.3814 53.4937 16.3264 51.8957 17.6265 50.5956L20.1541 48.068C20.7678 47.4539 20.7678 46.4586 20.154 45.8447Z" fill="#FB4C47"/>
<path d="M42.9569 23.0433C43.5993 23.6857 44.6408 23.6857 45.2832 23.0433L47.9287 20.3979C49.2754 19.0512 50.9145 18.0295 52.7234 17.4337C53.2627 17.2561 53.7652 16.9351 54.1713 16.4708C55.2474 15.2406 55.2445 13.3678 54.1646 12.1408C52.897 10.7003 50.6996 10.6478 49.3641 11.9832C49.0024 12.3449 48.7426 12.7699 48.5847 13.2225C47.951 15.0391 46.9622 16.7113 45.6018 18.0718L42.9568 20.7168C42.3145 21.3594 42.3145 22.4008 42.9569 23.0433Z" fill="#FB4C47"/>
<path d="M32.4989 46.9199C31.4488 46.9199 30.5975 47.7712 30.5975 48.8213V53.1457C30.5975 55.3471 30.0929 57.5219 29.1012 59.4873C28.8055 60.0732 28.6573 60.7463 28.7048 61.4577C28.8307 63.3428 30.3638 64.871 32.2492 64.9914C34.4627 65.1326 36.3016 63.3796 36.3016 61.1965C36.3016 60.6052 36.1666 60.0454 35.9257 59.5465C34.9588 57.5438 34.4002 55.3688 34.4002 53.1449V48.8213C34.4003 47.7713 33.549 46.9199 32.4989 46.9199Z" fill="#FFA2A1"/>
<path d="M35.9285 59.5466C34.9616 57.5439 34.4029 55.369 34.4029 53.145V48.8213C34.4029 47.7713 33.5517 46.9199 32.5015 46.9199C31.4513 46.9199 30.6001 47.7712 30.6001 48.8213V53.145C30.6001 55.369 31.1587 57.5438 32.1256 59.5466C32.3665 60.0456 32.5015 60.6053 32.5015 61.1967C32.5015 62.6031 31.7377 63.8301 30.6028 64.488C31.0951 64.7743 31.6558 64.9535 32.252 64.9915C34.4655 65.1328 36.3044 63.3797 36.3044 61.1967C36.3044 60.6053 36.1694 60.0456 35.9285 59.5466Z" fill="#FB4C47"/>
<path d="M18.3091 25.647C21.7395 25.647 24.5203 22.8662 24.5203 19.4358C24.5203 16.0055 21.7395 13.2246 18.3091 13.2246C14.8788 13.2246 12.0979 16.0055 12.0979 19.4358C12.0979 22.8662 14.8788 25.647 18.3091 25.647Z" fill="#FF807E"/>
<path d="M18.3082 13.2246C17.6448 13.2246 17.0062 13.3297 16.4067 13.5223C18.9068 14.3255 20.7165 16.6689 20.7165 19.4358C20.7165 22.2028 18.9068 24.5462 16.4067 25.3494C17.0061 25.542 17.6447 25.647 18.3082 25.647C21.7385 25.647 24.5194 22.8662 24.5194 19.4358C24.5194 16.0054 21.7384 13.2246 18.3082 13.2246Z" fill="#FB4C47"/>
<path d="M32.5002 53.7812C43.7014 53.7812 52.7817 44.7009 52.7817 33.4997C52.7817 22.2986 43.7014 13.2183 32.5002 13.2183C21.2991 13.2183 12.2188 22.2986 12.2188 33.4997C12.2188 44.7009 21.2991 53.7812 32.5002 53.7812Z" fill="#FFBFBE"/>
<path d="M32.5015 13.2183C31.8602 13.2183 31.2263 13.2494 30.6001 13.3077C40.9095 14.2665 48.9803 22.94 48.9803 33.4997C48.9803 44.0595 40.9096 52.733 30.6002 53.6918C31.2263 53.75 31.8603 53.7812 32.5016 53.7812C43.7029 53.7812 52.7831 44.701 52.7831 33.4997C52.7831 22.2985 43.7027 13.2183 32.5015 13.2183Z" fill="#FFA2A2"/>
<path d="M40.1036 30.6866C42.3788 30.6866 44.2233 28.8422 44.2233 26.567C44.2233 24.2917 42.3788 22.4473 40.1036 22.4473C37.8283 22.4473 35.9839 24.2917 35.9839 26.567C35.9839 28.8422 37.8283 30.6866 40.1036 30.6866Z" fill="#FFA2A1"/>
<path d="M40.1065 22.4473C39.4204 22.4473 38.774 22.616 38.2051 22.9126C39.523 23.5998 40.4234 24.9778 40.4234 26.567C40.4234 28.1561 39.523 29.5342 38.2051 30.2213C38.774 30.5179 39.4204 30.6866 40.1065 30.6866C42.3818 30.6866 44.2262 28.8422 44.2262 26.567C44.2262 24.2917 42.3818 22.4473 40.1065 22.4473Z" fill="#FF807E"/>
<path d="M25.2484 44.2112C26.7886 44.2112 28.0371 42.9627 28.0371 41.4225C28.0371 39.8823 26.7886 38.6338 25.2484 38.6338C23.7083 38.6338 22.4597 39.8823 22.4597 41.4225C22.4597 42.9627 23.7083 44.2112 25.2484 44.2112Z" fill="#FF807E"/>
<path d="M46.2971 52.3442C48.3973 52.3442 50.0998 50.6417 50.0998 48.5415C50.0998 46.4413 48.3973 44.7388 46.2971 44.7388C44.1969 44.7388 42.4944 46.4413 42.4944 48.5415C42.4944 50.6417 44.1969 52.3442 46.2971 52.3442Z" fill="#FB4C47"/>
<path d="M46.2977 44.7388C45.6048 44.7388 44.9557 44.9251 44.3962 45.2488C45.5326 45.9063 46.2977 47.1342 46.2977 48.5416C46.2977 49.949 45.5326 51.1768 44.3962 51.8344C44.9557 52.1582 45.6048 52.3445 46.2977 52.3445C48.3979 52.3445 50.1004 50.6419 50.1004 48.5417C50.1004 46.4416 48.3979 44.7388 46.2977 44.7388Z" fill="#FF807E"/>
<path d="M19.0794 33.4997C19.0794 34.5498 18.2282 35.4012 17.178 35.4012H12.8537C10.6523 35.4012 8.47746 35.9058 6.51205 36.8974C5.92611 37.1931 5.25305 37.3414 4.5416 37.2939C2.65654 37.168 1.12832 35.6348 1.00798 33.7494C0.866721 31.5359 2.61975 29.697 4.80283 29.697C5.39418 29.697 5.95392 29.832 6.45287 30.0729C8.45556 31.0398 10.6305 31.5984 12.8544 31.5984H17.1781C18.2281 31.5983 19.0794 32.4497 19.0794 33.4997Z" fill="#FB4C47"/>
<path d="M32.4988 20.0794C33.5488 20.0794 34.4002 19.2282 34.4002 18.178V13.8537C34.4002 11.6523 34.9048 9.47746 35.8964 7.51205C36.1921 6.92611 36.3404 6.25305 36.2929 5.5416C36.167 3.65654 34.6339 2.12832 32.7484 2.00798C30.535 1.86672 28.696 3.61975 28.696 5.80283C28.696 6.39418 28.831 6.95392 29.0719 7.45287C30.0388 9.45556 30.5975 11.6305 30.5975 13.8544V18.1781C30.5973 19.2281 31.4487 20.0794 32.4988 20.0794Z" fill="#FFA2A1"/>
<path d="M36.2938 5.54159C36.168 3.65653 34.6348 2.12831 32.7494 2.00797C31.9619 1.95764 31.2225 2.14812 30.5957 2.51147C31.6605 3.13076 32.4048 4.25256 32.491 5.54159C32.5385 6.25304 32.3902 6.9261 32.0945 7.51204C31.1029 9.47745 30.5983 11.6523 30.5983 13.8537V18.178C30.5983 19.2281 31.4495 20.0794 32.4997 20.0794C33.5499 20.0794 34.4011 19.2282 34.4011 18.178V13.8537C34.4011 11.6523 34.9058 9.47745 35.8974 7.51204C36.1931 6.9261 36.3415 6.25304 36.2938 5.54159Z" fill="#FB4C47"/>
<path d="M60.2006 29.6992C59.6096 29.6992 59.0502 29.8341 58.5515 30.0749C58.4633 30.1175 58.3742 30.1583 58.2854 30.1993C59.4964 30.8925 60.2894 32.2329 60.1926 33.7493C60.1098 35.0462 59.3604 36.1761 58.2871 36.7957C58.3555 36.8288 58.4243 36.8612 58.4922 36.8954C59.0779 37.1908 59.7505 37.3391 60.4616 37.2916C62.3455 37.1657 63.8729 35.6336 63.9931 33.7493C64.1344 31.537 62.3823 29.6992 60.2006 29.6992Z" fill="#FF807E"/>
</svg>
