<svg width="1171" height="873" viewBox="0 0 1171 873" fill="none" xmlns="http://www.w3.org/2000/svg">
<path d="M541.104 722.83C505.933 743.162 469.065 756.385 427.087 756.212C380.298 756.015 333.915 724.62 304.603 690.164C293.712 677.367 284.188 662.576 281.98 645.921C276.894 607.443 312.105 596.498 343.809 596.986C361.679 597.253 378.962 602.205 396.052 607.115C424.425 615.276 456.066 616.004 482.685 629.677C491.62 634.282 498.837 640.469 508.731 643.189C524.123 647.425 540.84 647.671 556.499 651.22C569.875 654.277 585.35 660.518 587.872 673.998C590.443 687.826 577.653 699.318 565.999 707.177C557.754 712.766 549.485 718.002 541.104 722.83Z" fill="url(#paint0_linear)"/>
<path d="M292.8 267.685C333.798 157.432 457.155 86.9824 573.386 96.193C629.435 100.643 681.635 125.71 730.793 152.964C774.122 176.983 817.026 203.828 851.439 239.921C874.934 264.556 895.142 296.034 911.325 326.078C935.538 371.069 939.394 435.735 876.184 446.409C861.354 448.915 847.466 446.763 832.717 445.517C820.784 444.5 810.529 449.375 798.64 450.363C768.718 452.856 738.371 449.047 709.089 443.053C649.407 430.811 592.113 408.354 531.679 399.62C482.158 392.486 431.73 394.892 383.114 406.707C362.604 411.695 341.399 418.409 320.815 413.734C270.076 402.189 275.467 336.23 283.946 297.792C286.181 287.559 289.14 277.498 292.8 267.685Z" fill="url(#paint1_linear)"/>
<path d="M792.509 161.678C804.569 168.201 849.33 183.109 843.062 154.285C841.491 147.106 836.558 140.971 830.873 136.824C824.365 132.06 817.882 130.313 812.235 124.29C805.354 117.032 797.931 110.445 790.063 104.613C773.912 92.4207 755.963 81.8962 736.832 79.9338C723.415 78.5628 702.791 84.785 700.803 102.037C697.901 127.153 735.452 122.428 748.644 128.092C761.158 133.445 770.486 145.626 781.515 154.421C784.998 157.193 788.679 159.622 792.509 161.678Z" fill="url(#paint2_linear)"/>
<path d="M588.693 174.827C614.29 182.519 635.899 198.123 660.184 209.005C700.615 227.119 748.483 221.127 791.926 229.97C836.226 238.999 873.347 260.8 897.191 299.486C927.983 349.417 945.44 413.489 944.213 472.875C942.855 538.245 914.357 588.427 864.751 629.388C815.174 670.324 755.988 698.257 694.502 716.088C688.57 717.814 682.619 719.418 676.619 720.928C541.845 754.768 350.563 751.26 269.103 617.527C268.357 616.305 267.629 615.08 266.895 613.835C258.204 598.842 251.339 582.862 246.447 566.236C228.958 507.333 223.276 438.982 230.489 377.98C235.331 336.915 260.321 304.897 286.665 274.419C323.678 231.601 373.853 202.876 427.337 185.727C466.943 173.03 512.012 160.896 553.895 166.977C565.674 168.721 577.306 171.344 588.693 174.827Z" fill="url(#paint3_linear)"/>
<path d="M902.258 591.85C878.601 624.875 850.466 652.125 812.152 669.277C769.445 688.391 714.243 678.915 673.331 659.612C658.132 652.444 643.356 642.897 634.477 628.634C613.977 595.677 641.541 571.187 670.626 558.558C687.016 551.432 704.803 548.817 722.397 546.244C751.612 541.978 780.737 529.595 810.625 531.075C820.665 531.586 829.79 534.246 839.926 532.644C855.695 530.157 871.026 523.487 886.756 520.263C900.202 517.533 916.873 516.837 924.73 528.078C932.774 539.615 925.86 555.359 918.484 567.324C913.278 575.815 907.903 583.995 902.258 591.85Z" fill="url(#paint4_linear)"/>
<path d="M506.432 412.302C506.091 412.302 505.748 412.194 505.455 411.968C505.188 411.758 498.859 406.759 494.026 396.562C489.594 387.211 485.658 371.534 492.066 349.921C496.412 335.259 500.768 324.836 504.609 315.634C511.583 298.94 516.623 286.878 517.03 261.306C517.043 260.431 517.689 259.68 518.643 259.741C519.525 259.757 520.225 260.476 520.212 261.357C519.795 287.54 514.389 300.48 507.545 316.863C503.734 325.988 499.416 336.328 495.117 350.828C483.431 390.23 507.17 409.27 507.412 409.454C508.102 409.995 508.226 410.994 507.689 411.688C507.374 412.092 506.906 412.302 506.432 412.302Z" fill="#000C3E"/>
<path d="M636.799 161.035C636.561 178.369 622.316 192.232 604.979 191.994C587.645 191.755 573.785 177.51 574.021 160.173C574.259 142.839 588.507 128.979 605.841 129.215C623.175 129.454 637.038 143.701 636.799 161.035Z" fill="#000C3E"/>
<path d="M503.394 401.089C503.394 401.089 513.051 419.858 550.808 425.645C588.563 431.43 617.749 417.125 647.024 426.963C676.299 436.804 717.907 422.091 725.928 409.699C733.952 397.306 729.001 262.282 705.577 240.179C682.153 218.075 561.792 202.02 536.433 229.138C511.075 256.259 486.55 386.268 503.394 401.089Z" fill="#000C3E"/>
<path d="M717.938 289.38C717.155 346.508 670.209 392.185 613.078 391.402C555.95 390.62 510.273 343.67 511.055 286.542C511.841 229.414 558.788 183.737 615.916 184.52C673.044 185.306 718.721 232.252 717.938 289.38Z" fill="#000C3E"/>
<path d="M529.966 286.087C529.966 286.087 537.198 411.52 622.201 414.925C707.201 418.329 702.915 241.46 671.801 225.363C640.687 209.27 512.587 215.471 529.966 286.087Z" fill="#FFCEB0"/>
<path d="M617.744 310.891C617.744 310.891 634.871 349.145 630.761 351.805C626.65 354.462 614.432 354.296 611.075 351.534C607.719 348.773 611.012 306.726 617.744 310.891Z" fill="#F5A473"/>
<path d="M592.633 324.426C592.522 328.83 588.863 332.31 584.46 332.199C580.056 332.091 576.575 328.432 576.687 324.028C576.795 319.625 580.454 316.144 584.86 316.252C589.264 316.364 592.745 320.023 592.633 324.426Z" fill="#41294A"/>
<path d="M661.01 319.045C660.899 323.449 657.24 326.929 652.836 326.818C648.433 326.71 644.952 323.051 645.064 318.647C645.172 314.244 648.831 310.763 653.237 310.871C657.641 310.982 661.122 314.641 661.01 319.045Z" fill="#41294A"/>
<path d="M595.202 217.554C595.202 217.554 565.118 232.995 559.986 260.758C554.851 288.522 559.525 359.192 527.205 356.713C527.205 356.713 461.451 218.196 595.202 217.554Z" fill="#41294A"/>
<path d="M611.256 217.774C608.542 219.816 642.679 218.922 662.759 242.12C682.842 265.318 688.881 324.343 691.926 325.367C694.971 326.395 705.257 251.735 683.329 229.899C661.4 208.066 626.7 206.151 611.256 217.774Z" fill="#41294A"/>
<path d="M684.725 330.584C684.725 330.584 692.103 298.964 706.542 309.813C720.98 320.663 708.938 353.807 694.998 357.119C681.062 360.432 677.372 346.966 684.725 330.584Z" fill="#FFCEB0"/>
<path d="M550.746 328.746C550.746 328.746 544.236 296.935 529.505 307.384C514.777 317.833 525.906 351.299 539.747 354.993C553.591 358.683 557.647 345.326 550.746 328.746Z" fill="#FFCEB0"/>
<path d="M649.183 290.911C649.183 290.911 664.195 282.991 673.444 294.369C681.58 304.372 663.011 296.265 656.177 297.56C649.339 298.859 640.31 298.292 649.183 290.911Z" fill="#41294A"/>
<path d="M589.527 293.793C589.527 293.793 574.13 286.65 565.473 298.483C557.859 308.89 575.989 299.845 582.883 300.793C589.775 301.738 598.767 300.71 589.527 293.793Z" fill="#41294A"/>
<path d="M643.732 375.18C643.732 375.18 633.939 360.382 623.344 361.314C612.745 362.249 604.622 375.889 603.197 376.462C603.197 376.462 619.736 384.229 643.732 375.18Z" fill="#41294A"/>
<path d="M584.172 306.667C570.914 306.667 559.979 317.46 559.794 330.721C559.708 337.231 562.158 343.391 566.702 348.062C571.245 352.729 577.332 355.348 583.845 355.437L584.185 355.44C597.443 355.44 608.379 344.651 608.56 331.389C608.745 317.947 597.959 306.858 584.513 306.671L584.172 306.667ZM584.185 358.622L583.8 358.619C576.438 358.52 569.556 355.555 564.42 350.279C559.285 345.001 556.514 338.039 556.612 330.677C556.819 315.684 569.183 303.486 584.172 303.486L584.557 303.489C599.757 303.699 611.949 316.235 611.742 331.431C611.539 346.423 599.174 358.622 584.185 358.622Z" fill="#FFFCF6"/>
<path d="M653.038 301.156C639.777 301.156 628.841 311.948 628.66 325.209C628.475 338.649 639.264 349.741 652.707 349.925L653.048 349.928C666.309 349.928 677.245 339.139 677.426 325.878C677.515 319.365 675.062 313.205 670.522 308.534C665.978 303.87 659.891 301.248 653.378 301.159L653.038 301.156ZM653.048 353.11L652.666 353.107C637.463 352.897 625.271 340.361 625.478 325.165C625.685 310.173 638.046 297.974 653.038 297.974L653.423 297.977C660.786 298.076 667.668 301.041 672.8 306.316C677.938 311.595 680.71 318.556 680.608 325.919C680.401 340.911 668.037 353.11 653.048 353.11Z" fill="#FFFCF6"/>
<path d="M558.887 326.727C558.705 326.727 558.517 326.695 558.339 326.631L548.135 322.883C547.311 322.578 546.888 321.665 547.191 320.838C547.493 320.017 548.412 319.6 549.233 319.896L559.434 323.641C560.261 323.946 560.681 324.859 560.379 325.687C560.143 326.329 559.536 326.727 558.887 326.727Z" fill="#FFFCF6"/>
<path d="M677.873 319.496C677.196 319.496 676.566 319.061 676.356 318.38C676.092 317.543 676.559 316.649 677.399 316.385L691.345 312.032C692.178 311.765 693.076 312.239 693.337 313.076C693.601 313.916 693.133 314.807 692.293 315.071L678.347 319.426C678.192 319.474 678.029 319.496 677.873 319.496Z" fill="#FFFCF6"/>
<path d="M610.759 246.942C610.759 246.942 610.788 278.673 629.69 284.404C648.59 290.137 697.21 287.608 696.717 279.854C692.265 209.846 659.357 213.368 631.873 204.408C583.673 188.7 544.251 267.4 550.153 286.001C556.055 304.598 596.737 287.232 605.445 284.617C614.151 281.998 609.327 260.436 610.759 246.942Z" fill="#000C3E"/>
<g opacity="0.210007">
<g opacity="0.210007">
<path opacity="0.210007" d="M562.015 354.112C562.015 354.112 604.895 329.37 623.715 332.829C642.535 336.291 675.565 336.832 677.06 343.583C678.559 350.332 635.185 347.29 621.844 348.588C608.503 349.886 557.287 365.244 562.015 354.112Z" fill="#DB5C5D"/>
</g>
</g>
<path d="M586.013 337.556C585.386 337.556 584.791 337.183 584.539 336.563C584.209 335.752 584.6 334.823 585.414 334.492C589.726 332.735 590.524 331.351 590.531 331.339C590.814 330.505 591.686 330.117 592.526 330.413C593.356 330.696 593.773 331.663 593.49 332.497C593.289 333.082 592.204 335.163 586.611 337.438C586.413 337.518 586.213 337.556 586.013 337.556Z" fill="#DB5C5D"/>
<path d="M651.524 334.188C650.242 334.188 648.078 333.8 644.68 332.142C643.888 331.76 643.56 330.809 643.945 330.016C644.327 329.227 645.284 328.903 646.07 329.285C650.261 331.324 651.82 330.984 651.839 330.984C652.65 330.643 653.516 331.041 653.859 331.849C654.203 332.657 653.764 333.612 652.952 333.959C652.742 334.048 652.291 334.188 651.524 334.188Z" fill="#DB5C5D"/>
<path d="M610.128 331.541C609.323 331.541 608.629 330.933 608.546 330.112C608.457 329.237 609.094 328.454 609.969 328.368L627.042 326.625C627.898 326.517 628.696 327.169 628.785 328.044C628.875 328.919 628.238 329.702 627.363 329.788L610.29 331.531C610.236 331.537 610.182 331.541 610.128 331.541Z" fill="#FFFCF6"/>
<path d="M586.487 191.565C586.255 191.565 586.016 191.515 585.794 191.403C576.767 187.016 571.307 180.757 569.557 172.8C565.676 155.131 581.46 135.583 582.135 134.759C582.695 134.078 583.694 133.979 584.371 134.536C585.052 135.093 585.154 136.092 584.597 136.773C584.441 136.964 569.112 155.968 572.666 172.125C574.196 179.08 579.08 184.604 587.184 188.546C587.973 188.928 588.304 189.882 587.919 190.671C587.645 191.235 587.079 191.565 586.487 191.565Z" fill="#000C3E"/>
<path d="M622.817 196.294C622.375 196.294 621.936 196.109 621.621 195.753C621.041 195.091 621.105 194.089 621.767 193.507C621.951 193.344 640.196 177.121 639.343 160.598C638.977 153.487 635.067 147.235 627.72 142.014C627.004 141.508 626.835 140.515 627.345 139.796C627.854 139.083 628.846 138.915 629.562 139.424C637.742 145.233 642.105 152.306 642.521 160.445C643.444 178.508 624.665 195.196 623.864 195.899C623.561 196.163 623.189 196.294 622.817 196.294Z" fill="#000C3E"/>
<path d="M717.447 405.181C716.986 405.181 716.528 404.983 716.213 404.592C715.659 403.914 715.761 402.912 716.442 402.355C716.652 402.184 737.578 384.706 731.517 357.057C729.181 346.398 725.087 334.67 720.75 322.255C713.231 300.724 705.455 278.459 704.822 256.874C704.797 255.992 705.49 255.264 706.368 255.235C707.192 255.264 707.978 255.9 708.004 256.778C708.624 277.873 716.315 299.904 723.753 321.205C728.122 333.716 732.249 345.53 734.625 356.373C741.113 385.979 718.679 404.64 718.449 404.824C718.154 405.063 717.8 405.181 717.447 405.181Z" fill="#000C3E"/>
<path d="M723.098 291.551C723.047 291.551 722.993 291.548 722.939 291.545C722.067 291.459 721.428 290.679 721.513 289.804C724.262 261.967 718.405 239.374 704.109 222.641C681.09 195.708 643.691 193.236 643.319 193.213C642.441 193.162 641.77 192.412 641.824 191.53C641.871 190.655 642.626 189.962 643.501 190.038C643.892 190.06 682.639 192.618 706.527 220.573C721.408 237.99 727.517 261.388 724.679 290.116C724.6 290.94 723.906 291.551 723.098 291.551Z" fill="#000C3E"/>
<path d="M609.154 378.321C609.154 378.321 625.008 367.197 639.167 376.733C639.167 376.733 622.635 382.928 609.154 378.321Z" fill="#DB5C5D"/>
<path d="M619.644 389.741C618.079 389.741 616.733 389.725 615.903 389.712C615.025 389.699 614.325 388.977 614.337 388.096C614.35 387.217 614.951 386.505 615.954 386.53C621.961 386.61 629.139 386.463 630.256 386.04C631.073 385.728 631.996 386.136 632.311 386.953C632.626 387.774 632.225 388.687 631.407 389.006C629.816 389.623 623.911 389.741 619.644 389.741Z" fill="#DB5C5D"/>
<path d="M542.48 346.203C542.337 346.203 542.194 346.184 542.051 346.143C541.204 345.907 540.711 345.032 540.946 344.183C545.299 328.583 533.743 318.538 533.625 318.436C532.957 317.87 532.874 316.865 533.444 316.193C534.01 315.525 535.016 315.442 535.687 316.015C536.228 316.473 548.907 327.498 544.01 345.042C543.813 345.742 543.177 346.203 542.48 346.203Z" fill="#DB5C5D"/>
<path d="M690.92 350.003C690.885 350.003 690.853 350.003 690.815 350C689.94 349.943 689.275 349.185 689.329 348.31C690.519 329.847 699.367 319.977 699.746 319.567C700.338 318.917 701.343 318.873 701.989 319.465C702.638 320.057 702.683 321.062 702.094 321.711C702.008 321.806 693.618 331.234 692.508 348.514C692.45 349.357 691.75 350.003 690.92 350.003Z" fill="#DB5C5D"/>
<path d="M658.972 401.941C658.972 401.941 664.031 458.534 657.318 467.485C650.604 476.438 608.084 469.721 596.893 467.485C585.703 465.248 585.681 371.648 587.94 377.97C606.623 430.185 657.684 383.977 658.972 401.941Z" fill="#FFCEB0"/>
<path d="M591.986 407.539C591.986 407.539 622.152 422.038 656.445 404.487C656.445 404.487 659.111 425.57 656.445 430.431C653.782 435.293 599.46 438.767 588.766 414.806C588.766 414.806 588.9 406.498 591.986 407.539Z" fill="#F5A473"/>
<path d="M427.249 850.876H817.622C817.622 850.876 837.562 511.474 788.662 474.566C739.759 437.655 524.486 456.093 473.804 487.621C423.122 519.149 427.249 850.876 427.249 850.876Z" fill="#FB4C47"/>
<path d="M622.153 460.778C622.153 460.778 607.106 591.241 613.674 609.399C620.237 627.558 611.828 708.065 609.155 718.53C606.48 728.994 525.374 733.439 504.445 725.068C483.515 716.697 509.777 491.045 521.492 449.298C533.211 407.547 620.864 432.145 622.153 460.778Z" fill="#05BA6E"/>
<path d="M383.969 300.932C383.969 300.932 416.598 363.425 439.465 364.004C462.335 364.583 539.454 270.668 567.889 269.7C596.328 268.736 620.747 271.495 620.859 264.718C620.97 257.937 581.307 250.537 581.307 250.537C581.307 250.537 638.667 254.189 626.802 247.915C614.941 241.641 586.515 235.999 586.515 235.999C586.515 235.999 627.741 237.663 628.04 233.254C628.339 228.844 585.118 222.35 585.118 222.35C585.118 222.35 637.712 220.67 628.094 213.435C618.472 206.199 600.365 209.34 551.389 216.82C502.409 224.3 391.602 289.688 383.969 300.932Z" fill="#FFCEB0"/>
<path d="M441.214 297.938C441.214 297.938 493.41 329.03 470.683 364.265C446.483 401.784 447.838 390.638 443.654 405.818C439.467 420.998 508.441 450.563 511.578 463.557C514.715 476.548 482.201 636.332 451.745 629.774C425.235 624.069 277.915 540.466 256.743 456.92C240.332 392.15 374.102 233.722 441.214 297.938Z" fill="#FB4C47"/>
<path d="M577.845 662.398C577.845 662.398 520.011 789.801 541.274 806.862C562.538 823.919 579.672 812.805 598.476 823.878C617.283 834.95 635.323 829.414 650.43 819.78C665.537 810.142 626.22 683.391 609.958 671.323C593.697 659.252 580.776 655.777 577.845 662.398Z" fill="white"/>
<path d="M770.001 465.5C770.001 465.5 801.099 469.296 825.51 514C843.824 547.541 879.304 743.529 825.51 771.454C771.716 799.377 721.261 784.771 701.736 765.953C682.209 747.135 716.95 650.154 740.108 642.915C763.268 635.679 770.001 465.5 770.001 465.5Z" fill="#FB4C47"/>
<path d="M780.071 462.496C780.071 462.496 781.525 453.434 736.742 434.055C701.005 418.588 670.393 444.691 615.88 447.501C561.368 450.313 566.287 428.706 527.727 438.748C468.223 454.239 515.599 493.244 534.772 497.622C553.945 502 618.181 609.985 780.071 462.496Z" fill="#05BA6E"/>
<path d="M623.78 353.6C623.78 353.6 623.614 357.291 625.733 357.625C627.852 357.959 631.769 356.776 630.76 351.803C630.76 351.803 625.447 353.511 623.78 353.6Z" fill="white"/>
<path d="M844.514 659.318C844.365 659.318 844.212 659.309 844.059 659.287C842.589 659.077 841.501 657.893 841.345 656.483C838.695 653.419 820.899 647.002 809.028 642.719C785.509 634.234 774.962 630.037 772.693 625.446C770.768 621.554 771.63 615.942 772.722 608.837C774.449 597.593 776.603 583.593 769.463 570.109C757.134 546.822 758.308 512.281 758.366 510.824C758.436 509.067 759.953 507.661 761.665 507.766C763.421 507.833 764.79 509.312 764.726 511.065C764.71 511.409 763.565 545.371 775.089 567.131C783.212 582.479 780.784 598.27 779.012 609.801C778.162 615.321 777.364 620.536 778.398 622.627C780.326 625.601 798.898 632.302 811.186 636.734C838.879 646.725 848.495 650.744 847.658 656.588C847.432 658.176 846.07 659.318 844.514 659.318Z" fill="#B31B1F"/>
<path d="M761.5 633.159C761.223 633.159 760.943 633.124 760.66 633.047C750.148 630.18 733.816 627.196 733.654 627.164C731.923 626.852 730.777 625.195 731.092 623.467C731.407 621.736 733.059 620.572 734.793 620.906C735.47 621.027 751.554 623.967 762.334 626.906C764.03 627.371 765.029 629.118 764.567 630.814C764.182 632.23 762.9 633.159 761.5 633.159Z" fill="#B31B1F"/>
<path d="M818.653 790.54C818.603 790.54 818.555 790.54 818.507 790.536C759.613 787.867 700.936 762.779 697.763 738.916C696.768 731.417 696.048 727.665 695.603 725.81C694.413 725.219 693.691 723.952 693.904 722.568C694.308 719.947 696.083 719.017 697.493 719.017H697.528C700.732 719.052 701.795 720.93 704.073 738.079C706.535 756.603 759.957 781.513 818.793 784.179C820.55 784.259 821.908 785.745 821.829 787.501C821.752 789.21 820.343 790.54 818.653 790.54Z" fill="#B31B1F"/>
<path d="M713.077 734.226C712.845 734.226 712.609 734.2 712.371 734.149C710.659 733.761 709.584 732.056 709.972 730.341C710.109 729.727 724.025 668.383 737.032 624.256C737.529 622.569 739.31 621.602 740.984 622.105C742.67 622.601 743.634 624.37 743.135 626.056C730.185 669.987 716.316 731.133 716.179 731.747C715.842 733.224 714.531 734.226 713.077 734.226Z" fill="#B31B1F"/>
<path d="M437 600.994C436.845 600.994 436.682 600.982 436.523 600.959C434.786 600.699 433.59 599.076 433.851 597.342C434.178 595.146 442.034 543.3 452.814 519.039C463.294 495.463 468.659 471.558 468.713 471.32C469.088 469.605 470.784 468.532 472.509 468.902C474.224 469.283 475.305 470.986 474.924 472.701C474.704 473.7 469.365 497.467 458.63 521.626C448.2 545.098 440.22 597.755 440.141 598.284C439.905 599.865 438.547 600.994 437 600.994Z" fill="#B31B1F"/>
<path d="M388.497 419.977C380.028 419.977 370.536 419.462 360.088 418.132C358.344 417.909 357.11 416.318 357.332 414.575C357.552 412.831 359.184 411.619 360.889 411.819C392.707 415.873 415.31 412.141 426.961 409.598C421.158 407.743 413.028 405.936 404.915 406.378C386.658 407.237 359.944 390.928 358.815 390.228C357.32 389.305 356.858 387.345 357.781 385.85C358.704 384.354 360.667 383.887 362.159 384.816C362.42 384.975 388.351 400.817 404.587 400.021C420.054 399.207 438.371 406.095 440.035 409.051C440.63 410.104 440.582 411.472 439.905 412.475C439.275 413.4 437.97 413.957 436.825 413.887C436.322 413.945 434.833 414.301 433.385 414.645C426.427 416.312 411.091 419.974 388.497 419.977Z" fill="#B31B1F"/>
<path d="M466.708 351.594C465.525 351.594 464.389 350.932 463.842 349.799C463.762 349.637 455.817 333.499 442.289 327.104C426.93 319.84 409.561 294.523 408.829 293.451C407.84 291.997 408.215 290.015 409.666 289.028C411.123 288.042 413.099 288.421 414.086 289.865C414.257 290.113 431.213 314.823 445.012 321.348C460.603 328.727 469.212 346.287 469.572 347.028C470.335 348.613 469.671 350.509 468.089 351.273C467.644 351.492 467.173 351.594 466.708 351.594Z" fill="#B31B1F"/>
<path d="M614.497 536.501C614.379 536.501 614.259 536.488 614.141 536.46C613.285 536.265 612.747 535.41 612.944 534.557C613.021 534.22 620.609 501.047 622.83 484.196C626.289 457.925 614.523 448.761 614.405 448.672C613.702 448.144 613.555 447.151 614.077 446.448C614.599 445.742 615.585 445.592 616.292 446.111C616.842 446.515 629.709 456.318 625.983 484.61C623.746 501.613 616.123 534.932 616.047 535.263C615.878 536.005 615.223 536.501 614.497 536.501Z" fill="#08824F"/>
<path d="M520.663 488.657L517.503 488.291C517.503 488.291 519.972 466.811 521.261 456.251C522.562 445.599 525.601 438.325 525.731 438.02C526.072 437.205 527.007 436.836 527.815 437.17C528.623 437.514 529.002 438.449 528.662 439.257C528.63 439.327 525.661 446.454 524.42 456.639C523.132 467.19 520.663 488.654 520.663 488.657Z" fill="#08824F"/>
<path d="M611.008 841.386C592.863 841.386 582.885 840.787 569.076 839.96C551.312 838.894 526.988 837.437 470.143 836.553C468.387 836.527 466.984 835.083 467.012 833.323C467.041 831.567 468.587 830.103 470.242 830.189C527.227 831.074 551.634 832.54 569.455 833.609C583.155 834.427 593.05 835.022 611.008 835.022C633.487 835.022 653.653 832.559 673.157 830.18C690.278 828.086 706.447 826.113 723.778 825.728C760.747 824.914 788.374 825.725 788.647 825.728C790.404 825.786 791.785 827.252 791.731 829.005C791.676 830.762 790.194 832.063 788.457 832.092C788.183 832.082 760.712 831.268 723.921 832.092C706.906 832.467 690.886 834.424 673.927 836.495C654.235 838.901 633.875 841.386 611.008 841.386Z" fill="#B31B1F"/>
<path d="M755.143 798.932C753.562 798.932 751.978 798.223 750.597 796.136C746.298 789.642 745 789.107 736.689 790.386C729.171 791.56 726.202 786.231 724.236 782.709C723.581 781.531 722.957 780.421 722.413 779.991C720.949 778.837 717.293 780.224 715.747 781.076L714.204 778.296C714.879 777.92 720.873 774.723 724.386 777.494C725.426 778.318 726.161 779.635 727.014 781.156C728.913 784.551 730.879 788.048 736.202 787.243C745.716 785.773 748.258 786.845 753.25 794.379C754.574 796.384 755.719 796.11 759.248 794.052C761.927 792.48 765.99 790.109 769.019 794.341L766.435 796.193C765.255 794.554 764.186 794.85 760.851 796.797C759.257 797.73 757.202 798.932 755.143 798.932Z" fill="white"/>
<path d="M718.124 649.085C718.124 649.085 642.125 621.604 609.153 635.661C576.181 649.715 549.009 685.948 554.042 688.344C559.076 690.743 586.012 669.852 586.012 669.852C586.012 669.852 558.544 697.609 563.638 700.387C568.732 703.164 595.201 688.344 595.201 688.344C595.201 688.344 576.725 708.096 584.66 709.607C592.595 711.119 609.608 694.844 627.349 694.233C645.094 693.619 667.455 707.641 689.638 711.59C711.818 715.535 718.124 649.085 718.124 649.085Z" fill="#FFCEB0"/>
<path d="M832.818 634.84C832.621 634.84 832.423 634.821 832.223 634.783C832 634.744 809.62 630.513 782.865 625.072C781.143 624.722 780.03 623.042 780.38 621.321C780.727 619.599 782.403 618.486 784.131 618.839C810.842 624.267 833.184 628.489 833.407 628.534C835.134 628.858 836.267 630.522 835.939 632.25C835.653 633.777 834.317 634.84 832.818 634.84Z" fill="#B31B1F"/>
<path fill-rule="evenodd" clip-rule="evenodd" d="M620.41 134.769C619.579 134.769 618.676 134.866 617.697 135.059C615.312 135.538 613.767 136.697 612.839 138.708C608.702 147.662 617.424 168.986 623.656 181.585C627.507 167.609 632.122 144.248 625.601 136.886C624.345 135.471 622.636 134.769 620.41 134.769ZM623.839 192.049C623.939 192.068 624.04 192.082 624.142 192.09C624.474 192.218 624.828 192.284 625.186 192.284C625.517 192.284 625.849 192.229 626.172 192.111C630.422 190.562 667.844 176.527 672.505 160.355C673.626 156.467 672.837 152.632 670.225 149.273C665.782 143.553 660.982 142.873 657.735 143.305C648.524 144.534 639.457 156.434 632.808 167.74C635.16 154.863 636.066 139.992 629.922 133.056C627.755 130.608 623.673 127.983 616.568 129.398C612.398 130.23 609.294 132.615 607.598 136.29C601.32 149.887 615.762 179.169 620.575 188.244C614.506 189.415 608.402 189.679 602.563 189.283C589.984 188.428 578.834 184.516 572.177 180.237L569.798 183.938C577.164 188.673 589.052 192.775 602.265 193.673C609.194 194.143 616.543 193.737 623.839 192.049ZM659.327 148.971C659.054 148.971 658.777 148.987 658.5 149.029C648.744 150.327 636.957 171.018 630.725 184.107C643.68 178.652 664.228 168.233 666.957 158.759C667.571 156.626 667.159 154.741 665.668 152.817C663.661 150.235 661.582 148.971 659.327 148.971Z" fill="#FFD310"/>
<path d="M197.27 243.75H310.515C317.784 243.75 324.662 247.045 329.218 252.71L362.458 294.048C367.173 299.91 374.363 303.223 381.883 302.997L594.85 296.596" stroke="#FFB2B1" stroke-width="5" stroke-linejoin="round"/>
<path d="M209.361 244.265C209.361 249.301 205.279 253.384 200.243 253.384C195.207 253.384 191.124 249.301 191.124 244.265C191.124 239.229 195.207 235.147 200.243 235.147C205.279 235.147 209.361 239.229 209.361 244.265Z" fill="#FF383D"/>
<path d="M11.0007 244.366C11.0007 205.356 42.625 173.732 81.6348 173.732C120.645 173.732 152.266 205.356 152.266 244.366C152.266 283.376 120.645 315 81.6348 315C42.625 315 11.0007 283.376 11.0007 244.366Z" fill="#FFE1E2"/>
<path d="M81.3303 156.49C130.103 156.49 169.64 196.028 169.64 244.8C169.64 293.573 130.103 333.113 81.3303 333.113V376.724" stroke="#FFD6D7" stroke-width="2.4" stroke-miterlimit="10"/>
<path d="M74.0679 378.928C74.0679 374.916 77.3185 371.665 81.3301 371.665C85.3418 371.665 88.5924 374.916 88.5924 378.928C88.5924 382.939 85.3418 386.19 81.3301 386.19C77.3185 386.19 74.0679 382.939 74.0679 378.928Z" fill="#F2AEB0"/>
<path d="M53.158 242.248V245.997H58.572V248.232H53.158V254H50.5798V239.896H59.6033V242.248H53.158ZM64.3943 242.248V245.772H70.1843V248.017H64.3943V251.648H70.8396V254H61.8162V239.896H70.8396V242.248H64.3943ZM75.072 239.896L77.113 245.116C77.421 245.94 77.7898 246.971 78.2195 248.21C78.6563 249.442 78.9607 250.323 79.1326 250.853C79.3259 250.323 79.6375 249.435 80.0671 248.189C80.504 246.942 80.8764 245.911 81.1843 245.095L83.2039 239.896H85.9539L80.4753 254H77.822L72.2683 239.896H75.072ZM90.3259 242.248V245.772H96.116V248.017H90.3259V251.648H96.7712V254H87.7478V239.896H96.7712V242.248H90.3259ZM99.4998 239.896H105.096C106.815 239.896 108.119 240.279 109.007 241.045C109.902 241.804 110.349 242.889 110.349 244.3C110.349 245.281 110.12 246.119 109.662 246.814C109.211 247.501 108.573 247.999 107.75 248.307L110.435 254H107.556L105.182 248.747H102.078V254H99.4998V239.896ZM105.096 246.502C105.934 246.502 106.568 246.301 106.998 245.9C107.427 245.492 107.642 244.966 107.642 244.321C107.642 243.677 107.424 243.158 106.987 242.764C106.557 242.363 105.927 242.162 105.096 242.162H102.078V246.502H105.096Z" fill="#FF383D"/>
<path d="M650.77 358.046H819.584C828.398 358.046 836.503 362.877 840.695 370.63L871.944 428.419C876.136 436.172 884.241 441.004 893.055 441.004H975.84" stroke="#FFB2B1" stroke-width="5" stroke-linejoin="round"/>
<path d="M979.944 440.905C979.944 445.941 975.862 450.023 970.826 450.023C965.79 450.023 961.708 445.941 961.708 440.905C961.708 435.868 965.79 431.786 970.826 431.786C975.862 431.786 979.944 435.868 979.944 440.905Z" fill="#FF383D"/>
<path opacity="0.15" d="M1005.73 459.366C1005.73 420.356 1037.36 388.732 1076.37 388.732C1115.38 388.732 1147 420.356 1147 459.366C1147 498.376 1115.38 530 1076.37 530C1037.36 530 1005.73 498.376 1005.73 459.366Z" fill="#FF383D"/>
<path d="M1042.72 439.896H1048.32C1050.04 439.896 1051.34 440.279 1052.23 441.045C1053.12 441.804 1053.57 442.889 1053.57 444.3C1053.57 445.281 1053.34 446.119 1052.88 446.814C1052.43 447.501 1051.79 447.999 1050.97 448.307L1053.66 454H1050.78L1048.4 448.747H1045.3V454H1042.72V439.896ZM1048.32 446.502C1049.15 446.502 1049.79 446.301 1050.22 445.9C1050.65 445.492 1050.86 444.966 1050.86 444.321C1050.86 443.677 1050.64 443.158 1050.21 442.764C1049.78 442.363 1049.15 442.162 1048.32 442.162H1045.3V446.502H1048.32ZM1055.93 439.896H1058.51V448.812C1058.51 449.9 1058.82 450.691 1059.43 451.186C1060.05 451.68 1060.83 451.927 1061.79 451.927C1062.8 451.927 1063.6 451.665 1064.19 451.143C1064.79 450.613 1065.09 449.836 1065.09 448.812V439.896H1067.66V448.919C1067.66 450.079 1067.41 451.064 1066.9 451.873C1066.39 452.675 1065.69 453.28 1064.81 453.689C1063.92 454.09 1062.92 454.29 1061.79 454.29C1060.64 454.29 1059.63 454.086 1058.75 453.678C1057.87 453.262 1057.18 452.654 1056.67 451.852C1056.18 451.042 1055.93 450.065 1055.93 448.919V439.896ZM1082.18 439.896V454H1079.76L1073.27 444.343V454H1070.71V439.896H1073.14L1079.63 449.574V439.896H1082.18ZM1096.81 439.896V454H1094.39L1087.9 444.343V454H1085.34V439.896H1087.77L1094.26 449.574V439.896H1096.81ZM1101.59 439.896L1103.26 442.753C1103.67 443.469 1104.03 444.132 1104.35 444.74C1104.66 445.342 1104.86 445.721 1104.93 445.879C1105.01 445.714 1105.21 445.356 1105.51 444.805C1105.82 444.246 1106.2 443.562 1106.65 442.753L1108.32 439.896H1111.2L1106.21 448.35V454H1103.63V448.35L1098.61 439.896H1101.59ZM1061.75 468.896V483H1059.34L1052.85 473.343V483H1050.29V468.896H1052.72L1059.21 478.574V468.896H1061.75ZM1079.01 475.942C1079.01 477.36 1078.68 478.628 1078.04 479.745C1077.4 480.862 1076.5 481.732 1075.37 482.356C1074.23 482.979 1072.96 483.29 1071.55 483.29C1070.14 483.29 1068.87 482.982 1067.74 482.366C1066.61 481.75 1065.73 480.884 1065.1 479.767C1064.46 478.649 1064.14 477.382 1064.14 475.964C1064.14 474.539 1064.46 473.271 1065.1 472.161C1065.73 471.044 1066.61 470.174 1067.74 469.551C1068.87 468.928 1070.15 468.616 1071.57 468.616C1072.98 468.616 1074.25 468.928 1075.38 469.551C1076.51 470.174 1077.4 471.04 1078.04 472.15C1078.68 473.253 1079.01 474.517 1079.01 475.942ZM1076.28 475.942C1076.28 474.983 1076.08 474.131 1075.68 473.386C1075.28 472.641 1074.71 472.061 1073.99 471.646C1073.27 471.223 1072.47 471.012 1071.57 471.012C1070.66 471.012 1069.85 471.223 1069.12 471.646C1068.41 472.061 1067.85 472.641 1067.44 473.386C1067.03 474.131 1066.83 474.99 1066.83 475.964C1066.83 476.916 1067.03 477.769 1067.44 478.521C1067.85 479.265 1068.41 479.845 1069.12 480.261C1069.85 480.676 1070.66 480.884 1071.57 480.884C1072.47 480.884 1073.27 480.676 1073.99 480.261C1074.71 479.845 1075.28 479.265 1075.68 478.521C1076.08 477.769 1076.28 476.909 1076.28 475.942ZM1080.85 472.902C1080.85 472.036 1081.06 471.28 1081.48 470.636C1081.9 469.991 1082.49 469.494 1083.25 469.143C1084.02 468.792 1084.9 468.616 1085.89 468.616C1086.87 468.616 1087.75 468.788 1088.51 469.132C1089.28 469.476 1089.88 469.963 1090.31 470.593C1090.74 471.223 1090.95 471.957 1090.95 472.795H1088.3C1088.28 472.193 1088.04 471.71 1087.58 471.345C1087.12 470.972 1086.52 470.786 1085.76 470.786C1085.08 470.786 1084.52 470.958 1084.11 471.302C1083.7 471.638 1083.5 472.075 1083.5 472.612C1083.5 473.142 1083.68 473.533 1084.03 473.783C1084.4 474.034 1084.88 474.231 1085.48 474.374L1087.79 474.943C1088.85 475.194 1089.7 475.656 1090.35 476.329C1091 476.995 1091.33 477.855 1091.33 478.907C1091.33 479.788 1091.11 480.558 1090.66 481.217C1090.23 481.876 1089.6 482.388 1088.79 482.753C1087.99 483.111 1087.06 483.29 1085.99 483.29C1084.41 483.29 1083.12 482.907 1082.12 482.141C1081.13 481.367 1080.6 480.318 1080.51 478.993H1083.16C1083.19 479.652 1083.47 480.171 1083.99 480.551C1084.51 480.923 1085.19 481.109 1086.03 481.109C1086.84 481.109 1087.48 480.938 1087.93 480.594C1088.39 480.25 1088.62 479.777 1088.62 479.176C1088.62 478.66 1088.46 478.27 1088.14 478.005C1087.82 477.74 1087.39 477.543 1086.87 477.414L1084.51 476.845C1083.35 476.565 1082.45 476.1 1081.81 475.448C1081.17 474.789 1080.85 473.941 1080.85 472.902ZM1096.25 471.248V474.772H1102.04V477.017H1096.25V480.648H1102.69V483H1093.67V468.896H1102.69V471.248H1096.25Z" fill="#FF383D"/>
<path d="M1081.03 371.265C1129.8 371.265 1169.34 410.803 1169.34 459.578C1169.34 508.35 1129.8 547.888 1081.03 547.888V591.502" stroke="#FFD6D7" stroke-width="2.4" stroke-miterlimit="10"/>
<path d="M1073.77 593.704C1073.77 589.692 1077.02 586.442 1081.03 586.442C1085.04 586.442 1088.29 589.692 1088.29 593.704C1088.29 597.716 1085.04 600.966 1081.03 600.966C1077.02 600.966 1073.77 597.716 1073.77 593.704Z" fill="#F2AEB0"/>
<path opacity="0.15" d="M11.0007 730.366C11.0007 691.356 42.625 659.732 81.6348 659.732C120.645 659.732 152.266 691.356 152.266 730.366C152.266 769.376 120.645 801 81.6348 801C42.625 801 11.0007 769.376 11.0007 730.366Z" fill="#FF383D"/>
<g filter="url(#filter0_d)">
<path d="M31.822 726.896C33.197 726.896 34.4216 727.196 35.4958 727.798C36.5772 728.399 37.4187 729.241 38.0203 730.322C38.6218 731.397 38.9226 732.618 38.9226 733.985C38.9226 735.346 38.6254 736.56 38.031 737.627C37.4366 738.687 36.5987 739.514 35.5173 740.108C34.4431 740.703 33.2113 741 31.822 741H26.5798V726.896H31.822ZM31.5964 738.648C32.5203 738.648 33.3295 738.454 34.0242 738.067C34.726 737.674 35.2667 737.126 35.6462 736.424C36.0258 735.722 36.2156 734.909 36.2156 733.985C36.2156 733.047 36.0258 732.224 35.6462 731.515C35.2667 730.799 34.726 730.244 34.0242 729.85C33.3295 729.449 32.5203 729.248 31.5964 729.248H29.158V738.648H31.5964ZM41.9412 726.896L43.6169 729.753C44.0251 730.469 44.3868 731.132 44.7019 731.74C45.017 732.342 45.2104 732.721 45.282 732.879C45.3679 732.714 45.5613 732.356 45.8621 731.805C46.17 731.246 46.5496 730.562 47.0007 729.753L48.6765 726.896H51.5554L46.5603 735.35V741H43.9822V735.35L38.9656 726.896H41.9412ZM59.1394 726.896C60.6218 726.896 61.7856 727.315 62.6306 728.152C63.4828 728.99 63.9089 730.111 63.9089 731.515C63.9089 732.424 63.7156 733.23 63.3289 733.932C62.9421 734.626 62.3835 735.171 61.6531 735.565C60.9298 735.958 60.0776 736.155 59.0964 736.155H55.9275V741H53.3494V726.896H59.1394ZM58.613 733.942C59.4796 733.942 60.1277 733.71 60.5574 733.244C60.9942 732.772 61.2126 732.181 61.2126 731.472C61.2126 730.827 60.9942 730.283 60.5574 729.839C60.1277 729.388 59.5011 729.162 58.6775 729.162H55.9275V733.942H58.613ZM65.6277 730.902C65.6277 730.036 65.8354 729.28 66.2507 728.636C66.6733 727.991 67.2641 727.494 68.0232 727.143C68.7895 726.792 69.6703 726.616 70.6658 726.616C71.6469 726.616 72.5206 726.788 73.2869 727.132C74.0531 727.476 74.6511 727.963 75.0808 728.593C75.5105 729.223 75.7253 729.957 75.7253 730.795H73.072C73.0577 730.193 72.8178 729.71 72.3523 729.345C71.894 728.972 71.2888 728.786 70.5369 728.786C69.8494 728.786 69.2979 728.958 68.8826 729.302C68.4744 729.638 68.2703 730.075 68.2703 730.612C68.2703 731.142 68.4493 731.533 68.8074 731.783C69.1726 732.034 69.656 732.231 70.2576 732.374L72.5671 732.943C73.6199 733.194 74.4721 733.656 75.1238 734.329C75.7755 734.995 76.1013 735.855 76.1013 736.907C76.1013 737.788 75.8793 738.558 75.4353 739.217C74.9985 739.876 74.3754 740.388 73.5662 740.753C72.7641 741.111 71.8295 741.29 70.7625 741.29C69.1798 741.29 67.8907 740.907 66.8953 740.141C65.907 739.367 65.3699 738.318 65.2839 736.993H67.9373C67.9659 737.652 68.2416 738.171 68.7644 738.551C69.2872 738.923 69.9675 739.109 70.8054 739.109C71.6147 739.109 72.2485 738.938 72.7068 738.594C73.1651 738.25 73.3943 737.777 73.3943 737.176C73.3943 736.66 73.2332 736.27 72.9109 736.005C72.5886 735.74 72.1661 735.543 71.6433 735.414L69.28 734.845C68.1199 734.565 67.2211 734.1 66.5837 733.448C65.9464 732.789 65.6277 731.941 65.6277 730.902ZM89.905 726.896V741H87.488L80.9998 731.343V741H78.4431V726.896H80.8708L87.3591 736.574V726.896H89.905ZM107.157 733.942C107.157 735.36 106.835 736.628 106.19 737.745C105.546 738.862 104.654 739.732 103.515 740.356C102.384 740.979 101.113 741.29 99.7019 741.29C98.2911 741.29 97.0199 740.982 95.8884 740.366C94.7641 739.75 93.8832 738.884 93.2458 737.767C92.6085 736.649 92.2898 735.382 92.2898 733.964C92.2898 732.539 92.6085 731.271 93.2458 730.161C93.8832 729.044 94.7641 728.174 95.8884 727.551C97.0199 726.928 98.2983 726.616 99.7234 726.616C101.134 726.616 102.402 726.928 103.526 727.551C104.658 728.174 105.546 729.04 106.19 730.15C106.835 731.253 107.157 732.517 107.157 733.942ZM104.428 733.942C104.428 732.983 104.228 732.131 103.827 731.386C103.426 730.641 102.864 730.061 102.14 729.646C101.424 729.223 100.619 729.012 99.7234 729.012C98.8139 729.012 97.9975 729.223 97.2742 729.646C96.558 730.061 95.9958 730.641 95.5876 731.386C95.1794 732.131 94.9753 732.99 94.9753 733.964C94.9753 734.916 95.1794 735.769 95.5876 736.521C95.9958 737.265 96.558 737.845 97.2742 738.261C97.9975 738.676 98.8139 738.884 99.7234 738.884C100.619 738.884 101.424 738.676 102.14 738.261C102.864 737.845 103.426 737.265 103.827 736.521C104.228 735.769 104.428 734.909 104.428 733.942ZM112.109 729.248V732.772H117.899V735.017H112.109V738.648H118.554V741H109.531V726.896H118.554V729.248H112.109ZM125.161 726.896H127.782L133.013 741H130.285L129.146 737.788H123.754L122.561 741H119.897L125.161 726.896ZM128.394 735.65L127.492 733.169C127.406 732.933 127.17 732.234 126.783 731.074L126.482 730.193C126.425 730.387 126.289 730.791 126.074 731.407C125.859 732.023 125.641 732.61 125.419 733.169L124.495 735.65H128.394Z" fill="#FF383D"/>
</g>
<path d="M81.3325 642.642C130.105 642.642 169.643 682.18 169.643 730.952C169.643 779.727 130.105 819.265 81.3325 819.265V862.876" stroke="#FFD6D7" stroke-width="2.4" stroke-miterlimit="10"/>
<path d="M74.0701 865.08C74.0701 861.068 77.3207 857.818 81.3323 857.818C85.344 857.818 88.5946 861.068 88.5946 865.08C88.5946 869.089 85.344 872.342 81.3323 872.342C77.3207 872.342 74.0701 869.089 74.0701 865.08Z" fill="#F2AEB0"/>
<path d="M186.74 742.834H365.033C374.666 742.834 383.365 737.075 387.127 728.207L443.54 595.233C447.302 586.365 456.002 580.606 465.634 580.606H672.809" stroke="#FFB2B1" stroke-width="5" stroke-linejoin="round"/>
<path d="M201.987 743.241C201.987 748.277 197.904 752.359 192.868 752.359C187.832 752.359 183.75 748.277 183.75 743.241C183.75 738.205 187.832 734.122 192.868 734.122C197.904 734.122 201.987 738.205 201.987 743.241Z" fill="#FF383D"/>
<path opacity="0.15" d="M159.268 488.366C159.268 449.356 127.644 417.732 88.6338 417.732C49.624 417.732 17.9998 449.356 17.9998 488.366C17.9998 527.376 49.624 559 88.6338 559C127.644 559 159.268 527.376 159.268 488.366Z" fill="#FF383D"/>
<path d="M58.2026 474.227H53.938V486H51.3599V474.227H47.0522V471.896H58.2026V474.227ZM60.1147 471.896H62.6929V477.75L68.9448 477.771V471.896H71.5337V486H68.9448V479.995H62.6929V486H60.1147V471.896ZM74.5737 471.896H80.1704C81.8892 471.896 83.1925 472.279 84.0806 473.045C84.9757 473.804 85.4233 474.889 85.4233 476.3C85.4233 477.281 85.1942 478.119 84.7358 478.813C84.2847 479.501 83.6473 479.999 82.8237 480.307L85.5093 486H82.6304L80.2563 480.747H77.1519V486H74.5737V471.896ZM80.1704 478.502C81.0083 478.502 81.6421 478.301 82.0718 477.9C82.5015 477.492 82.7163 476.966 82.7163 476.321C82.7163 475.677 82.4979 475.158 82.061 474.764C81.6313 474.363 81.0011 474.162 80.1704 474.162H77.1519V478.502H80.1704ZM101.87 478.942C101.87 480.36 101.547 481.628 100.903 482.745C100.258 483.862 99.3667 484.732 98.228 485.355C97.0965 485.979 95.8254 486.29 94.4146 486.29C93.0037 486.29 91.7326 485.982 90.6011 485.366C89.4767 484.75 88.5959 483.884 87.9585 482.767C87.3211 481.649 87.0024 480.382 87.0024 478.964C87.0024 477.539 87.3211 476.271 87.9585 475.161C88.5959 474.044 89.4767 473.174 90.6011 472.551C91.7326 471.928 93.0109 471.616 94.436 471.616C95.8468 471.616 97.1144 471.928 98.2388 472.551C99.3703 473.174 100.258 474.04 100.903 475.15C101.547 476.253 101.87 477.517 101.87 478.942ZM99.1411 478.942C99.1411 477.983 98.9406 477.131 98.5396 476.386C98.1385 475.641 97.5763 475.061 96.853 474.646C96.1369 474.223 95.3312 474.012 94.436 474.012C93.5265 474.012 92.7101 474.223 91.9868 474.646C91.2707 475.061 90.7085 475.641 90.3003 476.386C89.8921 477.131 89.688 477.99 89.688 478.964C89.688 479.916 89.8921 480.769 90.3003 481.521C90.7085 482.265 91.2707 482.845 91.9868 483.261C92.7101 483.676 93.5265 483.884 94.436 483.884C95.3312 483.884 96.1369 483.676 96.853 483.261C97.5763 482.845 98.1385 482.265 98.5396 481.521C98.9406 480.769 99.1411 479.909 99.1411 478.942ZM107.456 471.896H110.077L115.308 486H112.58L111.441 482.788H106.048L104.856 486H102.192L107.456 471.896ZM110.689 480.65L109.787 478.169C109.701 477.933 109.464 477.234 109.078 476.074L108.777 475.193C108.72 475.387 108.583 475.791 108.369 476.407C108.154 477.023 107.935 477.61 107.713 478.169L106.79 480.65H110.689ZM125.707 474.227H121.442V486H118.864V474.227H114.556V471.896H125.707V474.227ZM73.6821 500.896C75.1646 500.896 76.3283 501.314 77.1733 502.152C78.0256 502.99 78.4517 504.111 78.4517 505.515C78.4517 506.424 78.2583 507.23 77.8716 507.932C77.4849 508.626 76.9263 509.171 76.1958 509.564C75.4725 509.958 74.6203 510.155 73.6392 510.155H70.4702V515H67.8921V500.896H73.6821ZM73.1558 507.942C74.0223 507.942 74.6704 507.71 75.1001 507.244C75.5369 506.771 75.7554 506.181 75.7554 505.472C75.7554 504.827 75.5369 504.283 75.1001 503.839C74.6704 503.388 74.0438 503.162 73.2202 503.162H70.4702V507.942H73.1558ZM83.3716 500.896H85.9927L91.2241 515H88.4956L87.3569 511.788H81.9644L80.772 515H78.1079L83.3716 500.896ZM86.605 509.65L85.7026 507.169C85.6167 506.933 85.3804 506.234 84.9937 505.074L84.6929 504.193C84.6356 504.387 84.4995 504.791 84.2847 505.407C84.0698 506.023 83.8514 506.61 83.6294 507.169L82.7056 509.65H86.605ZM93.0288 515V500.896H95.6069V515H93.0288ZM110.098 500.896V515H107.681L101.193 505.343V515H98.6362V500.896H101.064L107.552 510.574V500.896H110.098Z" fill="#FF383D"/>
<path d="M89.9726 400.026C41.2003 400.026 1.6626 439.563 1.6626 488.338C1.6626 537.111 41.2003 576.648 89.9726 576.648V620.262" stroke="#FFD6D7" stroke-width="2.4" stroke-miterlimit="10"/>
<path d="M97.4327 622.545C97.4327 618.533 94.1821 615.283 90.1705 615.283C86.1615 615.283 82.9082 618.533 82.9082 622.545C82.9082 626.556 86.1615 629.807 90.1705 629.807C94.1821 629.807 97.4327 626.556 97.4327 622.545Z" fill="#F2AEB0"/>
<path d="M190.511 503.07H393.822C401.243 503.07 408.246 499.638 412.792 493.772L455.528 438.629C460.074 432.763 467.077 429.331 474.498 429.331H631.721" stroke="#FFB2B1" stroke-width="5" stroke-linejoin="round"/>
<path d="M200.761 503.586C200.761 508.622 196.678 512.704 191.642 512.704C186.606 512.704 182.524 508.622 182.524 503.586C182.524 498.55 186.606 494.468 191.642 494.468C196.678 494.468 200.761 498.55 200.761 503.586Z" fill="#FF383D"/>
<path opacity="0.13" d="M1160 700.366C1160 661.356 1128.38 629.732 1089.37 629.732C1050.36 629.732 1018.74 661.356 1018.74 700.366C1018.74 739.376 1050.36 771 1089.37 771C1128.38 771 1160 739.376 1160 700.366Z" fill="#FF383D"/>
<path d="M1045.72 683.902C1045.72 683.036 1045.92 682.28 1046.34 681.636C1046.76 680.991 1047.35 680.493 1048.11 680.143C1048.88 679.792 1049.76 679.616 1050.75 679.616C1051.74 679.616 1052.61 679.788 1053.38 680.132C1054.14 680.476 1054.74 680.963 1055.17 681.593C1055.6 682.223 1055.81 682.957 1055.81 683.795H1053.16C1053.15 683.193 1052.91 682.71 1052.44 682.345C1051.98 681.972 1051.38 681.786 1050.63 681.786C1049.94 681.786 1049.39 681.958 1048.97 682.302C1048.56 682.638 1048.36 683.075 1048.36 683.612C1048.36 684.142 1048.54 684.532 1048.9 684.783C1049.26 685.034 1049.74 685.231 1050.35 685.374L1052.66 685.943C1053.71 686.194 1054.56 686.656 1055.21 687.329C1055.86 687.995 1056.19 688.854 1056.19 689.907C1056.19 690.788 1055.97 691.558 1055.52 692.217C1055.09 692.876 1054.46 693.388 1053.65 693.753C1052.85 694.111 1051.92 694.29 1050.85 694.29C1049.27 694.29 1047.98 693.907 1046.98 693.141C1046 692.367 1045.46 691.318 1045.37 689.993H1048.03C1048.05 690.652 1048.33 691.171 1048.85 691.551C1049.38 691.923 1050.06 692.109 1050.89 692.109C1051.7 692.109 1052.34 691.937 1052.8 691.594C1053.25 691.25 1053.48 690.777 1053.48 690.176C1053.48 689.66 1053.32 689.27 1053 689.005C1052.68 688.74 1052.25 688.543 1051.73 688.414L1049.37 687.845C1048.21 687.565 1047.31 687.1 1046.67 686.448C1046.03 685.789 1045.72 684.941 1045.72 683.902ZM1058.53 679.895H1061.11V685.75L1067.36 685.771V679.895H1069.95V694H1067.36V687.995H1061.11V694H1058.53V679.895ZM1076.87 679.895H1079.49L1084.72 694H1081.99L1080.85 690.788H1075.46L1074.27 694H1071.6L1076.87 679.895ZM1080.1 688.65L1079.2 686.169C1079.11 685.933 1078.88 685.234 1078.49 684.074L1078.19 683.193C1078.13 683.387 1078 683.791 1077.78 684.407C1077.57 685.023 1077.35 685.61 1077.13 686.169L1076.2 688.65H1080.1ZM1093.22 685.965L1098.08 694H1094.98L1091.46 688.145L1089.13 691.035V694.043H1086.53V679.895H1089.13V687.071L1094.89 679.895H1098.11L1093.22 685.965ZM1099.95 694V679.895H1102.53V694H1099.95ZM1117.02 679.895V694H1114.61L1108.12 684.343V694H1105.56V679.895H1107.99L1114.48 689.574V679.895H1117.02ZM1133.62 686.341V687.684C1133.62 688.987 1133.32 690.14 1132.72 691.143C1132.12 692.138 1131.28 692.911 1130.2 693.463C1129.14 694.014 1127.92 694.29 1126.55 694.29C1125.13 694.29 1123.88 693.989 1122.8 693.388C1121.73 692.786 1120.89 691.941 1120.3 690.852C1119.7 689.757 1119.41 688.489 1119.41 687.05C1119.41 685.582 1119.71 684.289 1120.32 683.172C1120.93 682.047 1121.78 681.174 1122.88 680.551C1123.98 679.928 1125.24 679.616 1126.67 679.616C1127.82 679.616 1128.85 679.817 1129.78 680.218C1130.72 680.619 1131.5 681.185 1132.12 681.915C1132.73 682.638 1133.14 683.469 1133.33 684.407H1130.58C1130.3 683.648 1129.81 683.057 1129.1 682.635C1128.39 682.205 1127.55 681.99 1126.59 681.99C1125.2 681.99 1124.09 682.449 1123.29 683.365C1122.48 684.282 1122.07 685.496 1122.07 687.007C1122.07 688.518 1122.48 689.71 1123.3 690.584C1124.12 691.45 1125.23 691.884 1126.62 691.884C1127.78 691.884 1128.74 691.594 1129.49 691.014C1130.26 690.426 1130.72 689.603 1130.87 688.543H1126.4V686.341H1133.62ZM1062.97 723.29C1061.56 723.29 1060.3 722.986 1059.2 722.377C1058.1 721.768 1057.25 720.905 1056.63 719.788C1056.01 718.671 1055.71 717.389 1055.71 715.942C1055.71 714.503 1056.01 713.228 1056.62 712.118C1057.23 711.001 1058.08 710.138 1059.18 709.529C1060.28 708.921 1061.54 708.616 1062.97 708.616C1064.14 708.616 1065.22 708.817 1066.19 709.218C1067.16 709.619 1067.97 710.199 1068.61 710.958C1069.25 711.71 1069.65 712.584 1069.83 713.579H1066.96C1066.74 712.82 1066.27 712.2 1065.55 711.721C1064.82 711.234 1063.96 710.99 1062.95 710.99C1062.04 710.99 1061.24 711.194 1060.54 711.602C1059.85 712.011 1059.32 712.594 1058.95 713.353C1058.58 714.105 1058.39 714.976 1058.39 715.964C1058.39 716.959 1058.58 717.833 1058.96 718.585C1059.34 719.33 1059.87 719.899 1060.56 720.293C1061.26 720.687 1062.05 720.884 1062.95 720.884C1063.93 720.884 1064.78 720.647 1065.51 720.175C1066.25 719.695 1066.74 719.061 1066.96 718.273H1069.83C1069.67 719.254 1069.27 720.128 1068.64 720.894C1068.01 721.654 1067.21 722.244 1066.23 722.667C1065.26 723.082 1064.17 723.29 1062.97 723.29ZM1072.17 708.895H1074.75V714.75L1081 714.771V708.895H1083.59V723H1081V716.995H1074.75V723H1072.17V708.895ZM1086.63 723V708.895H1089.21V723H1086.63ZM1100.67 720.669V723H1092.24V708.895H1094.84V720.669H1100.67ZM1111.18 720.669V723H1102.75V708.895H1105.35V720.669H1111.18ZM1112.85 712.902C1112.85 712.036 1113.06 711.28 1113.48 710.636C1113.9 709.991 1114.49 709.493 1115.25 709.143C1116.02 708.792 1116.9 708.616 1117.89 708.616C1118.87 708.616 1119.75 708.788 1120.51 709.132C1121.28 709.476 1121.88 709.963 1122.31 710.593C1122.74 711.223 1122.95 711.957 1122.95 712.795H1120.3C1120.28 712.193 1120.05 711.71 1119.58 711.345C1119.12 710.972 1118.52 710.786 1117.76 710.786C1117.08 710.786 1116.53 710.958 1116.11 711.302C1115.7 711.638 1115.5 712.075 1115.5 712.612C1115.5 713.142 1115.68 713.532 1116.03 713.783C1116.4 714.034 1116.88 714.231 1117.48 714.374L1119.79 714.943C1120.85 715.194 1121.7 715.656 1122.35 716.329C1123 716.995 1123.33 717.854 1123.33 718.907C1123.33 719.788 1123.11 720.558 1122.66 721.217C1122.23 721.876 1121.6 722.388 1120.79 722.753C1119.99 723.111 1119.06 723.29 1117.99 723.29C1116.41 723.29 1115.12 722.907 1114.12 722.141C1113.13 721.367 1112.6 720.318 1112.51 718.993H1115.16C1115.19 719.652 1115.47 720.171 1115.99 720.551C1116.51 720.923 1117.19 721.109 1118.03 721.109C1118.84 721.109 1119.48 720.937 1119.93 720.594C1120.39 720.25 1120.62 719.777 1120.62 719.176C1120.62 718.66 1120.46 718.27 1120.14 718.005C1119.82 717.74 1119.39 717.543 1118.87 717.414L1116.51 716.845C1115.35 716.565 1114.45 716.1 1113.81 715.448C1113.17 714.789 1112.85 713.941 1112.85 712.902Z" fill="#FA5652"/>
<path d="M1089.87 613.801C1041.1 613.801 1001.56 653.339 1001.56 702.111C1001.56 750.886 1041.1 790.424 1089.87 790.424V834.035" stroke="#FFD6D7" stroke-width="2.4" stroke-miterlimit="10"/>
<path d="M1097.13 836.239C1097.13 832.227 1093.88 828.976 1089.86 828.976C1085.85 828.976 1082.6 832.227 1082.6 836.239C1082.6 840.248 1085.85 843.501 1089.86 843.501C1093.88 843.501 1097.13 840.248 1097.13 836.239Z" fill="#F2AEB0"/>
<path d="M725.738 754.401H816.846C824.124 754.401 831.009 751.098 835.565 745.421L861.096 713.605C865.651 707.929 872.536 704.626 879.814 704.626H973.995" stroke="#FFA6A6" stroke-width="5" stroke-linejoin="round"/>
<path d="M979.943 703.913C979.943 708.949 975.861 713.031 970.825 713.031C965.789 713.031 961.706 708.949 961.706 703.913C961.706 698.876 965.789 694.794 970.825 694.794C975.861 694.794 979.943 698.876 979.943 703.913Z" fill="#FF383D"/>
<path opacity="0.15" d="M1160 214.366C1160 175.356 1128.38 143.732 1089.37 143.732C1050.36 143.732 1018.74 175.356 1018.74 214.366C1018.74 253.376 1050.36 285 1089.37 285C1128.38 285 1160 253.376 1160 214.366Z" fill="#FF383D"/>
<path d="M1036.58 210.896H1039.16V216.75L1045.41 216.772V210.896H1048V225H1045.41V218.995H1039.16V225H1036.58V210.896ZM1053.62 213.248V216.772H1059.41V219.017H1053.62V222.648H1060.06V225H1051.04V210.896H1060.06V213.248H1053.62ZM1066.67 210.896H1069.29L1074.52 225H1071.79L1070.65 221.788H1065.26L1064.07 225H1061.41L1066.67 210.896ZM1069.9 219.65L1069 217.169C1068.91 216.933 1068.68 216.234 1068.29 215.074L1067.99 214.193C1067.93 214.387 1067.8 214.791 1067.58 215.407C1067.37 216.023 1067.15 216.61 1066.93 217.169L1066 219.65H1069.9ZM1081.57 210.896C1082.94 210.896 1084.17 211.196 1085.24 211.798C1086.32 212.399 1087.17 213.241 1087.77 214.322C1088.37 215.397 1088.67 216.618 1088.67 217.985C1088.67 219.346 1088.37 220.56 1087.78 221.627C1087.18 222.687 1086.35 223.514 1085.26 224.108C1084.19 224.703 1082.96 225 1081.57 225H1076.33V210.896H1081.57ZM1081.34 222.648C1082.27 222.648 1083.08 222.454 1083.77 222.067C1084.47 221.674 1085.01 221.126 1085.39 220.424C1085.77 219.722 1085.96 218.909 1085.96 217.985C1085.96 217.047 1085.77 216.224 1085.39 215.515C1085.01 214.799 1084.47 214.244 1083.77 213.85C1083.08 213.449 1082.27 213.248 1081.34 213.248H1078.9V222.648H1081.34ZM1094.26 210.896H1096.88L1102.11 225H1099.38L1098.24 221.788H1092.85L1091.66 225H1088.99L1094.26 210.896ZM1097.49 219.65L1096.59 217.169C1096.5 216.933 1096.26 216.234 1095.88 215.074L1095.58 214.193C1095.52 214.387 1095.38 214.791 1095.17 215.407C1094.95 216.023 1094.73 216.61 1094.51 217.169L1093.59 219.65H1097.49ZM1109.72 225.29C1108.31 225.29 1107.06 224.986 1105.95 224.377C1104.86 223.768 1104 222.905 1103.39 221.788C1102.77 220.671 1102.46 219.389 1102.46 217.942C1102.46 216.503 1102.77 215.228 1103.38 214.118C1103.98 213.001 1104.84 212.138 1105.93 211.529C1107.03 210.921 1108.3 210.616 1109.72 210.616C1110.9 210.616 1111.97 210.817 1112.95 211.218C1113.92 211.619 1114.73 212.199 1115.36 212.958C1116 213.71 1116.41 214.584 1116.59 215.579H1113.72C1113.5 214.82 1113.03 214.201 1112.3 213.721C1111.58 213.234 1110.71 212.99 1109.7 212.99C1108.79 212.99 1107.99 213.194 1107.3 213.603C1106.61 214.011 1106.08 214.594 1105.71 215.354C1105.33 216.106 1105.15 216.976 1105.15 217.964C1105.15 218.959 1105.34 219.833 1105.72 220.585C1106.1 221.33 1106.63 221.899 1107.32 222.293C1108.01 222.687 1108.81 222.884 1109.7 222.884C1110.68 222.884 1111.54 222.648 1112.27 222.175C1113.01 221.695 1113.49 221.061 1113.72 220.273H1116.59C1116.42 221.255 1116.03 222.128 1115.4 222.895C1114.77 223.654 1113.96 224.245 1112.99 224.667C1112.02 225.082 1110.93 225.29 1109.72 225.29ZM1118.93 210.896H1121.51V216.75L1127.76 216.772V210.896H1130.35V225H1127.76V218.995H1121.51V225H1118.93V210.896ZM1135.97 213.248V216.772H1141.76V219.017H1135.97V222.648H1142.41V225H1133.39V210.896H1142.41V213.248H1135.97Z" fill="#FF383D"/>
<path d="M1089.87 127.65C1041.1 127.65 1001.56 167.187 1001.56 215.96C1001.56 264.732 1041.1 304.272 1089.87 304.272V347.883" stroke="#FFD6D7" stroke-width="2.4" stroke-miterlimit="10"/>
<path d="M1097.13 350.087C1097.13 346.075 1093.88 342.825 1089.87 342.825C1085.86 342.825 1082.61 346.075 1082.61 350.087C1082.61 354.099 1085.86 357.349 1089.87 357.349C1093.88 357.349 1097.13 354.099 1097.13 350.087Z" fill="#F2AEB0"/>
<path d="M975.839 222.859H849.559C843.442 222.859 837.555 225.195 833.102 229.39L804.567 256.271C800.114 260.466 794.228 262.802 788.11 262.802H674.12" stroke="#FFB2B1" stroke-width="5" stroke-linejoin="round"/>
<path d="M979.941 222.146C979.941 227.182 975.859 231.264 970.822 231.264C965.786 231.264 961.704 227.182 961.704 222.146C961.704 217.11 965.786 213.027 970.822 213.027C975.859 213.027 979.941 217.11 979.941 222.146Z" fill="#FF383D"/>
<defs>
<filter id="filter0_d" x="26.5798" y="726.616" width="106.434" height="14.6738" filterUnits="userSpaceOnUse" color-interpolation-filters="sRGB">
<feFlood flood-opacity="0" result="BackgroundImageFix"/>
<feColorMatrix in="SourceAlpha" type="matrix" values="0 0 0 0 0 0 0 0 0 0 0 0 0 0 0 0 0 0 127 0"/>
<feOffset/>
<feColorMatrix type="matrix" values="0 0 0 0 0 0 0 0 0 0 0 0 0 0 0 0 0 0 0.1 0"/>
<feBlend mode="normal" in2="BackgroundImageFix" result="effect1_dropShadow"/>
<feBlend mode="normal" in="SourceGraphic" in2="effect1_dropShadow" result="shape"/>
</filter>
<linearGradient id="paint0_linear" x1="279.615" y1="651.802" x2="343.866" y2="780.175" gradientUnits="userSpaceOnUse">
<stop stop-color="#FFC8C8"/>
<stop offset="1" stop-color="#FFF2F5"/>
</linearGradient>
<linearGradient id="paint1_linear" x1="911.18" y1="248.499" x2="389.511" y2="38.2372" gradientUnits="userSpaceOnUse">
<stop stop-color="white"/>
<stop offset="1" stop-color="#FFD5D5"/>
</linearGradient>
<linearGradient id="paint2_linear" x1="843.946" y1="153.536" x2="682.873" y2="126.967" gradientUnits="userSpaceOnUse">
<stop stop-color="#FFD3D3"/>
<stop offset="1" stop-color="#FFF6F6"/>
</linearGradient>
<linearGradient id="paint3_linear" x1="205.431" y1="428.025" x2="962.765" y2="428.025" gradientUnits="userSpaceOnUse">
<stop stop-color="#FFF8F5"/>
<stop offset="1" stop-color="#FFDEDE"/>
</linearGradient>
<linearGradient id="paint4_linear" x1="893.009" y1="609.534" x2="694.623" y2="627.818" gradientUnits="userSpaceOnUse">
<stop stop-color="#FFC2C2"/>
<stop offset="1" stop-color="white"/>
</linearGradient>
</defs>
</svg>
