<svg width="574" height="567" viewBox="0 0 574 567" fill="none" xmlns="http://www.w3.org/2000/svg">
<path d="M218.05 539.51C187.478 550.342 156.61 555.347 123.685 549.091C86.9858 542.115 55.1545 510.709 37.1687 479.389C30.486 467.756 25.1658 454.757 25.861 441.362C27.4786 410.417 56.7129 406.959 81.5283 411.964C95.5168 414.779 108.361 421.186 121.06 427.532C142.142 438.074 166.873 443.259 185.774 457.872C192.116 462.79 196.879 468.698 204.249 472.275C215.714 477.845 228.8 480.475 240.575 485.544C250.628 489.893 261.866 497.048 261.88 507.997C261.882 519.227 250.167 526.382 239.873 530.853C232.587 534.038 225.333 536.942 218.05 539.51Z" fill="url(#paint0_linear)"/>
<path d="M105.522 140.359C155.603 66.5537 259.161 36.9196 343.103 64.6687C383.58 78.0564 417.502 105.933 448.79 134.872C476.37 160.378 503.126 187.888 521.96 220.677C534.82 243.058 544.025 269.887 550.524 294.933C560.242 332.436 551.417 380.757 502.938 377.217C491.564 376.387 481.724 372.297 471.086 368.719C462.481 365.818 454.049 367.558 445.115 366.141C422.628 362.58 400.965 354.301 380.48 344.604C338.733 324.824 300.588 297.95 257.654 280.616C222.47 266.429 184.896 259.105 146.96 259.037C130.955 259.011 114.127 260.131 99.8101 252.975C64.5236 235.32 80.3916 187.715 93.57 160.935C97.0613 153.802 101.055 146.926 105.522 140.359Z" fill="url(#paint1_linear)"/>
<path d="M498.186 151.498C506.43 158.966 538.825 179.352 539.448 155.428C539.596 149.469 536.893 143.682 533.214 139.317C529.005 134.308 524.233 131.68 520.946 125.843C516.924 118.796 512.346 112.173 507.271 106.059C496.897 93.3341 484.785 81.5767 470.088 76.3382C459.78 72.6683 442.328 73.5912 437.432 86.8022C430.298 106.034 460.8 109.558 470.102 116.566C478.93 123.2 483.93 134.599 490.923 143.658C493.133 146.515 495.564 149.139 498.186 151.498Z" fill="url(#paint2_linear)"/>
<path d="M345.721 128.107C363.185 138.389 376.285 153.78 392.208 166.175C418.717 186.808 455.053 191.029 485.453 205.378C516.45 220.018 539.857 242.771 550.44 275.564C564.111 317.891 565.411 368.228 553.795 411.744C541.003 459.643 510.963 491.461 467.041 512.68C423.144 533.887 374.516 543.783 326.016 545.825C321.335 546.026 316.663 546.134 311.972 546.164C206.609 546.776 66.3645 509.689 30.4928 396.503C30.164 395.469 29.8489 394.435 29.5328 393.386C25.8366 380.776 23.6632 367.768 23.0593 354.642C20.803 308.105 28.9478 256.74 45.2631 213.115C56.2366 183.744 79.8663 158.91 104.766 141.216C139.749 116.357 182.434 110.012 224.918 107.03C256.377 104.823 291.759 104.016 321.508 116.049C329.869 119.458 337.963 123.488 345.721 128.107Z" fill="url(#paint3_linear)"/>
<path d="M419.102 536.123C284.051 575.391 171.509 537.525 132.119 513.684L95.5426 485.635L108.204 464.598L186.983 457.586L317.814 450.574L423.323 471.611L533.051 435.147H544.306C527.424 492.367 453.803 526.306 419.102 536.123Z" fill="#FB4C47"/>
<path d="M125.601 504.644H458.958C458.958 504.644 470.63 312.974 428.16 284.927C385.696 256.886 196.28 266.496 154.917 294.78C50.0283 366.495 125.601 504.644 125.601 504.644Z" fill="#FB4C47"/>
<path d="M181.098 244.542C180.617 244.542 180.13 244.386 179.731 244.05C178.81 243.303 157.436 225.312 169.131 189.051C173.214 176.372 177.217 167.399 180.75 159.47C187.116 145.203 191.715 134.887 192.584 112.841C192.63 111.642 193.65 110.744 194.843 110.75C196.042 110.802 196.975 111.81 196.928 113.009C196.025 135.889 191.037 147.08 184.718 161.242C181.231 169.068 177.28 177.936 173.255 190.384C162.516 223.713 181.665 240.013 182.482 240.69C183.403 241.455 183.542 242.822 182.777 243.743C182.349 244.27 181.723 244.542 181.098 244.542Z" fill="#000C3E"/>
<path d="M299.432 28.286C298.87 43.3346 286.214 55.07 271.165 54.5081C256.122 53.9462 244.381 41.2899 244.943 26.2471C245.511 11.1985 258.161 -0.542625 273.21 0.0192344C288.253 0.586887 299.994 13.2374 299.432 28.286Z" fill="#000C3E"/>
<path d="M178.659 233.954C178.659 233.954 186.658 250.45 219.316 256.249C251.979 262.053 277.61 250.236 302.824 259.382C328.039 268.523 364.467 256.608 371.69 246.013C378.907 235.419 377.395 118.095 357.516 98.418C337.631 78.7471 233.461 62.3257 210.888 85.3446C188.315 108.369 164.34 220.741 178.659 233.954Z" fill="#000C3E"/>
<path d="M367.233 141.39C365.374 190.973 323.675 229.666 274.092 227.807C224.509 225.948 185.816 184.248 187.676 134.66C189.535 85.077 231.234 46.3897 280.817 48.2491C330.4 50.1027 369.093 91.8078 367.233 141.39Z" fill="#000C3E"/>
<path d="M314.307 216.508C314.307 216.508 320.14 286.474 314.307 294.247C308.474 302.02 271.547 296.193 261.834 294.247C252.114 292.307 248.227 216.508 254.055 216.508C259.887 216.508 313.189 200.909 314.307 216.508Z" fill="#FFCEB0"/>
<path d="M204.101 134.656C204.101 134.656 207.797 243.709 281.522 248.418C355.253 253.122 355.178 99.4732 328.498 84.859C301.813 70.2448 190.472 72.9846 204.101 134.656Z" fill="#FFCEB0"/>
<path d="M279.803 157.999C279.803 157.999 293.885 191.566 290.259 193.79C286.638 196.015 276.032 195.615 273.177 193.147C270.321 190.68 274.046 154.246 279.803 157.999Z" fill="#EE9B68"/>
<path d="M262.153 76.4997C262.153 76.4997 235.717 89.2835 230.689 113.281C225.655 137.285 228.262 198.736 200.25 195.915C200.25 195.915 146.016 74.2986 262.153 76.4997Z" fill="#000C3E"/>
<path d="M276.088 77.0207C273.69 78.741 303.347 78.6657 320.301 99.2228C337.261 119.774 341.287 171.147 343.905 172.097C346.529 173.052 357.002 108.444 338.408 89.034C319.82 69.6238 289.735 67.2489 276.088 77.0207Z" fill="#000C3E"/>
<path d="M255.081 238.473C255.081 238.473 283.77 254.784 313.549 239.538C313.549 239.538 315.866 257.848 313.549 262.071C311.232 266.293 264.059 269.311 254.774 248.499C254.774 248.499 252.399 237.569 255.081 238.473Z" fill="#EE9B68"/>
<path d="M337.545 176.478C337.545 176.478 344.606 149.179 356.915 158.893C369.229 168.612 358.091 197.14 345.921 199.729C333.751 202.318 330.82 190.554 337.545 176.478Z" fill="#FFCEB0"/>
<path d="M221.264 172.121C221.264 172.121 216.265 144.37 203.261 153.14C190.257 161.904 199.23 191.19 211.174 194.683C223.118 198.17 226.912 186.66 221.264 172.121Z" fill="#FFCEB0"/>
<path d="M307.148 142.656C307.148 142.656 319.387 134.443 328.417 143.421C336.359 151.316 319.578 146.016 313.798 147.759C308.011 149.503 300.162 149.845 307.148 142.656Z" fill="#41294A"/>
<path d="M256.13 144.597C256.13 144.597 244.401 135.671 234.855 144.105C226.462 151.513 243.52 147.216 249.191 149.301C254.862 151.386 262.681 152.185 256.13 144.597Z" fill="#41294A"/>
<path d="M250.222 153.703C238.835 153.703 229.578 162.629 229.144 174.028C228.709 185.659 237.821 195.477 249.452 195.906L250.263 195.923C261.651 195.923 270.907 186.997 271.341 175.604C271.776 163.967 262.659 154.149 251.033 153.72L250.222 153.703ZM250.263 198.819L249.342 198.802C236.112 198.31 225.755 187.142 226.248 173.912C226.74 160.961 237.271 150.806 250.222 150.806L251.143 150.824C264.367 151.316 274.724 162.484 274.238 175.719C273.745 188.671 263.215 198.819 250.263 198.819Z" fill="#FFFCF6"/>
<path d="M310.124 150.338C298.731 150.338 289.474 159.264 289.046 170.663C288.831 176.293 290.83 181.674 294.664 185.804C298.499 189.94 303.718 192.332 309.354 192.541L310.165 192.558C321.552 192.558 330.809 183.632 331.243 172.233C331.452 166.603 329.453 161.221 325.619 157.086C321.784 152.956 316.571 150.563 310.935 150.355L310.124 150.338ZM310.165 195.454L309.244 195.437C302.837 195.199 296.906 192.477 292.544 187.779C288.183 183.076 285.906 176.959 286.15 170.547C286.636 157.595 297.167 147.441 310.124 147.441L311.045 147.459C317.451 147.696 323.383 150.419 327.745 155.116C332.106 159.82 334.377 165.936 334.139 172.349C333.647 185.3 323.116 195.454 310.165 195.454Z" fill="#FFFCF6"/>
<path d="M228.406 170.605C228.232 170.605 228.046 170.571 227.873 170.501L219.097 167.037C218.35 166.742 217.985 165.902 218.28 165.161C218.576 164.413 219.404 164.054 220.157 164.344L228.938 167.813C229.686 168.103 230.045 168.949 229.749 169.69C229.523 170.258 228.985 170.605 228.406 170.605Z" fill="#FFFCF6"/>
<path d="M331.856 166.774C331.231 166.774 330.646 166.363 330.466 165.72C330.246 164.956 330.692 164.156 331.462 163.936L343.661 160.443C344.443 160.229 345.237 160.669 345.451 161.44C345.671 162.21 345.225 163.009 344.455 163.229L332.25 166.716C332.123 166.757 331.984 166.774 331.856 166.774Z" fill="#FFFCF6"/>
<path d="M271.094 70.773C271.094 70.773 274.419 129.884 290.713 135.248C307.007 140.617 347.067 139.146 349.002 132.682C350.936 126.212 317.937 74.1847 294.258 65.8437C252.733 51.2122 216.889 118.728 221.627 134.993C226.366 151.264 262.047 137.026 269.658 134.935C277.275 132.844 269.571 82.4562 271.094 70.773Z" fill="#000C3E"/>
<path d="M272.797 175.837C272.044 175.837 271.412 175.257 271.355 174.504C271.291 173.705 271.887 173.01 272.681 172.946L287.544 171.788C288.436 171.649 289.039 172.326 289.097 173.114C289.16 173.914 288.569 174.609 287.77 174.672L272.913 175.831C272.872 175.837 272.832 175.837 272.797 175.837Z" fill="#FFFCF6"/>
<path d="M255.162 54.5476C254.82 54.5476 254.484 54.4665 254.166 54.3043C246.195 50.1917 241.44 44.4573 240.038 37.2632C236.962 21.4732 251.304 4.54783 251.918 3.83537C252.7 2.91439 254.067 2.81012 254.982 3.60368C255.892 4.38565 255.996 5.75265 255.214 6.66205C255.075 6.82424 241.625 22.7243 244.307 36.4406C245.442 42.262 249.433 46.9712 256.158 50.4466C257.224 50.9969 257.641 52.306 257.091 53.3718C256.708 54.119 255.95 54.5476 255.162 54.5476Z" fill="#000C3E"/>
<path d="M286.601 59.4011C285.987 59.4011 285.367 59.1347 284.939 58.6192C284.168 57.704 284.29 56.337 285.211 55.5666C285.367 55.4276 301.256 41.9487 300.862 27.9775C300.7 22.0519 297.537 16.7519 291.473 12.2222C290.511 11.504 290.314 10.1428 291.032 9.18124C291.756 8.21392 293.106 8.02856 294.073 8.74102C301.256 14.1105 305.009 20.5459 305.206 27.8732C305.647 43.9529 288.715 58.2948 287.991 58.8972C287.586 59.2389 287.094 59.4011 286.601 59.4011Z" fill="#000C3E"/>
<path d="M364.459 242.71C363.81 242.71 363.167 242.42 362.738 241.87C362.003 240.92 362.171 239.559 363.121 238.823C363.868 238.238 381.453 224.209 376.854 200.576C375.053 191.32 371.751 181.073 368.247 170.224C362.147 151.323 355.84 131.774 355.73 112.903C355.724 111.704 356.691 110.725 357.89 110.719H357.902C359.095 110.719 360.068 111.686 360.074 112.879C360.178 131.079 366.382 150.304 372.377 168.892C375.922 179.868 379.27 190.231 381.117 199.748C386.238 226.057 366.619 241.609 365.785 242.258C365.385 242.565 364.922 242.71 364.459 242.71Z" fill="#000C3E"/>
<path d="M371.7 143.634C371.613 143.634 371.527 143.628 371.434 143.616C370.246 143.471 369.401 142.388 369.546 141.195C372.476 117.33 367.929 97.8044 356.02 83.1613C336.836 59.5689 304.688 56.6322 304.364 56.6148C303.171 56.5106 302.284 55.4621 302.377 54.2631C302.481 53.0757 303.53 52.1779 304.723 52.2821C306.113 52.3922 338.991 55.3637 359.363 80.3867C372.059 95.9798 376.937 116.624 373.855 141.728C373.722 142.823 372.783 143.634 371.7 143.634Z" fill="#000C3E"/>
<path d="M283.213 228.392C279.141 228.392 275.996 227.1 275.793 227.019C274.687 226.556 274.171 225.287 274.634 224.181C275.092 223.075 276.384 222.577 277.467 223.005C277.525 223.028 283.45 225.432 288.617 222.855C289.677 222.327 290.998 222.75 291.531 223.833C292.058 224.905 291.623 226.208 290.552 226.747C288.055 227.992 285.489 228.392 283.213 228.392Z" fill="#EE9B68"/>
<path d="M213.758 187.897C213.55 187.897 213.335 187.868 213.127 187.799C211.974 187.451 211.331 186.241 211.684 185.094C215.635 172.113 206.176 163.494 206.083 163.407C205.191 162.614 205.11 161.235 205.909 160.337C206.703 159.439 208.07 159.358 208.979 160.163C209.454 160.586 220.593 170.752 215.832 186.356C215.554 187.295 214.691 187.897 213.758 187.897Z" fill="#EE9B68"/>
<path d="M342.56 194.261C342.496 194.261 342.438 194.261 342.369 194.255C341.176 194.145 340.289 193.097 340.394 191.898C341.824 175.615 349.905 167.031 350.247 166.672C351.081 165.815 352.442 165.791 353.311 166.614C354.18 167.437 354.209 168.809 353.386 169.678C353.311 169.759 346.012 177.608 344.726 192.28C344.622 193.41 343.672 194.261 342.56 194.261Z" fill="#EE9B68"/>
<path d="M215.996 291.175C215.996 291.175 265.318 350.142 303.356 334.363C341.389 318.585 377.024 275.814 357.903 270.137C338.783 264.467 186.096 267.45 215.996 291.175Z" fill="#FFCEB0"/>
<path d="M348.352 211.727C348.352 211.727 363.232 319.569 349.319 331.757C335.412 343.944 317.82 333.274 294.211 341.355C270.601 349.429 269.79 316.644 271.412 299.823C273.034 283.002 280.732 176.162 348.352 211.727Z" fill="white"/>
<path d="M84.5052 378.639L55.3174 464.817L268.025 536.863C268.025 536.863 300.561 454.275 296.466 452.891C292.376 451.501 84.5052 378.639 84.5052 378.639Z" fill="#128E5A"/>
<path d="M126.543 482.883C126.543 482.883 162.913 457.756 161.639 464.145C160.371 470.54 146.301 482.883 146.301 482.883C146.301 482.883 171.851 463.108 173.519 472.995C175.187 482.883 166.221 492.267 166.221 492.267C166.221 492.267 184.195 477.942 187.097 485.351C189.999 492.759 166.806 525.527 146.301 524.577C125.802 523.627 116.517 489.579 126.543 482.883Z" fill="#FFC6A6"/>
<path d="M139.998 434.436L219.632 466.874C219.632 466.874 233.493 424.728 230.886 419.857C228.274 414.98 199.567 413.167 191.695 405.428C183.829 397.695 186.667 388.242 173.519 389.881C160.37 391.521 139.998 434.436 139.998 434.436Z" fill="white"/>
<path d="M285.145 221.294C284.902 221.294 284.647 221.254 284.404 221.167C278.119 218.89 275.003 216.087 274.887 212.6C274.702 207.033 282.672 203.245 284.271 202.539C285.377 202.064 286.651 202.55 287.132 203.651C287.619 204.751 287.121 206.031 286.02 206.512C283.13 207.792 279.168 210.567 279.231 212.455C279.249 212.976 279.782 214.871 285.887 217.077C287.011 217.489 287.596 218.734 287.19 219.864C286.866 220.744 286.032 221.294 285.145 221.294Z" fill="#EE9B68"/>
<path d="M258.978 179.819C258.462 179.819 257.953 179.64 257.541 179.275C248.447 171.247 242.07 173.396 241.809 173.483C240.715 173.876 239.44 173.32 239.029 172.208C238.606 171.09 239.151 169.857 240.263 169.422C240.616 169.283 249.183 166.097 260.414 176.02C261.312 176.813 261.399 178.186 260.606 179.084C260.177 179.57 259.58 179.819 258.978 179.819Z" fill="#41294A"/>
<path d="M303.62 180.312C303.017 180.312 302.421 180.063 301.992 179.576C301.199 178.678 301.286 177.306 302.183 176.512C313.392 166.607 321.976 169.77 322.329 169.915C323.453 170.349 324.009 171.612 323.569 172.724C323.14 173.842 321.883 174.404 320.783 173.969C320.464 173.859 314.098 171.78 305.056 179.767C304.645 180.132 304.135 180.312 303.62 180.312Z" fill="#41294A"/>
<path d="M444.564 472.554C444.564 472.554 471.26 506.529 512.514 482.261C556.127 445.438 565.902 397.325 548.04 360.886C525.05 322.235 468.253 279.556 453.718 279.628C439.176 279.706 388.49 417.674 444.564 472.554Z" fill="#D9423D"/>
<path d="M391.791 223.92C391.791 223.92 335.373 199.772 314.521 205.367C293.668 210.962 334.145 216.274 342.393 220.271C350.642 224.262 312.169 217.658 307.355 220.711C302.548 223.758 342.335 235.036 342.335 235.036C342.335 235.036 307.066 234.005 304.662 239.345C302.258 244.686 337.128 250.733 337.128 250.733C337.128 250.733 310.559 255.147 311.288 260.823C312.012 266.494 361.039 264.727 377.061 285.024C393.077 305.326 415.794 416.007 483.061 405.858C550.322 395.71 549.685 354.248 501.174 301.028C452.663 247.814 411.357 233.263 391.791 223.92Z" fill="#FFC6A6"/>
<path d="M282.332 8.62869C281.679 8.62869 280.969 8.70456 280.201 8.85629C278.327 9.23231 277.114 10.1427 276.385 11.7226C273.136 18.7549 279.986 35.5045 284.881 45.3999C287.906 34.4226 291.531 16.0733 286.409 10.2911C285.422 9.17953 284.08 8.62869 282.332 8.62869ZM285.452 53.6592C284.637 53.6592 283.875 53.2205 283.473 52.4948C281.741 49.391 266.727 21.8258 272.268 9.82273C273.601 6.93658 276.038 5.06306 279.314 4.40997C284.895 3.29839 288.101 5.35992 289.803 7.28292C298.702 17.33 288.77 48.573 287.609 52.1023C287.326 52.9566 286.567 53.5635 285.67 53.6493C285.597 53.6559 285.525 53.6592 285.452 53.6592Z" fill="#FFD310"/>
<path d="M312.897 19.7826C312.683 19.7826 312.465 19.7958 312.247 19.8288C304.585 20.848 295.326 37.0995 290.431 47.3808C300.607 43.0961 316.746 34.9126 318.89 27.4713C319.372 25.7957 319.049 24.3147 317.878 22.804C316.301 20.7754 314.668 19.7826 312.897 19.7826ZM286.081 53.8029C285.47 53.8029 284.873 53.5588 284.441 53.1036C283.818 52.4505 283.64 51.4939 283.986 50.6627C285.418 47.2356 298.341 17.1076 311.647 15.333C314.197 14.9933 317.967 15.5276 321.457 20.0201C323.508 22.6589 324.128 25.6703 323.248 28.7247C319.586 41.4271 290.194 52.4505 286.856 53.6676C286.602 53.76 286.341 53.8029 286.081 53.8029Z" fill="#FFD310"/>
<path d="M243.511 45.7941C254.526 52.8748 279.702 58.382 299.37 45.7941" stroke="#FFD310" stroke-width="4.87"/>
<defs>
<linearGradient id="paint0_linear" x1="23.1473" y1="445.633" x2="54.866" y2="555.768" gradientUnits="userSpaceOnUse">
<stop stop-color="#FFCBCB"/>
<stop offset="1" stop-color="#FFF1F1"/>
</linearGradient>
<linearGradient id="paint1_linear" x1="494.5" y1="186" x2="166.305" y2="33.7738" gradientUnits="userSpaceOnUse">
<stop stop-color="white"/>
<stop offset="1" stop-color="#FFDDDD"/>
</linearGradient>
<linearGradient id="paint2_linear" x1="540.289" y1="155.009" x2="447.14" y2="85.1444" gradientUnits="userSpaceOnUse">
<stop stop-color="#FFDDDD"/>
<stop offset="1" stop-color="#FFFBFC"/>
</linearGradient>
<linearGradient id="paint3_linear" x1="512.798" y1="498.071" x2="23.1593" y2="214.523" gradientUnits="userSpaceOnUse">
<stop stop-color="#FFE6E6"/>
<stop offset="1" stop-color="#FFF5F5"/>
</linearGradient>
</defs>
</svg>
