<svg width="565" height="585" viewBox="0 0 565 585" fill="none" xmlns="http://www.w3.org/2000/svg">
<path d="M214.42 557.802C184.293 568.477 153.873 573.409 121.426 567.244C85.2602 560.37 53.8911 529.42 36.1666 498.555C29.5809 487.09 24.338 474.28 25.0231 461.08C26.6172 430.584 55.4269 427.176 79.8819 432.109C93.6672 434.883 106.325 441.197 118.839 447.45C139.616 457.84 163.987 462.949 182.613 477.35C188.864 482.196 193.558 488.018 200.82 491.544C212.118 497.033 225.014 499.624 236.618 504.62C246.526 508.906 257.6 515.957 257.615 526.747C257.616 537.813 246.071 544.865 235.927 549.271C228.746 552.409 221.598 555.271 214.42 557.802Z" fill="url(#paint0_linear)"/>
<path d="M103.525 164.448C152.879 91.7149 254.933 62.5113 337.655 89.8573C377.544 103.051 410.974 130.523 441.808 159.041C468.987 184.176 495.354 211.287 513.915 243.6C526.588 265.656 535.659 292.095 542.064 316.777C551.641 353.735 542.944 401.355 495.169 397.866C483.96 397.048 474.263 393.018 463.78 389.491C455.3 386.633 446.99 388.347 438.186 386.951C416.026 383.442 394.677 375.283 374.49 365.727C333.349 346.234 295.758 319.75 253.448 302.668C218.775 288.687 181.747 281.469 144.361 281.403C128.589 281.377 112.005 282.481 97.8963 275.429C63.1223 258.03 78.7598 211.116 91.7468 184.725C95.1875 177.696 99.1234 170.919 103.525 164.448Z" fill="url(#paint1_linear)"/>
<path d="M490.489 175.426C498.614 182.785 530.538 202.875 531.152 179.3C531.297 173.426 528.634 167.724 525.008 163.422C520.86 158.485 516.158 155.896 512.919 150.144C508.955 143.199 504.444 136.672 499.443 130.647C489.219 118.107 477.283 106.52 462.8 101.358C452.641 97.7415 435.443 98.651 430.617 111.67C423.587 130.622 453.646 134.095 462.813 141.002C471.513 147.539 476.44 158.773 483.332 167.7C485.51 170.515 487.906 173.102 490.489 175.426Z" fill="url(#paint2_linear)"/>
<path d="M340.238 152.375C357.448 162.507 370.359 177.674 386.05 189.889C412.174 210.223 447.982 214.383 477.94 228.524C508.488 242.951 531.554 265.373 541.984 297.69C555.457 339.402 556.737 389.008 545.29 431.892C532.684 479.096 503.08 510.452 459.796 531.362C416.537 552.261 368.615 562.013 320.819 564.025C316.207 564.223 311.602 564.33 306.979 564.36C203.147 564.963 64.9392 528.415 29.5885 416.872C29.2645 415.853 28.954 414.834 28.6425 413.801C24.9999 401.374 22.8582 388.555 22.263 375.619C20.0395 329.759 28.066 279.14 44.1443 236.148C54.9585 207.204 78.245 182.731 102.783 165.293C137.258 140.795 179.323 134.543 221.19 131.604C252.192 129.428 287.06 128.634 316.377 140.492C324.617 143.851 332.593 147.823 340.238 152.375Z" fill="url(#paint3_linear)"/>
<path d="M412.553 554.465C279.463 593.163 168.555 555.847 129.738 532.352L93.6926 504.71L106.17 483.979L183.805 477.069L312.736 470.159L416.712 490.89L524.847 454.956H535.938C519.302 511.344 446.749 544.79 412.553 554.465Z" fill="#FB4C47"/>
<path d="M138.119 479.7H454.999C454.999 479.7 466.094 297.505 425.723 270.844C385.358 244.189 196.577 249.756 154.736 272.523C112.896 295.297 138.119 479.7 138.119 479.7Z" fill="#FB4C47"/>
<path d="M190.878 232.455C190.415 232.455 189.953 232.306 189.573 231.987C188.697 231.277 168.38 214.175 179.502 179.707C183.384 167.654 187.189 159.12 190.547 151.582C196.598 138.015 200.97 128.214 201.796 107.264C201.846 106.124 202.732 105.27 203.944 105.276C205.083 105.325 205.97 106.283 205.926 107.423C205.061 129.172 200.326 139.804 194.324 153.261C191.004 160.705 187.249 169.135 183.422 180.973C173.165 212.787 191.99 228.639 192.183 228.794C193.064 229.515 193.201 230.814 192.474 231.695C192.067 232.196 191.472 232.455 190.878 232.455Z" fill="#000C3E"/>
<path d="M303.359 26.888C302.825 41.1928 290.794 52.3481 276.489 51.814C262.19 51.2799 251.029 39.2491 251.563 24.9499C252.103 10.6451 264.128 -0.515719 278.433 0.0183696C292.732 0.557966 303.893 12.5832 303.359 26.888Z" fill="#000C3E"/>
<path d="M188.556 222.389C188.556 222.389 196.16 238.07 227.203 243.582C258.252 249.099 282.616 237.866 306.584 246.56C330.552 255.249 365.18 243.923 372.046 233.852C378.907 223.782 377.469 112.256 358.573 93.5521C339.67 74.8535 240.649 59.2438 219.192 81.1249C197.735 103.012 174.945 209.829 188.556 222.389Z" fill="#000C3E"/>
<path d="M367.807 134.4C366.04 181.532 326.402 218.312 279.27 216.545C232.138 214.778 195.357 175.139 197.125 128.002C198.892 80.8699 238.53 44.0948 285.662 45.8623C332.794 47.6242 369.575 87.2679 367.807 134.4Z" fill="#000C3E"/>
<path d="M317.497 205.807C317.497 205.807 323.041 272.315 317.497 279.704C311.952 287.093 276.851 281.554 267.617 279.704C258.378 277.859 254.683 205.807 260.222 205.807C265.767 205.807 316.434 190.979 317.497 205.807Z" fill="#FFCEB0"/>
<path d="M212.738 128C212.738 128 216.251 231.663 286.332 236.139C356.419 240.61 356.348 94.5561 330.987 80.6642C305.62 66.7724 199.782 69.3768 212.738 128Z" fill="#FFCEB0"/>
<path d="M284.697 150.19C284.697 150.19 298.082 182.098 294.636 184.212C291.194 186.326 281.113 185.946 278.398 183.601C275.684 181.255 279.224 146.622 284.697 150.19Z" fill="#EE9B68"/>
<path d="M263.709 171.497C263.533 175.131 260.444 177.928 256.81 177.752C253.182 177.576 250.379 174.487 250.555 170.853C250.732 167.224 253.821 164.421 257.455 164.598C261.083 164.774 263.886 167.863 263.709 171.497Z" fill="#41294A"/>
<path d="M320.244 168.396C320.068 172.03 316.979 174.827 313.345 174.651C309.716 174.475 306.914 171.386 307.09 167.752C307.266 164.123 310.355 161.321 313.989 161.497C317.618 161.673 320.42 164.762 320.244 168.396Z" fill="#41294A"/>
<path d="M267.922 72.7163C267.922 72.7163 242.792 84.8682 238.013 107.68C233.228 130.497 235.706 188.911 209.078 186.229C209.078 186.229 157.525 70.624 267.922 72.7163Z" fill="#000C3E"/>
<path d="M281.167 73.2132C278.887 74.8485 307.078 74.777 323.195 94.318C339.316 113.854 343.143 162.687 345.632 163.59C348.126 164.498 358.081 103.084 340.407 84.6328C322.738 66.182 294.139 63.9245 281.167 73.2132Z" fill="#000C3E"/>
<path d="M261.198 226.685C261.198 226.685 288.464 242.191 316.776 227.699C316.776 227.699 318.978 245.103 316.776 249.117C314.573 253.131 269.732 256 260.906 236.216C260.906 236.216 258.648 225.827 261.198 226.685Z" fill="#EE9B68"/>
<path d="M339.59 167.755C339.59 167.755 346.302 141.805 358.002 151.039C369.708 160.278 359.12 187.396 347.552 189.857C335.984 192.318 333.198 181.135 339.59 167.755Z" fill="#FFCEB0"/>
<path d="M229.053 163.613C229.053 163.613 224.301 137.233 211.94 145.569C199.579 153.9 208.108 181.739 219.461 185.059C230.815 188.373 234.421 177.433 229.053 163.613Z" fill="#FFCEB0"/>
<path d="M311.035 134.317C311.035 134.317 323.578 128.073 330.989 137.648C337.508 146.061 322.345 139.008 316.673 139.944C311.008 140.88 303.569 140.236 311.035 134.317Z" fill="#41294A"/>
<path d="M261.743 135.525C261.743 135.525 249.179 129.325 241.8 138.927C235.314 147.363 250.45 140.254 256.122 141.168C261.793 142.088 269.232 141.416 261.743 135.525Z" fill="#41294A"/>
<path d="M256.578 146.103C245.753 146.103 236.955 154.588 236.542 165.424C236.344 170.776 238.243 175.891 241.888 179.823C245.533 183.749 250.489 186.023 255.846 186.221L256.617 186.237C267.447 186.237 276.246 177.752 276.654 166.922C276.857 161.57 274.958 156.449 271.313 152.524C267.668 148.592 262.707 146.318 257.349 146.12L256.578 146.103ZM256.617 188.99L255.741 188.974C249.652 188.748 244.014 186.16 239.867 181.695C235.721 177.224 233.563 171.409 233.789 165.314C234.257 153.003 244.267 143.35 256.578 143.35L257.454 143.367C263.544 143.593 269.182 146.181 273.328 150.646C277.474 155.122 279.632 160.931 279.407 167.032C278.944 179.344 268.934 188.99 256.617 188.99Z" fill="#FFFCF6"/>
<path d="M313.522 142.906C302.698 142.906 293.899 151.391 293.486 162.227C293.073 173.283 301.734 182.616 312.79 183.023L313.561 183.04C324.386 183.04 333.185 174.555 333.598 163.719C333.796 158.367 331.896 153.252 328.251 149.321C324.606 145.395 319.651 143.121 314.293 142.923L313.522 142.906ZM313.561 185.793L312.686 185.776C300.11 185.308 290.265 174.693 290.733 162.117C291.201 149.805 301.211 140.153 313.522 140.153L314.398 140.169C320.488 140.395 326.126 142.983 330.272 147.448C334.418 151.919 336.576 157.734 336.351 163.829C335.883 176.141 325.873 185.793 313.561 185.793Z" fill="#FFFCF6"/>
<path d="M235.84 162.172C235.675 162.172 235.499 162.139 235.334 162.073L226.992 158.78C226.282 158.499 225.935 157.701 226.216 156.996C226.496 156.286 227.284 155.945 228 156.22L236.347 159.518C237.057 159.793 237.398 160.597 237.118 161.302C236.903 161.842 236.391 162.172 235.84 162.172Z" fill="#FFFCF6"/>
<path d="M334.183 158.53C333.588 158.53 333.032 158.139 332.861 157.528C332.652 156.801 333.076 156.042 333.808 155.832L345.404 152.512C346.147 152.308 346.902 152.727 347.105 153.459C347.315 154.191 346.891 154.951 346.158 155.161L334.557 158.475C334.436 158.514 334.304 158.53 334.183 158.53Z" fill="#FFFCF6"/>
<path d="M276.423 67.275C276.423 67.275 279.584 123.464 295.072 128.563C310.561 133.667 348.641 132.269 350.48 126.124C352.319 119.974 320.951 70.518 298.442 62.5893C258.969 48.681 224.897 112.86 229.401 128.321C233.905 143.787 267.823 130.253 275.058 128.266C282.298 126.278 274.975 78.3807 276.423 67.275Z" fill="#000C3E"/>
<path d="M278.038 167.145C277.322 167.145 276.722 166.595 276.667 165.879C276.607 165.119 277.174 164.458 277.928 164.398L292.057 163.297C292.883 163.164 293.483 163.809 293.532 164.557C293.593 165.317 293.031 165.978 292.271 166.039L278.148 167.14C278.11 167.145 278.071 167.145 278.038 167.145Z" fill="#FFFCF6"/>
<path d="M261.274 51.8511C260.95 51.8511 260.63 51.7741 260.327 51.6199C252.751 47.7106 248.231 42.2596 246.898 35.421C243.974 20.4115 257.607 4.32273 258.191 3.64549C258.94 2.77002 260.234 2.67091 261.104 3.42524C261.968 4.16856 262.067 5.46799 261.324 6.33245C261.192 6.48662 248.407 21.6008 250.956 34.6392C252.035 40.1728 255.829 44.6492 262.221 47.9528C263.235 48.4759 263.631 49.7203 263.108 50.7334C262.745 51.4437 262.023 51.8511 261.274 51.8511Z" fill="#000C3E"/>
<path d="M291.159 56.4641C290.575 56.4641 289.986 56.2108 289.578 55.7207C288.846 54.8508 288.962 53.5513 289.837 52.819C289.986 52.6869 305.089 39.8743 304.715 26.5936C304.56 20.9609 301.554 15.9228 295.789 11.6171C294.875 10.9343 294.688 9.64041 295.371 8.72641C296.059 7.80689 297.342 7.63069 298.261 8.30794C305.089 13.4121 308.657 19.5293 308.844 26.4945C309.263 41.7794 293.168 55.4124 292.48 55.985C292.095 56.3099 291.627 56.4641 291.159 56.4641Z" fill="#41294A"/>
<path d="M365.168 230.712C364.551 230.712 363.94 230.437 363.532 229.914C362.833 229.011 362.993 227.717 363.896 227.018C364.606 226.462 381.323 213.126 376.951 190.661C375.238 181.863 372.1 172.122 368.769 161.809C362.971 143.843 356.975 125.26 356.87 107.321C356.865 106.182 357.784 105.251 358.924 105.246H358.935C360.069 105.246 360.994 106.165 361 107.299C361.099 124.599 366.996 142.874 372.695 160.543C376.064 170.977 379.247 180.827 381.003 189.874C385.871 214.882 367.222 229.666 366.429 230.283C366.049 230.575 365.608 230.712 365.168 230.712Z" fill="#000C3E"/>
<path d="M372.051 136.534C371.969 136.534 371.886 136.528 371.798 136.517C370.669 136.379 369.866 135.35 370.003 134.216C372.789 111.531 368.467 92.9696 357.146 79.0502C338.91 56.624 308.352 53.8324 308.043 53.8159C306.909 53.7168 306.067 52.7202 306.155 51.5805C306.254 50.4517 307.272 49.5983 308.385 49.6974C309.706 49.802 340.959 52.6266 360.323 76.4128C372.393 91.2352 377.029 110.859 374.1 134.722C373.973 135.763 373.081 136.534 372.051 136.534Z" fill="#000C3E"/>
<path d="M288.245 216.102C285.921 216.102 283.454 216.025 281.604 215.959C280.465 215.909 279.578 214.951 279.622 213.812C279.661 212.672 280.536 211.752 281.764 211.829C286.516 212.017 292.275 212.039 293.321 211.736C294.395 211.433 295.557 212.011 295.904 213.074C296.245 214.131 295.738 215.254 294.698 215.629C293.696 215.987 291.08 216.102 288.245 216.102Z" fill="#EE9B68"/>
<path d="M221.921 178.609C221.722 178.609 221.519 178.581 221.32 178.515C220.225 178.185 219.613 177.034 219.949 175.944C223.704 163.605 214.713 155.412 214.625 155.329C213.777 154.575 213.7 153.265 214.46 152.411C215.214 151.558 216.519 151.481 217.378 152.246C217.829 152.648 228.418 162.311 223.892 177.144C223.627 178.036 222.807 178.609 221.921 178.609Z" fill="#EE9B68"/>
<path d="M344.354 184.659C344.293 184.659 344.238 184.659 344.172 184.654C343.038 184.549 342.195 183.553 342.294 182.413C343.654 166.935 351.335 158.775 351.66 158.434C352.453 157.619 353.747 157.597 354.573 158.379C355.399 159.161 355.426 160.466 354.644 161.292C354.573 161.369 347.635 168.829 346.413 182.776C346.314 183.85 345.411 184.659 344.354 184.659Z" fill="#EE9B68"/>
<path d="M224.043 276.78C224.043 276.78 270.927 332.832 307.086 317.834C343.238 302.835 377.112 262.178 358.936 256.782C340.761 251.392 195.621 254.228 224.043 276.78Z" fill="#FFCEB0"/>
<path d="M347.872 350.85C347.872 350.85 320.551 326.315 291.985 340.185C263.42 354.049 272.114 382.852 246.032 377.516C219.949 372.181 172.691 380.242 183.934 408.449C195.177 436.657 123.257 458.725 150.578 494.994C177.899 531.257 251.642 503.38 274.3 510.851C296.952 518.318 350.355 521.517 356.566 500.181C362.777 478.85 402.52 475.651 396.309 447.917C390.098 420.183 383.887 381.784 347.872 350.85Z" fill="white"/>
<path d="M257.621 415.381C257.621 415.381 285.515 448.875 285.443 481.113C285.399 501.639 270.291 467.045 265.104 460.041C259.923 453.043 276.276 483.194 270.858 492.846C268.209 497.57 251.322 462.695 251.322 462.695C251.322 462.695 258.491 495.462 253.921 498.644C249.357 501.832 237.574 470.321 237.574 470.321C237.574 470.321 238.124 495.919 232.695 496.238C227.272 496.557 229.221 470.249 207.444 458.857C185.662 447.465 86.4486 526.312 84.092 461.693C81.7354 397.074 110.846 374.686 178.279 386.419C231.495 395.681 239.892 401.55 257.621 415.381Z" fill="#FFC6A6"/>
<path d="M319.658 415.381C319.658 415.381 291.764 448.875 291.835 481.113C291.879 501.639 306.988 467.045 312.175 460.041C317.356 453.043 301.003 483.194 306.421 492.846C309.069 497.57 325.956 462.695 325.956 462.695C325.956 462.695 318.788 495.462 323.358 498.644C327.922 501.832 339.705 470.321 339.705 470.321C339.705 470.321 339.155 495.919 344.584 496.238C350.007 496.557 348.058 470.249 369.834 458.857C391.616 447.465 503.417 534.059 505.774 469.44C508.125 404.821 466.433 374.686 399 386.419C345.784 395.681 337.387 401.55 319.658 415.381Z" fill="#FFC6A6"/>
<path d="M350.706 471.703C350.706 471.703 351.301 415.013 382.284 415.381C413.266 415.756 427.995 443.446 398.835 459.777C369.675 476.113 349.886 482.77 350.706 471.703Z" fill="white"/>
<path d="M374.084 436.401C374.084 436.401 379.034 447.925 390.723 449.082C402.407 450.238 428.974 449.082 431.287 465.831C433.594 482.581 419.707 505.679 402.683 503.372C385.663 501.059 368.187 497.585 353.833 507.204C339.478 516.823 353.844 429.497 374.084 436.401Z" fill="white"/>
<path d="M403.564 346.58C403.564 354.234 397.358 360.439 389.705 360.439C382.046 360.439 375.841 354.234 375.841 346.58C375.841 338.927 382.046 332.722 389.705 332.722C397.358 332.722 403.564 338.927 403.564 346.58Z" fill="white"/>
<path d="M242.859 346.58C242.859 354.234 236.653 360.439 229 360.439C221.341 360.439 215.136 354.234 215.136 346.58C215.136 338.927 221.341 332.722 229 332.722C236.653 332.722 242.859 338.927 242.859 346.58Z" fill="white"/>
<path d="M286.959 202.745C276.377 202.745 267.066 195.428 266.636 195.075C265.739 194.371 265.596 193.071 266.306 192.179C267.011 191.293 268.31 191.138 269.202 191.849C269.312 191.931 279.779 200.119 289.966 198.362C294.877 197.498 299.012 194.387 302.261 189.112C302.861 188.138 304.144 187.829 305.102 188.435C306.076 189.035 306.374 190.307 305.779 191.276C301.881 197.608 296.793 201.363 290.659 202.431C289.415 202.646 288.182 202.745 286.959 202.745Z" fill="#EE9B68"/>
<path d="M203.278 261.038C203.278 261.038 164.124 316.193 162.982 348.606C161.84 381.019 126.798 394.689 136.729 441.389C140.645 459.778 151.647 485.839 141.098 496.121C113.616 522.908 87.086 503.496 82.5072 496.121C49.403 442.766 89.4828 316.612 124.358 288.54C150.665 261.038 203.278 261.038 203.278 261.038Z" fill="#D9423D"/>
<path d="M385.031 258.648C385.031 258.648 428.567 314.556 429.767 346.006C430.967 377.456 467.791 390.72 457.355 436.033C453.24 453.876 434.093 480.011 454.042 489.14C477.655 499.943 515.34 492.996 520.151 485.84C567.981 430.836 504.187 319.366 467.538 292.129C435.253 265.822 385.031 258.648 385.031 258.648Z" fill="#D9423D"/>
<path d="M288.116 8.71674C287.472 8.71674 286.773 8.79151 286.016 8.94103C284.17 9.3116 282.973 10.2087 282.255 11.7658C279.053 18.6959 285.805 35.2022 290.628 44.9538C293.609 34.136 297.182 16.0532 292.133 10.355C291.162 9.25959 289.839 8.71674 288.116 8.71674ZM291.191 53.0932C290.388 53.0932 289.637 52.6609 289.24 51.9458C287.534 48.887 272.737 21.7222 278.198 9.89344C279.512 7.04921 281.914 5.2029 285.142 4.5593C290.641 3.46387 293.801 5.49546 295.478 7.39052C304.248 17.2917 294.461 48.0809 293.317 51.5589C293.037 52.4008 292.289 52.9989 291.405 53.0834C291.334 53.0899 291.262 53.0932 291.191 53.0932Z" fill="#FFD310"/>
<path d="M318.24 19.7081C318.029 19.7081 317.814 19.7211 317.6 19.7536C310.049 20.758 300.924 36.7734 296.101 46.9054C306.129 42.6829 322.034 34.6183 324.146 27.2851C324.621 25.6338 324.302 24.1743 323.148 22.6856C321.595 20.6865 319.986 19.7081 318.24 19.7081ZM291.813 53.2342C291.212 53.2342 290.624 52.9937 290.198 52.5451C289.583 51.9015 289.408 50.9588 289.749 50.1397C291.16 46.7624 303.895 17.0719 317.008 15.3231C319.521 14.9883 323.236 15.5149 326.675 19.9421C328.697 22.5425 329.308 25.5103 328.44 28.5203C324.832 41.0381 295.867 51.9015 292.577 53.1009C292.327 53.1919 292.07 53.2342 291.813 53.2342Z" fill="#FFD310"/>
<path d="M249.861 45.3415C260.715 52.3193 285.525 57.7466 304.908 45.3415" stroke="#FFD310" stroke-width="3.87"/>
<defs>
<linearGradient id="paint0_linear" x1="22.3488" y1="465.289" x2="53.6068" y2="573.824" gradientUnits="userSpaceOnUse">
<stop stop-color="#FFCECE"/>
<stop offset="1" stop-color="#FFF2F2"/>
</linearGradient>
<linearGradient id="paint1_linear" x1="84.4993" y1="97.5001" x2="494.884" y2="408.938" gradientUnits="userSpaceOnUse">
<stop stop-color="#FFDADA"/>
<stop offset="1" stop-color="white"/>
</linearGradient>
<linearGradient id="paint2_linear" x1="531.981" y1="178.886" x2="411.952" y2="127.619" gradientUnits="userSpaceOnUse">
<stop stop-color="#FFDFDF"/>
<stop offset="1" stop-color="#FFF5F5"/>
</linearGradient>
<linearGradient id="paint3_linear" x1="504.888" y1="516.965" x2="22.3615" y2="237.536" gradientUnits="userSpaceOnUse">
<stop stop-color="#FFE0E0"/>
<stop offset="1" stop-color="#FFF4F4"/>
</linearGradient>
</defs>
</svg>
